SplineFontDB: 3.0
FontName: Candal
FullName: Candal
FamilyName: Candal
Weight: Book
Copyright: Copyright (c) 2011 by vernon adams. All rights reserved.
Version: 1.000
ItalicAngle: 0
UnderlinePosition: -98
UnderlineWidth: 258
Ascent: 1638
Descent: 410
sfntRevision: 0x00010000
LayerCount: 2
Layer: 0 1 "Back"  1
Layer: 1 1 "Fore"  0
XUID: [1021 759 1887733602 5603596]
FSType: 0
OS2Version: 3
OS2_WeightWidthSlopeOnly: 0
OS2_UseTypoMetrics: 1
CreationTime: 1299122465
ModificationTime: 1310705912
PfmFamily: 17
TTFWeight: 400
TTFWidth: 5
LineGap: 0
VLineGap: 0
Panose: 2 0 5 3 0 0 0 2 0 4
OS2TypoAscent: -102
OS2TypoAOffset: 1
OS2TypoDescent: -22
OS2TypoDOffset: 1
OS2TypoLinegap: 0
OS2WinAscent: 0
OS2WinAOffset: 1
OS2WinDescent: -209
OS2WinDOffset: 1
HheadAscent: 0
HheadAOffset: 1
HheadDescent: 209
HheadDOffset: 1
OS2SubXSize: 1434
OS2SubYSize: 1331
OS2SubXOff: 0
OS2SubYOff: 287
OS2SupXSize: 1434
OS2SupYSize: 1331
OS2SupXOff: 0
OS2SupYOff: 977
OS2StrikeYSize: 102
OS2StrikeYPos: 512
OS2Vendor: 'newt'
OS2CodePages: 20000013.00000000
OS2UnicodeRanges: 800000ef.4000204b.00000000.00000000
Lookup: 258 0 0 "'kern' Horizontal Kerning in Latin lookup 0"  {"'kern' Horizontal Kerning in Latin lookup 0 subtable"  } ['kern' ('DFLT' <'dflt' > 'latn' <'dflt' > ) ]
MarkAttachClasses: 1
DEI: 91125
TtTable: prep
PUSHW_1
 0
CALL
SVTCA[y-axis]
PUSHW_3
 1
 6
 2
CALL
SVTCA[y-axis]
PUSHW_8
 1
 44
 39
 25
 20
 13
 0
 8
CALL
PUSHW_8
 2
 59
 48
 35
 27
 13
 0
 8
CALL
PUSHW_8
 3
 51
 39
 35
 20
 13
 0
 8
CALL
PUSHW_8
 4
 40
 31
 25
 20
 13
 0
 8
CALL
PUSHW_8
 5
 36
 31
 25
 14
 9
 0
 8
CALL
PUSHW_8
 6
 26
 21
 16
 14
 9
 0
 8
CALL
SVTCA[y-axis]
PUSHW_3
 7
 4
 7
CALL
PUSHW_1
 0
DUP
RCVT
RDTG
ROUND[Black]
RTG
WCVTP
EndTTInstrs
TtTable: fpgm
PUSHW_1
 0
FDEF
MPPEM
PUSHW_1
 8
LT
IF
PUSHB_2
 1
 1
INSTCTRL
EIF
PUSHW_1
 511
SCANCTRL
PUSHW_1
 48
SCVTCI
PUSHW_2
 8
 3
SDS
SDB
ENDF
PUSHW_1
 1
FDEF
DUP
DUP
RCVT
ROUND[Black]
WCVTP
PUSHB_1
 1
ADD
ENDF
PUSHW_1
 2
FDEF
PUSHW_1
 1
LOOPCALL
POP
ENDF
PUSHW_1
 3
FDEF
DUP

StartChar: exclam
Encoding: 33 33 4
Width: 1033
Flags: W
LayerCount: 2
Fore
SplineSet
292 1414 m 1,0,-1
 740 1414 l 1,1,-1
 676 512 l 1,2,-1
 356 512 l 1,3,-1
 292 1414 l 1,0,-1
516 -29 m 0,4,5
 451 -29 451 -29 402.5 -12 c 128,-1,6
 354 5 354 5 322.5 30.5 c 128,-1,7
 291 56 291 56 275.5 90 c 128,-1,8
 260 124 260 124 260 159 c 0,9,10
 260 195 260 195 276.5 229.5 c 128,-1,11
 293 264 293 264 325 291.5 c 128,-1,12
 357 319 357 319 405 335.5 c 128,-1,13
 453 352 453 352 516 352 c 256,14,15
 579 352 579 352 627 335.5 c 128,-1,16
 675 319 675 319 707.5 292 c 128,-1,17
 740 265 740 265 756.5 230.5 c 128,-1,18
 773 196 773 196 773 160 c 0,19,20
 773 125 773 125 757.5 90.5 c 128,-1,21
 742 56 742 56 710 30.5 c 128,-1,22
 678 5 678 5 630 -12 c 128,-1,23
 582 -29 582 -29 516 -29 c 0,4,5
EndSplineSet
EndChar

StartChar: quotedbl
Encoding: 34 34 5
Width: 1088
Flags: W
LayerCount: 2
Fore
SplineSet
176 1536 m 1,0,-1
 496 1536 l 1,1,-1
 436 976 l 1,2,-1
 236 976 l 1,3,-1
 176 1536 l 1,0,-1
592 1536 m 1,4,-1
 912 1536 l 1,5,-1
 852 976 l 1,6,-1
 652 976 l 1,7,-1
 592 1536 l 1,4,-1
EndSplineSet
EndChar

StartChar: numbersign
Encoding: 35 35 6
Width: 1182
Flags: W
LayerCount: 2
Fore
SplineSet
242 691 m 1,0,1
 200 751 200 751 179.5 819.5 c 128,-1,2
 159 888 159 888 159 960 c 0,3,4
 159 1026 159 1026 177 1089.5 c 128,-1,5
 195 1153 195 1153 230 1210 c 1,6,-1
 127 1319 l 1,7,-1
 287 1473 l 1,8,-1
 394 1360 l 1,9,10
 439 1383 439 1383 492.5 1395.5 c 128,-1,11
 546 1408 546 1408 607 1408 c 0,12,13
 661 1408 661 1408 708 1398 c 128,-1,14
 755 1388 755 1388 797 1370 c 1,15,-1
 895 1473 l 1,16,-1
 1055 1319 l 1,17,-1
 970 1230 l 1,18,19
 1012 1170 1012 1170 1033.5 1101 c 128,-1,20
 1055 1032 1055 1032 1055 960 c 0,21,22
 1055 882 1055 882 1030 807.5 c 128,-1,23
 1005 733 1005 733 957 672 c 1,24,-1
 1055 570 l 1,25,-1
 895 416 l 1,26,-1
 776 541 l 1,27,28
 698 512 698 512 607 512 c 0,29,30
 552 512 552 512 504.5 522 c 128,-1,31
 457 532 457 532 415 550 c 1,32,-1
 287 416 l 1,33,-1
 127 570 l 1,34,-1
 242 691 l 1,0,1
415 960 m 256,35,36
 415 913 415 913 425 872 c 128,-1,37
 435 831 435 831 458 801 c 128,-1,38
 481 771 481 771 517.5 753.5 c 128,-1,39
 554 736 554 736 607 736 c 256,40,41
 660 736 660 736 697 753.5 c 128,-1,42
 734 771 734 771 756.5 801 c 128,-1,43
 779 831 779 831 789 872 c 128,-1,44
 799 913 799 913 799 960 c 256,45,46
 799 1007 799 1007 789 1048 c 128,-1,47
 779 1089 779 1089 756.5 1119 c 128,-1,48
 734 1149 734 1149 697 1166.5 c 128,-1,49
 660 1184 660 1184 607 1184 c 256,50,51
 554 1184 554 1184 517.5 1166.5 c 128,-1,52
 481 1149 481 1149 458 1119 c 128,-1,53
 435 1089 435 1089 425 1048 c 128,-1,54
 415 1007 415 1007 415 960 c 256,35,36
EndSplineSet
EndChar

StartChar: dollar
Encoding: 36 36 7
Width: 1372
Flags: W
LayerCount: 2
Fore
SplineSet
581 42 m 1,0,1
 479 51 479 51 375.5 76 c 128,-1,2
 272 101 272 101 178 143 c 1,3,-1
 178 475 l 1,4,5
 226 451 226 451 280 429.5 c 128,-1,6
 334 408 334 408 391 392.5 c 128,-1,7
 448 377 448 377 506 368 c 128,-1,8
 564 359 564 359 619 359 c 0,9,10
 658 359 658 359 693.5 361.5 c 128,-1,11
 729 364 729 364 756.5 372.5 c 128,-1,12
 784 381 784 381 800.5 397 c 128,-1,13
 817 413 817 413 817 441 c 0,14,15
 817 465 817 465 800.5 487 c 128,-1,16
 784 509 784 509 749.5 531.5 c 128,-1,17
 715 554 715 554 661 579 c 128,-1,18
 607 604 607 604 531 633 c 1,19,20
 488 653 488 653 443 676 c 128,-1,21
 398 699 398 699 355 727.5 c 128,-1,22
 312 756 312 756 274 790.5 c 128,-1,23
 236 825 236 825 207 868 c 128,-1,24
 178 911 178 911 161.5 963 c 128,-1,25
 145 1015 145 1015 145 1079 c 0,26,27
 145 1145 145 1145 169 1205 c 128,-1,28
 193 1265 193 1265 243.5 1313.5 c 128,-1,29
 294 1362 294 1362 372 1396 c 128,-1,30
 450 1430 450 1430 558 1444 c 1,31,-1
 558 1600 l 1,32,-1
 796 1600 l 1,33,-1
 796 1450 l 1,34,35
 844 1447 844 1447 896 1439.5 c 128,-1,36
 948 1432 948 1432 1000 1418 c 128,-1,37
 1052 1404 1052 1404 1100.5 1383.5 c 128,-1,38
 1149 1363 1149 1363 1190 1335 c 1,39,-1
 1158 1058 l 1,40,41
 1117 1076 1117 1076 1072.5 1094 c 128,-1,42
 1028 1112 1028 1112 975.5 1126.5 c 128,-1,43
 923 1141 923 1141 859.5 1150 c 128,-1,44
 796 1159 796 1159 718 1159 c 0,45,46
 652 1159 652 1159 622 1138.5 c 128,-1,47
 592 1118 592 1118 592 1086 c 0,48,49
 592 1066 592 1066 614 1045 c 128,-1,50
 636 1024 636 1024 670.5 1004 c 128,-1,51
 705 984 705 984 748.5 965 c 128,-1,52
 792 946 792 946 835 930 c 1,53,54
 874 912 874 912 919.5 889 c 128,-1,55
 965 866 965 866 1010.5 835.5 c 128,-1,56
 1056 805 1056 805 1098.5 766 c 128,-1,57
 1141 727 1141 727 1173.5 678 c 128,-1,58
 1206 629 1206 629 1225.5 568 c 128,-1,59
 1245 507 1245 507 1245 433 c 0,60,61
 1245 369 1245 369 1220 306 c 128,-1,62
 1195 243 1195 243 1143 190 c 128,-1,63
 1091 137 1091 137 1010.5 98.5 c 128,-1,64
 930 60 930 60 819 45 c 1,65,-1
 819 -100 l 1,66,-1
 581 -100 l 1,67,-1
 581 42 l 1,0,1
EndSplineSet
EndChar

StartChar: percent
Encoding: 37 37 8
Width: 2818
Flags: W
LayerCount: 2
Fore
SplineSet
562 285 m 256,0,1
 468 285 468 285 393.5 308 c 128,-1,2
 319 331 319 331 262.5 371.5 c 128,-1,3
 206 412 206 412 166.5 467.5 c 128,-1,4
 127 523 127 523 102.5 588 c 128,-1,5
 78 653 78 653 66.5 724.5 c 128,-1,6
 55 796 55 796 55 869 c 0,7,8
 55 940 55 940 66 1010.5 c 128,-1,9
 77 1081 77 1081 102 1144.5 c 128,-1,10
 127 1208 127 1208 166 1262.5 c 128,-1,11
 205 1317 205 1317 261.5 1356.5 c 128,-1,12
 318 1396 318 1396 392.5 1418.5 c 128,-1,13
 467 1441 467 1441 562 1441 c 0,14,15
 704 1441 704 1441 801 1392 c 128,-1,16
 898 1343 898 1343 957.5 1262.5 c 128,-1,17
 1017 1182 1017 1182 1043 1079 c 128,-1,18
 1069 976 1069 976 1069 869 c 0,19,20
 1069 796 1069 796 1057.5 724.5 c 128,-1,21
 1046 653 1046 653 1021.5 588 c 128,-1,22
 997 523 997 523 957.5 467.5 c 128,-1,23
 918 412 918 412 861.5 371.5 c 128,-1,24
 805 331 805 331 730.5 308 c 128,-1,25
 656 285 656 285 562 285 c 256,0,1
562 522 m 0,26,27
 603 522 603 522 634 551.5 c 128,-1,28
 665 581 665 581 685.5 629.5 c 128,-1,29
 706 678 706 678 716.5 740 c 128,-1,30
 727 802 727 802 727 867 c 0,31,32
 727 931 727 931 716.5 993 c 128,-1,33
 706 1055 706 1055 685.5 1103.5 c 128,-1,34
 665 1152 665 1152 634 1181.5 c 128,-1,35
 603 1211 603 1211 562 1211 c 256,36,37
 521 1211 521 1211 490 1181.5 c 128,-1,38
 459 1152 459 1152 438 1103.5 c 128,-1,39
 417 1055 417 1055 406.5 993 c 128,-1,40
 396 931 396 931 396 867 c 0,41,42
 396 802 396 802 406.5 740 c 128,-1,43
 417 678 417 678 437.5 629.5 c 128,-1,44
 458 581 458 581 489 551.5 c 128,-1,45
 520 522 520 522 562 522 c 0,26,27
2258 -29 m 1,46,47
 2163 -28 2163 -28 2089 -5 c 128,-1,48
 2015 18 2015 18 1958.5 58.5 c 128,-1,49
 1902 99 1902 99 1862.5 154.5 c 128,-1,50
 1823 210 1823 210 1798.5 275 c 128,-1,51
 1774 340 1774 340 1762.5 411.5 c 128,-1,52
 1751 483 1751 483 1751 556 c 0,53,54
 1751 628 1751 628 1762 698 c 128,-1,55
 1773 768 1773 768 1798 831.5 c 128,-1,56
 1823 895 1823 895 1862 949.5 c 128,-1,57
 1901 1004 1901 1004 1957.5 1043.5 c 128,-1,58
 2014 1083 2014 1083 2088.5 1105.5 c 128,-1,59
 2163 1128 2163 1128 2258 1128 c 0,60,61
 2400 1128 2400 1128 2497 1079 c 128,-1,62
 2594 1030 2594 1030 2653.5 949.5 c 128,-1,63
 2713 869 2713 869 2739 766 c 128,-1,64
 2765 663 2765 663 2765 556 c 0,65,66
 2765 483 2765 483 2753.5 411.5 c 128,-1,67
 2742 340 2742 340 2717.5 275 c 128,-1,68
 2693 210 2693 210 2653.5 154.5 c 128,-1,69
 2614 99 2614 99 2557.5 58.5 c 128,-1,70
 2501 18 2501 18 2426.5 -5 c 128,-1,71
 2352 -28 2352 -28 2258 -29 c 1,46,47
2258 209 m 0,72,73
 2299 209 2299 209 2330 238.5 c 128,-1,74
 2361 268 2361 268 2381.5 316.5 c 128,-1,75
 2402 365 2402 365 2412.5 427 c 128,-1,76
 2423 489 2423 489 2423 554 c 0,77,78
 2423 618 2423 618 2412.5 680 c 128,-1,79
 2402 742 2402 742 2381.5 790.5 c 128,-1,80
 2361 839 2361 839 2330 868.5 c 128,-1,81
 2299 898 2299 898 2258 898 c 256,82,83
 2217 898 2217 898 2186 868.5 c 128,-1,84
 2155 839 2155 839 2134 790.5 c 128,-1,85
 2113 742 2113 742 2102.5 680 c 128,-1,86
 2092 618 2092 618 2092 554 c 0,87,88
 2092 489 2092 489 2102.5 427 c 128,-1,89
 2113 365 2113 365 2133.5 316.5 c 128,-1,90
 2154 268 2154 268 2185 238.5 c 128,-1,91
 2216 209 2216 209 2258 209 c 0,72,73
1884 1426 m 1,92,-1
 1360 0 l 1,93,-1
 943 0 l 1,94,-1
 1442 1426 l 1,95,-1
 1884 1426 l 1,92,-1
EndSplineSet
EndChar

StartChar: ampersand
Encoding: 38 38 9
Width: 1761
Flags: W
LayerCount: 2
Fore
SplineSet
1329 456 m 2,0,1
 1329 420 1329 420 1334.5 387 c 128,-1,2
 1340 354 1340 354 1357 329 c 128,-1,3
 1374 304 1374 304 1406 289 c 128,-1,4
 1438 274 1438 274 1491 274 c 0,5,6
 1525 274 1525 274 1566 281 c 128,-1,7
 1607 288 1607 288 1659 305 c 1,8,-1
 1683 23 l 1,9,10
 1620 0 1620 0 1538.5 -14.5 c 128,-1,11
 1457 -29 1457 -29 1366 -29 c 0,12,13
 1328 -29 1328 -29 1286.5 -24.5 c 128,-1,14
 1245 -20 1245 -20 1203 -8 c 0,15,16
 1177 -1 1177 -1 1157 13 c 128,-1,17
 1137 27 1137 27 1121.5 45 c 128,-1,18
 1106 63 1106 63 1094 83.5 c 128,-1,19
 1082 104 1082 104 1072 125 c 1,20,21
 1025 55 1025 55 924.5 13 c 128,-1,22
 824 -29 824 -29 657 -29 c 0,23,24
 514 -29 514 -29 411 3 c 128,-1,25
 308 35 308 35 242 91 c 128,-1,26
 176 147 176 147 144.5 222 c 128,-1,27
 113 297 113 297 113 384 c 0,28,29
 113 441 113 441 136.5 501.5 c 128,-1,30
 160 562 160 562 205 612.5 c 128,-1,31
 250 663 250 663 315.5 697 c 128,-1,32
 381 731 381 731 465 736 c 1,33,34
 388 749 388 749 338.5 781 c 128,-1,35
 289 813 289 813 260.5 856.5 c 128,-1,36
 232 900 232 900 221 951.5 c 128,-1,37
 210 1003 210 1003 210 1056 c 0,38,39
 210 1135 210 1135 240 1194 c 128,-1,40
 270 1253 270 1253 320 1296 c 128,-1,41
 370 1339 370 1339 435.5 1367 c 128,-1,42
 501 1395 501 1395 572 1411.5 c 128,-1,43
 643 1428 643 1428 714.5 1434.5 c 128,-1,44
 786 1441 786 1441 849 1441 c 0,45,46
 894 1441 894 1441 953.5 1436 c 128,-1,47
 1013 1431 1013 1431 1074.5 1422.5 c 128,-1,48
 1136 1414 1136 1414 1194.5 1402 c 128,-1,49
 1253 1390 1253 1390 1297 1376 c 1,50,-1
 1233 1088 l 1,51,52
 1152 1105 1152 1105 1041.5 1112.5 c 128,-1,53
 931 1120 931 1120 873 1120 c 0,54,55
 807 1120 807 1120 750 1117 c 128,-1,56
 693 1114 693 1114 651 1099 c 128,-1,57
 609 1084 609 1084 585 1053 c 128,-1,58
 561 1022 561 1022 561 965 c 0,59,60
 561 936 561 936 565 915 c 128,-1,61
 569 894 569 894 576.5 878 c 128,-1,62
 584 862 584 862 595 850 c 128,-1,63
 606 838 606 838 620 827 c 0,64,65
 648 805 648 805 686.5 791.5 c 128,-1,66
 725 778 725 778 773 778 c 2,67,-1
 923 778 l 1,68,-1
 923 938 l 1,69,-1
 1329 938 l 1,70,-1
 1329 456 l 2,0,1
937 289 m 1,71,72
 935 294 935 294 932.5 309.5 c 128,-1,73
 930 325 930 325 928 356.5 c 128,-1,74
 926 388 926 388 924.5 438.5 c 128,-1,75
 923 489 923 489 923 564 c 1,76,77
 812 564 812 564 741.5 556 c 128,-1,78
 671 548 671 548 631 530 c 128,-1,79
 591 512 591 512 576 484 c 128,-1,80
 561 456 561 456 561 416 c 0,81,82
 561 389 561 389 570.5 361 c 128,-1,83
 580 333 580 333 602.5 309.5 c 128,-1,84
 625 286 625 286 661.5 271 c 128,-1,85
 698 256 698 256 753 256 c 0,86,87
 789 256 789 256 834.5 263.5 c 128,-1,88
 880 271 880 271 937 289 c 1,71,72
EndSplineSet
EndChar

StartChar: quotesingle
Encoding: 39 39 10
Width: 673
Flags: W
LayerCount: 2
Fore
SplineSet
176 1535 m 1,0,-1
 496 1535 l 1,1,-1
 436 937 l 1,2,-1
 236 937 l 1,3,-1
 176 1535 l 1,0,-1
EndSplineSet
EndChar

StartChar: parenleft
Encoding: 40 40 11
Width: 949
Flags: W
LayerCount: 2
Fore
SplineSet
160 711 m 0,0,1
 160 812 160 812 179 907 c 128,-1,2
 198 1002 198 1002 235 1087 c 128,-1,3
 272 1172 272 1172 327 1242.5 c 128,-1,4
 382 1313 382 1313 453 1364 c 128,-1,5
 524 1415 524 1415 611 1443.5 c 128,-1,6
 698 1472 698 1472 800 1472 c 1,7,-1
 800 1216 l 1,8,9
 755 1216 755 1216 714 1172.5 c 128,-1,10
 673 1129 673 1129 642.5 1057.5 c 128,-1,11
 612 986 612 986 594 895.5 c 128,-1,12
 576 805 576 805 576 711 c 0,13,14
 576 619 576 619 594 531 c 128,-1,15
 612 443 612 443 642.5 375 c 128,-1,16
 673 307 673 307 714 265.5 c 128,-1,17
 755 224 755 224 800 224 c 1,18,-1
 800 -32 l 1,19,20
 698 -32 698 -32 611 -4.5 c 128,-1,21
 524 23 524 23 453 72.5 c 128,-1,22
 382 122 382 122 327 190.5 c 128,-1,23
 272 259 272 259 235 341.5 c 128,-1,24
 198 424 198 424 179 518 c 128,-1,25
 160 612 160 612 160 711 c 0,0,1
EndSplineSet
EndChar

StartChar: parenright
Encoding: 41 41 12
Width: 950
Flags: W
LayerCount: 2
Fore
SplineSet
790 711 m 0,0,1
 790 612 790 612 771 518 c 128,-1,2
 752 424 752 424 715 341.5 c 128,-1,3
 678 259 678 259 623 190.5 c 128,-1,4
 568 122 568 122 497 72.5 c 128,-1,5
 426 23 426 23 339 -4.5 c 128,-1,6
 252 -32 252 -32 150 -32 c 1,7,-1
 150 224 l 1,8,9
 195 224 195 224 236 265.5 c 128,-1,10
 277 307 277 307 307.5 375 c 128,-1,11
 338 443 338 443 356 531 c 128,-1,12
 374 619 374 619 374 711 c 0,13,14
 374 805 374 805 356 895.5 c 128,-1,15
 338 986 338 986 307.5 1057.5 c 128,-1,16
 277 1129 277 1129 236 1172.5 c 128,-1,17
 195 1216 195 1216 150 1216 c 1,18,-1
 150 1472 l 1,19,20
 252 1472 252 1472 339 1443.5 c 128,-1,21
 426 1415 426 1415 497 1364 c 128,-1,22
 568 1313 568 1313 623 1242.5 c 128,-1,23
 678 1172 678 1172 715 1087 c 128,-1,24
 752 1002 752 1002 771 906.5 c 128,-1,25
 790 811 790 811 790 711 c 0,0,1
EndSplineSet
EndChar

StartChar: asterisk
Encoding: 42 42 13
Width: 1038
Flags: W
LayerCount: 2
Fore
SplineSet
391 473 m 1,0,-1
 198 565 l 1,1,-1
 350 866 l 1,2,-1
 39 866 l 1,3,-1
 39 1086 l 1,4,-1
 350 1086 l 1,5,-1
 198 1404 l 1,6,-1
 391 1496 l 1,7,-1
 519 1199 l 1,8,-1
 647 1496 l 1,9,-1
 840 1404 l 1,10,-1
 688 1103 l 1,11,-1
 999 1103 l 1,12,-1
 999 883 l 1,13,-1
 688 883 l 1,14,-1
 840 565 l 1,15,-1
 647 473 l 1,16,-1
 519 770 l 1,17,-1
 391 473 l 1,0,-1
EndSplineSet
EndChar

StartChar: plus
Encoding: 43 43 14
Width: 1162
Flags: W
LayerCount: 2
Fore
SplineSet
421 544 m 1,0,-1
 197 544 l 1,1,-1
 197 832 l 1,2,-1
 421 832 l 1,3,-1
 421 1088 l 1,4,-1
 741 1088 l 1,5,-1
 741 832 l 1,6,-1
 965 832 l 1,7,-1
 965 544 l 1,8,-1
 741 544 l 1,9,-1
 741 288 l 1,10,-1
 421 288 l 1,11,-1
 421 544 l 1,0,-1
EndSplineSet
EndChar

StartChar: comma
Encoding: 44 44 15
Width: 832
Flags: W
LayerCount: 2
Fore
SplineSet
397 4 m 1,0,1
 331 -32 331 -32 282 -32 c 0,2,3
 243 -32 243 -32 209.5 -15 c 128,-1,4
 176 2 176 2 151 30.5 c 128,-1,5
 126 59 126 59 112 97 c 128,-1,6
 98 135 98 135 98 176 c 0,7,8
 98 218 98 218 114.5 261 c 128,-1,9
 131 304 131 304 164.5 338.5 c 128,-1,10
 198 373 198 373 248.5 394.5 c 128,-1,11
 299 416 299 416 367 416 c 0,12,13
 504 416 504 416 573 334.5 c 128,-1,14
 642 253 642 253 642 98 c 0,15,16
 642 -28 642 -28 605 -109.5 c 128,-1,17
 568 -191 568 -191 508.5 -237.5 c 128,-1,18
 449 -284 449 -284 375 -302 c 128,-1,19
 301 -320 301 -320 226 -320 c 2,20,-1
 130 -320 l 1,21,-1
 130 -128 l 1,22,23
 223 -128 223 -128 276.5 -120 c 128,-1,24
 330 -112 330 -112 357 -95.5 c 128,-1,25
 384 -79 384 -79 390.5 -54 c 128,-1,26
 397 -29 397 -29 397 4 c 1,0,1
EndSplineSet
EndChar

StartChar: hyphen
Encoding: 45 45 16
Width: 1001
Flags: W
LayerCount: 2
Fore
SplineSet
900 832 m 1,0,-1
 900 512 l 1,1,-1
 100 512 l 1,2,-1
 100 832 l 1,3,-1
 900 832 l 1,0,-1
EndSplineSet
EndChar

StartChar: period
Encoding: 46 46 17
Width: 924
Flags: W
LayerCount: 2
Fore
SplineSet
455 -29 m 0,0,1
 388 -29 388 -29 343.5 -10 c 128,-1,2
 299 9 299 9 268 40.5 c 128,-1,3
 237 72 237 72 220.5 112.5 c 128,-1,4
 204 153 204 153 204 195 c 0,5,6
 204 235 204 235 221 275 c 128,-1,7
 238 315 238 315 270 347 c 128,-1,8
 302 379 302 379 346.5 399 c 128,-1,9
 391 419 391 419 456 419 c 0,10,11
 523 419 523 419 570 399 c 128,-1,12
 617 379 617 379 650.5 347 c 128,-1,13
 684 315 684 315 702 275.5 c 128,-1,14
 720 236 720 236 720 196 c 0,15,16
 720 153 720 153 702.5 112.5 c 128,-1,17
 685 72 685 72 652.5 40.5 c 128,-1,18
 620 9 620 9 572.5 -10 c 128,-1,19
 525 -29 525 -29 455 -29 c 0,0,1
EndSplineSet
EndChar

StartChar: slash
Encoding: 47 47 18
Width: 748
Flags: W
LayerCount: 2
Fore
SplineSet
864 1441 m 1,0,-1
 448 -29 l 1,1,-1
 0 -29 l 1,2,-1
 384 1441 l 1,3,-1
 864 1441 l 1,0,-1
EndSplineSet
EndChar

StartChar: zero
Encoding: 48 48 19
Width: 1524
Flags: W
LayerCount: 2
Fore
SplineSet
762 1441 m 256,0,1
 888 1441 888 1441 987 1412 c 128,-1,2
 1086 1383 1086 1383 1160.5 1332.5 c 128,-1,3
 1235 1282 1235 1282 1287 1212 c 128,-1,4
 1339 1142 1339 1142 1371.5 1060.5 c 128,-1,5
 1404 979 1404 979 1419 888.5 c 128,-1,6
 1434 798 1434 798 1434 706 c 0,7,8
 1434 615 1434 615 1419 524 c 128,-1,9
 1404 433 1404 433 1371 351.5 c 128,-1,10
 1338 270 1338 270 1286 200 c 128,-1,11
 1234 130 1234 130 1159 79.5 c 128,-1,12
 1084 29 1084 29 985.5 0 c 128,-1,13
 887 -29 887 -29 762 -29 c 256,14,15
 637 -29 637 -29 538.5 0 c 128,-1,16
 440 29 440 29 365 79.5 c 128,-1,17
 290 130 290 130 238 200 c 128,-1,18
 186 270 186 270 153 351.5 c 128,-1,19
 120 433 120 433 105 524 c 128,-1,20
 90 615 90 615 90 706 c 0,21,22
 90 798 90 798 105 888.5 c 128,-1,23
 120 979 120 979 152.5 1060.5 c 128,-1,24
 185 1142 185 1142 237 1212 c 128,-1,25
 289 1282 289 1282 363.5 1332.5 c 128,-1,26
 438 1383 438 1383 537 1412 c 128,-1,27
 636 1441 636 1441 762 1441 c 256,0,1
762 1121 m 256,28,29
 707 1121 707 1121 665.5 1086.5 c 128,-1,30
 624 1052 624 1052 596 994 c 128,-1,31
 568 936 568 936 553.5 861 c 128,-1,32
 539 786 539 786 539 705 c 0,33,34
 539 626 539 626 553 551 c 128,-1,35
 567 476 567 476 595 418.5 c 128,-1,36
 623 361 623 361 664.5 326 c 128,-1,37
 706 291 706 291 762 291 c 0,38,39
 817 291 817 291 859 326 c 128,-1,40
 901 361 901 361 929 418.5 c 128,-1,41
 957 476 957 476 971 551 c 128,-1,42
 985 626 985 626 985 705 c 0,43,44
 985 786 985 786 970.5 861 c 128,-1,45
 956 936 956 936 928 994 c 128,-1,46
 900 1052 900 1052 858.5 1086.5 c 128,-1,47
 817 1121 817 1121 762 1121 c 256,28,29
EndSplineSet
EndChar

StartChar: one
Encoding: 49 49 20
Width: 1109
Flags: W
LayerCount: 2
Fore
SplineSet
860 0 m 1,0,-1
 433 0 l 1,1,-1
 433 1021 l 1,2,-1
 209 980 l 1,3,-1
 209 1254 l 1,4,5
 276 1275 276 1275 356 1312 c 128,-1,6
 436 1349 436 1349 544 1414 c 1,7,-1
 860 1414 l 1,8,-1
 860 0 l 1,0,-1
EndSplineSet
EndChar

StartChar: two
Encoding: 50 50 21
Width: 1321
Flags: W
LayerCount: 2
Fore
SplineSet
604 349 m 1,0,-1
 1145 349 l 1,1,-1
 1145 0 l 1,2,-1
 199 0 l 1,3,-1
 147 352 l 1,4,5
 192 395 192 395 251 441.5 c 128,-1,6
 310 488 310 488 373 537.5 c 128,-1,7
 436 587 436 587 497 639.5 c 128,-1,8
 558 692 558 692 606 747.5 c 128,-1,9
 654 803 654 803 683.5 862 c 128,-1,10
 713 921 713 921 713 983 c 0,11,12
 713 1021 713 1021 695.5 1047.5 c 128,-1,13
 678 1074 678 1074 651 1090 c 128,-1,14
 624 1106 624 1106 590.5 1113 c 128,-1,15
 557 1120 557 1120 524 1120 c 0,16,17
 483 1120 483 1120 441 1114 c 128,-1,18
 399 1108 399 1108 360 1099 c 128,-1,19
 321 1090 321 1090 287.5 1078.5 c 128,-1,20
 254 1067 254 1067 231 1056 c 1,21,-1
 167 1376 l 1,22,23
 279 1414 279 1414 388 1427.5 c 128,-1,24
 497 1441 497 1441 594 1441 c 0,25,26
 739 1441 739 1441 845.5 1406.5 c 128,-1,27
 952 1372 952 1372 1022 1313.5 c 128,-1,28
 1092 1255 1092 1255 1125.5 1177 c 128,-1,29
 1159 1099 1159 1099 1159 1013 c 0,30,31
 1159 919 1159 919 1114.5 824.5 c 128,-1,32
 1070 730 1070 730 994.5 643 c 128,-1,33
 919 556 919 556 818 480.5 c 128,-1,34
 717 405 717 405 604 349 c 1,0,-1
EndSplineSet
EndChar

StartChar: three
Encoding: 51 51 22
Width: 1297
Flags: W
LayerCount: 2
Fore
SplineSet
285 864 m 1,0,1
 406 864 406 864 481.5 872.5 c 128,-1,2
 557 881 557 881 598.5 898.5 c 128,-1,3
 640 916 640 916 654.5 942.5 c 128,-1,4
 669 969 669 969 669 1004 c 0,5,6
 669 1045 669 1045 652 1074 c 128,-1,7
 635 1103 635 1103 606 1121 c 128,-1,8
 577 1139 577 1139 539 1147.5 c 128,-1,9
 501 1156 501 1156 459 1156 c 0,10,11
 419 1156 419 1156 375.5 1151 c 128,-1,12
 332 1146 332 1146 288.5 1136.5 c 128,-1,13
 245 1127 245 1127 203 1114 c 128,-1,14
 161 1101 161 1101 125 1085 c 1,15,-1
 125 1357 l 1,16,17
 219 1401 219 1401 318.5 1420.5 c 128,-1,18
 418 1440 418 1440 540 1441 c 1,19,20
 656 1440 656 1440 744 1423.5 c 128,-1,21
 832 1407 832 1407 896 1378 c 128,-1,22
 960 1349 960 1349 1002.5 1310 c 128,-1,23
 1045 1271 1045 1271 1070.5 1225 c 128,-1,24
 1096 1179 1096 1179 1106.5 1129 c 128,-1,25
 1117 1079 1117 1079 1117 1028 c 0,26,27
 1117 951 1117 951 1091 897 c 128,-1,28
 1065 843 1065 843 1026 807.5 c 128,-1,29
 987 772 987 772 941.5 752.5 c 128,-1,30
 896 733 896 733 857 724 c 1,31,32
 902 716 902 716 953 697 c 128,-1,33
 1004 678 1004 678 1047.5 641 c 128,-1,34
 1091 604 1091 604 1120 546.5 c 128,-1,35
 1149 489 1149 489 1149 404 c 0,36,37
 1149 347 1149 347 1137.5 293 c 128,-1,38
 1126 239 1126 239 1098.5 191 c 128,-1,39
 1071 143 1071 143 1024.5 102.5 c 128,-1,40
 978 62 978 62 908.5 33 c 128,-1,41
 839 4 839 4 743.5 -12.5 c 128,-1,42
 648 -29 648 -29 522 -29 c 0,43,44
 408 -29 408 -29 312 -11.5 c 128,-1,45
 216 6 216 6 125 44 c 1,46,-1
 125 327 l 1,47,48
 160 311 160 311 202 298 c 128,-1,49
 244 285 244 285 288 275.5 c 128,-1,50
 332 266 332 266 376 261 c 128,-1,51
 420 256 420 256 459 256 c 0,52,53
 499 256 499 256 537 265 c 128,-1,54
 575 274 575 274 604.5 294 c 128,-1,55
 634 314 634 314 651.5 346 c 128,-1,56
 669 378 669 378 669 425 c 0,57,58
 669 465 669 465 656 498.5 c 128,-1,59
 643 532 643 532 602.5 556.5 c 128,-1,60
 562 581 562 581 486.5 594.5 c 128,-1,61
 411 608 411 608 285 608 c 1,62,-1
 285 864 l 1,0,1
EndSplineSet
EndChar

StartChar: four
Encoding: 52 52 23
Width: 1364
Flags: W
LayerCount: 2
Fore
SplineSet
1108 608 m 1,0,-1
 1278 608 l 1,1,-1
 1278 288 l 1,2,-1
 1108 288 l 1,3,-1
 1108 0 l 1,4,-1
 692 0 l 1,5,-1
 692 288 l 1,6,-1
 84 288 l 1,7,-1
 84 608 l 1,8,-1
 436 1414 l 1,9,-1
 1108 1414 l 1,10,-1
 1108 608 l 1,0,-1
623 1120 m 1,11,-1
 428 608 l 1,12,-1
 692 608 l 1,13,-1
 692 1120 l 1,14,-1
 623 1120 l 1,11,-1
EndSplineSet
EndChar

StartChar: five
Encoding: 53 53 24
Width: 1425
Flags: W
LayerCount: 2
Fore
SplineSet
175 642 m 1,0,-1
 271 1414 l 1,1,-1
 1199 1414 l 1,2,-1
 1167 1122 l 1,3,-1
 591 1122 l 1,4,-1
 527 832 l 1,5,6
 561 863 561 863 602.5 882 c 128,-1,7
 644 901 644 901 687.5 911.5 c 128,-1,8
 731 922 731 922 773 925 c 128,-1,9
 815 928 815 928 851 928 c 0,10,11
 940 928 940 928 1024 896 c 128,-1,12
 1108 864 1108 864 1172.5 805.5 c 128,-1,13
 1237 747 1237 747 1276 664.5 c 128,-1,14
 1315 582 1315 582 1315 481 c 0,15,16
 1315 364 1315 364 1277 269.5 c 128,-1,17
 1239 175 1239 175 1165 108.5 c 128,-1,18
 1091 42 1091 42 982 6 c 128,-1,19
 873 -30 873 -30 732 -30 c 0,20,21
 586 -30 586 -30 481.5 3 c 128,-1,22
 377 36 377 36 307 93 c 128,-1,23
 237 150 237 150 197.5 227.5 c 128,-1,24
 158 305 158 305 143 395 c 1,25,-1
 559 395 l 1,26,27
 567 359 567 359 583.5 333 c 128,-1,28
 600 307 600 307 621.5 290 c 128,-1,29
 643 273 643 273 668.5 264.5 c 128,-1,30
 694 256 694 256 721 256 c 0,31,32
 756 256 756 256 790 269 c 128,-1,33
 824 282 824 282 851 307.5 c 128,-1,34
 878 333 878 333 894.5 370 c 128,-1,35
 911 407 911 407 911 454 c 0,36,37
 911 492 911 492 901 527.5 c 128,-1,38
 891 563 891 563 868.5 590 c 128,-1,39
 846 617 846 617 811 633.5 c 128,-1,40
 776 650 776 650 727 650 c 0,41,42
 701 650 701 650 673 645 c 128,-1,43
 645 640 645 640 617.5 630 c 128,-1,44
 590 620 590 620 566 606.5 c 128,-1,45
 542 593 542 593 525 576 c 1,46,-1
 175 642 l 1,0,-1
EndSplineSet
EndChar

StartChar: six
Encoding: 54 54 25
Width: 1399
Flags: W
LayerCount: 2
Fore
SplineSet
1171 1091 m 1,0,1
 1144 1101 1144 1101 1108.5 1112.5 c 128,-1,2
 1073 1124 1073 1124 1031.5 1133.5 c 128,-1,3
 990 1143 990 1143 945 1149.5 c 128,-1,4
 900 1156 900 1156 855 1156 c 0,5,6
 793 1156 793 1156 737.5 1143 c 128,-1,7
 682 1130 682 1130 638.5 1092 c 128,-1,8
 595 1054 595 1054 566.5 984 c 128,-1,9
 538 914 538 914 531 800 c 1,10,11
 568 817 568 817 608.5 829 c 128,-1,12
 649 841 649 841 691 849 c 128,-1,13
 733 857 733 857 773.5 860.5 c 128,-1,14
 814 864 814 864 851 864 c 0,15,16
 941 864 941 864 1022 837 c 128,-1,17
 1103 810 1103 810 1164.5 757.5 c 128,-1,18
 1226 705 1226 705 1262.5 627 c 128,-1,19
 1299 549 1299 549 1299 448 c 0,20,21
 1299 389 1299 389 1289.5 331 c 128,-1,22
 1280 273 1280 273 1256 220 c 128,-1,23
 1232 167 1232 167 1192.5 121.5 c 128,-1,24
 1153 76 1153 76 1093.5 42.5 c 128,-1,25
 1034 9 1034 9 952 -10 c 128,-1,26
 870 -29 870 -29 762 -29 c 0,27,28
 626 -29 626 -29 525.5 -2 c 128,-1,29
 425 25 425 25 353 73.5 c 128,-1,30
 281 122 281 122 235 189.5 c 128,-1,31
 189 257 189 257 162 338 c 128,-1,32
 135 419 135 419 125 511.5 c 128,-1,33
 115 604 115 604 115 702 c 0,34,35
 115 860 115 860 158.5 995.5 c 128,-1,36
 202 1131 202 1131 288.5 1230 c 128,-1,37
 375 1329 375 1329 505 1385 c 128,-1,38
 635 1441 635 1441 808 1441 c 0,39,40
 896 1441 896 1441 994 1426 c 128,-1,41
 1092 1411 1092 1411 1203 1376 c 1,42,-1
 1171 1091 l 1,0,1
531 578 m 1,43,44
 531 468 531 468 551 404 c 128,-1,45
 571 340 571 340 603.5 307 c 128,-1,46
 636 274 636 274 678 265 c 128,-1,47
 720 256 720 256 764 256 c 256,48,49
 808 256 808 256 842 271 c 128,-1,50
 876 286 876 286 899.5 310.5 c 128,-1,51
 923 335 923 335 935 366.5 c 128,-1,52
 947 398 947 398 947 431 c 0,53,54
 947 456 947 456 941.5 487.5 c 128,-1,55
 936 519 936 519 915.5 547 c 128,-1,56
 895 575 895 575 854.5 593.5 c 128,-1,57
 814 612 814 612 745 612 c 0,58,59
 703 612 703 612 650.5 604 c 128,-1,60
 598 596 598 596 531 578 c 1,43,44
EndSplineSet
EndChar

StartChar: seven
Encoding: 55 55 26
Width: 1216
Flags: W
LayerCount: 2
Fore
SplineSet
1133 1122 m 1,0,-1
 701 -3 l 1,1,-1
 221 -3 l 1,2,-1
 653 1122 l 1,3,-1
 125 1122 l 1,4,-1
 125 1414 l 1,5,-1
 1101 1414 l 1,6,-1
 1133 1122 l 1,0,-1
EndSplineSet
EndChar

StartChar: eight
Encoding: 56 56 27
Width: 1574
Flags: W
LayerCount: 2
Fore
SplineSet
1363 1091 m 0,0,1
 1363 1003 1363 1003 1305 926.5 c 128,-1,2
 1247 850 1247 850 1132 802 c 1,3,4
 1193 779 1193 779 1252 747.5 c 128,-1,5
 1311 716 1311 716 1357 673.5 c 128,-1,6
 1403 631 1403 631 1431 575 c 128,-1,7
 1459 519 1459 519 1459 446 c 0,8,9
 1459 388 1459 388 1446.5 330 c 128,-1,10
 1434 272 1434 272 1404 219.5 c 128,-1,11
 1374 167 1374 167 1324 121.5 c 128,-1,12
 1274 76 1274 76 1198.5 42.5 c 128,-1,13
 1123 9 1123 9 1019.5 -10 c 128,-1,14
 916 -29 916 -29 780 -29 c 0,15,16
 616 -29 616 -29 492 5 c 128,-1,17
 368 39 368 39 284 94 c 128,-1,18
 200 149 200 149 157.5 218 c 128,-1,19
 115 287 115 287 115 358 c 0,20,21
 115 461 115 461 194.5 547 c 128,-1,22
 274 633 274 633 435 679 c 1,23,24
 387 708 387 708 346 744.5 c 128,-1,25
 305 781 305 781 275 827 c 128,-1,26
 245 873 245 873 228 929.5 c 128,-1,27
 211 986 211 986 211 1055 c 0,28,29
 211 1131 211 1131 248.5 1201 c 128,-1,30
 286 1271 286 1271 359 1324.5 c 128,-1,31
 432 1378 432 1378 539.5 1409.5 c 128,-1,32
 647 1441 647 1441 788 1441 c 0,33,34
 927 1441 927 1441 1034.5 1410.5 c 128,-1,35
 1142 1380 1142 1380 1215 1330.5 c 128,-1,36
 1288 1281 1288 1281 1325.5 1218 c 128,-1,37
 1363 1155 1363 1155 1363 1091 c 0,0,1
730 559 m 0,38,39
 704 567 704 567 675 576 c 128,-1,40
 646 585 646 585 615 596 c 1,41,42
 576 566 576 566 553.5 530 c 128,-1,43
 531 494 531 494 531 445 c 0,44,45
 531 391 531 391 553 354.5 c 128,-1,46
 575 318 575 318 610.5 296 c 128,-1,47
 646 274 646 274 691 265 c 128,-1,48
 736 256 736 256 783 256 c 0,49,50
 826 256 826 256 867.5 263.5 c 128,-1,51
 909 271 909 271 940.5 290.5 c 128,-1,52
 972 310 972 310 991.5 342.5 c 128,-1,53
 1011 375 1011 375 1011 425 c 0,54,55
 1011 450 1011 450 989.5 466.5 c 128,-1,56
 968 483 968 483 930 497 c 128,-1,57
 892 511 892 511 841 525 c 128,-1,58
 790 539 790 539 730 559 c 0,38,39
788 1176 m 0,59,60
 713 1176 713 1176 670 1147.5 c 128,-1,61
 627 1119 627 1119 627 1077 c 0,62,63
 627 1037 627 1037 643 1005 c 128,-1,64
 659 973 659 973 691 947 c 128,-1,65
 723 921 723 921 771 898.5 c 128,-1,66
 819 876 819 876 883 854 c 1,67,68
 909 886 909 886 928 934.5 c 128,-1,69
 947 983 947 983 947 1037 c 0,70,71
 947 1063 947 1063 935 1088 c 128,-1,72
 923 1113 923 1113 902 1132.5 c 128,-1,73
 881 1152 881 1152 851.5 1164 c 128,-1,74
 822 1176 822 1176 788 1176 c 0,59,60
EndSplineSet
EndChar

StartChar: nine
Encoding: 57 57 28
Width: 1399
Flags: W
LayerCount: 2
Fore
SplineSet
243 321 m 1,0,1
 270 311 270 311 305.5 299.5 c 128,-1,2
 341 288 341 288 382.5 278.5 c 128,-1,3
 424 269 424 269 469 262.5 c 128,-1,4
 514 256 514 256 559 256 c 0,5,6
 621 256 621 256 676.5 269 c 128,-1,7
 732 282 732 282 775.5 320 c 128,-1,8
 819 358 819 358 847.5 428 c 128,-1,9
 876 498 876 498 883 612 c 1,10,11
 846 595 846 595 805.5 583 c 128,-1,12
 765 571 765 571 723 563 c 128,-1,13
 681 555 681 555 640.5 551.5 c 128,-1,14
 600 548 600 548 563 548 c 0,15,16
 473 548 473 548 392 575 c 128,-1,17
 311 602 311 602 249.5 654.5 c 128,-1,18
 188 707 188 707 151.5 785 c 128,-1,19
 115 863 115 863 115 964 c 0,20,21
 115 1023 115 1023 124.5 1081 c 128,-1,22
 134 1139 134 1139 158 1192 c 128,-1,23
 182 1245 182 1245 221.5 1290.5 c 128,-1,24
 261 1336 261 1336 320.5 1369.5 c 128,-1,25
 380 1403 380 1403 462 1422 c 128,-1,26
 544 1441 544 1441 652 1441 c 0,27,28
 788 1441 788 1441 888.5 1414 c 128,-1,29
 989 1387 989 1387 1061 1338.5 c 128,-1,30
 1133 1290 1133 1290 1179 1222.5 c 128,-1,31
 1225 1155 1225 1155 1252 1074 c 128,-1,32
 1279 993 1279 993 1289 900.5 c 128,-1,33
 1299 808 1299 808 1299 710 c 0,34,35
 1299 552 1299 552 1255.5 416.5 c 128,-1,36
 1212 281 1212 281 1125.5 182 c 128,-1,37
 1039 83 1039 83 909 27 c 128,-1,38
 779 -29 779 -29 606 -29 c 0,39,40
 518 -29 518 -29 420 -14 c 128,-1,41
 322 1 322 1 211 36 c 1,42,-1
 243 321 l 1,0,1
883 834 m 1,43,44
 883 944 883 944 863 1008 c 128,-1,45
 843 1072 843 1072 810.5 1105 c 128,-1,46
 778 1138 778 1138 736 1147 c 128,-1,47
 694 1156 694 1156 650 1156 c 256,48,49
 606 1156 606 1156 572 1141 c 128,-1,50
 538 1126 538 1126 514.5 1101.5 c 128,-1,51
 491 1077 491 1077 479 1045.5 c 128,-1,52
 467 1014 467 1014 467 981 c 0,53,54
 467 956 467 956 472.5 924.5 c 128,-1,55
 478 893 478 893 498.5 865 c 128,-1,56
 519 837 519 837 559.5 818.5 c 128,-1,57
 600 800 600 800 669 800 c 0,58,59
 711 800 711 800 763.5 808 c 128,-1,60
 816 816 816 816 883 834 c 1,43,44
EndSplineSet
EndChar

StartChar: colon
Encoding: 58 58 29
Width: 929
Flags: W
LayerCount: 2
Fore
SplineSet
465 0 m 0,0,1
 400 0 400 0 351.5 21 c 128,-1,2
 303 42 303 42 271.5 76 c 128,-1,3
 240 110 240 110 224.5 152.5 c 128,-1,4
 209 195 209 195 209 239 c 0,5,6
 209 284 209 284 225.5 327 c 128,-1,7
 242 370 242 370 274 404 c 256,8,9
 306 438 306 438 354 451 c 128,-1,10
 402 464 402 464 465 464 c 256,11,12
 528 464 528 464 576 451 c 128,-1,13
 624 438 624 438 656 404 c 0,14,15
 688 371 688 371 704.5 327.5 c 128,-1,16
 721 284 721 284 721 239 c 0,17,18
 721 195 721 195 705 152.5 c 128,-1,19
 689 110 689 110 657.5 76 c 128,-1,20
 626 42 626 42 577.5 21 c 128,-1,21
 529 0 529 0 465 0 c 0,0,1
465 690 m 0,22,23
 399 690 399 690 351 703.5 c 128,-1,24
 303 717 303 717 271 752 c 0,25,26
 240 785 240 785 224.5 827.5 c 128,-1,27
 209 870 209 870 209 915 c 256,28,29
 209 960 209 960 225.5 1003.5 c 128,-1,30
 242 1047 242 1047 274 1080.5 c 128,-1,31
 306 1114 306 1114 354 1135 c 128,-1,32
 402 1156 402 1156 465 1156 c 256,33,34
 528 1156 528 1156 576 1135 c 128,-1,35
 624 1114 624 1114 656 1080.5 c 128,-1,36
 688 1047 688 1047 704.5 1003.5 c 128,-1,37
 721 960 721 960 721 915 c 256,38,39
 721 870 721 870 705 828.5 c 128,-1,40
 689 787 689 787 657 752 c 0,41,42
 625 718 625 718 577 704 c 128,-1,43
 529 690 529 690 465 690 c 0,22,23
EndSplineSet
EndChar

StartChar: semicolon
Encoding: 59 59 30
Width: 869
Flags: W
LayerCount: 2
Fore
SplineSet
373 683 m 1,0,1
 308 684 308 684 259.5 704 c 128,-1,2
 211 724 211 724 179.5 755.5 c 128,-1,3
 148 787 148 787 132.5 828.5 c 128,-1,4
 117 870 117 870 117 915 c 256,5,6
 117 960 117 960 133.5 1003.5 c 128,-1,7
 150 1047 150 1047 182 1080.5 c 128,-1,8
 214 1114 214 1114 262 1135 c 128,-1,9
 310 1156 310 1156 373 1156 c 256,10,11
 436 1156 436 1156 484 1135 c 128,-1,12
 532 1114 532 1114 564 1080.5 c 128,-1,13
 596 1047 596 1047 612.5 1003.5 c 128,-1,14
 629 960 629 960 629 915 c 256,15,16
 629 870 629 870 613 828.5 c 128,-1,17
 597 787 597 787 565.5 755.5 c 128,-1,18
 534 724 534 724 485.5 704 c 128,-1,19
 437 684 437 684 373 683 c 1,0,1
405 0 m 1,20,21
 352 -32 352 -32 301 -29 c 1,22,23
 262 -32 262 -32 228.5 -15 c 128,-1,24
 195 2 195 2 170 30.5 c 128,-1,25
 145 59 145 59 131 97 c 128,-1,26
 117 135 117 135 117 176 c 0,27,28
 117 219 117 219 133.5 260.5 c 128,-1,29
 150 302 150 302 183.5 334.5 c 128,-1,30
 217 367 217 367 267.5 387.5 c 128,-1,31
 318 408 318 408 386 409 c 1,32,33
 523 409 523 409 592 331 c 128,-1,34
 661 253 661 253 661 98 c 0,35,36
 661 -28 661 -28 624 -109.5 c 128,-1,37
 587 -191 587 -191 527.5 -237.5 c 128,-1,38
 468 -284 468 -284 394 -302 c 128,-1,39
 320 -320 320 -320 245 -320 c 2,40,-1
 149 -320 l 1,41,-1
 149 -128 l 1,42,43
 221 -128 221 -128 270 -120.5 c 128,-1,44
 319 -113 319 -113 349 -97.5 c 128,-1,45
 379 -82 379 -82 392 -58 c 128,-1,46
 405 -34 405 -34 405 0 c 1,20,21
EndSplineSet
EndChar

StartChar: less
Encoding: 60 60 31
Width: 1098
Flags: W
LayerCount: 2
Fore
SplineSet
197 1024 m 1,0,-1
 901 1280 l 1,1,-1
 901 960 l 1,2,-1
 389 832 l 1,3,-1
 901 704 l 1,4,-1
 901 384 l 1,5,-1
 197 640 l 1,6,-1
 197 1024 l 1,0,-1
EndSplineSet
EndChar

StartChar: equal
Encoding: 61 61 32
Width: 1098
Flags: W
LayerCount: 2
Fore
SplineSet
901 519 m 1,0,-1
 901 263 l 1,1,-1
 197 263 l 1,2,-1
 197 519 l 1,3,-1
 901 519 l 1,0,-1
901 928 m 1,4,-1
 901 672 l 1,5,-1
 197 672 l 1,6,-1
 197 928 l 1,7,-1
 901 928 l 1,4,-1
EndSplineSet
EndChar

StartChar: greater
Encoding: 62 62 33
Width: 1088
Flags: W
LayerCount: 2
Fore
SplineSet
891 640 m 1,0,-1
 197 384 l 1,1,-1
 197 704 l 1,2,-1
 709 832 l 1,3,-1
 197 960 l 1,4,-1
 197 1280 l 1,5,-1
 891 1024 l 1,6,-1
 891 640 l 1,0,-1
EndSplineSet
EndChar

StartChar: question
Encoding: 63 63 34
Width: 1336
Flags: W
LayerCount: 2
Fore
SplineSet
327 770 m 1,0,1
 436 779 436 779 513.5 793 c 128,-1,2
 591 807 591 807 643 825 c 128,-1,3
 695 843 695 843 726 864 c 128,-1,4
 757 885 757 885 773 908.5 c 128,-1,5
 789 932 789 932 793.5 957.5 c 128,-1,6
 798 983 798 983 798 1010 c 0,7,8
 798 1046 798 1046 784.5 1075.5 c 128,-1,9
 771 1105 771 1105 747.5 1126 c 128,-1,10
 724 1147 724 1147 693 1158.5 c 128,-1,11
 662 1170 662 1170 628 1170 c 0,12,13
 600 1170 600 1170 573.5 1161 c 128,-1,14
 547 1152 547 1152 526 1133 c 128,-1,15
 505 1114 505 1114 492 1086 c 128,-1,16
 479 1058 479 1058 478 1020 c 1,17,-1
 147 1020 l 1,18,19
 147 1110 147 1110 180 1187.5 c 128,-1,20
 213 1265 213 1265 277.5 1321 c 128,-1,21
 342 1377 342 1377 437.5 1409 c 128,-1,22
 533 1441 533 1441 658 1441 c 0,23,24
 793 1441 793 1441 890 1406 c 128,-1,25
 987 1371 987 1371 1049 1312.5 c 128,-1,26
 1111 1254 1111 1254 1140 1178 c 128,-1,27
 1169 1102 1169 1102 1169 1020 c 0,28,29
 1169 947 1169 947 1139 876.5 c 128,-1,30
 1109 806 1109 806 1049 748 c 128,-1,31
 989 690 989 690 899 650 c 128,-1,32
 809 610 809 610 688 599 c 1,33,-1
 688 449 l 1,34,-1
 357 449 l 1,35,-1
 327 770 l 1,0,1
543 -29 m 0,36,37
 486 -29 486 -29 443.5 -13.5 c 128,-1,38
 401 2 401 2 373 27.5 c 128,-1,39
 345 53 345 53 331 86 c 128,-1,40
 317 119 317 119 317 153 c 256,41,42
 317 187 317 187 331.5 220 c 128,-1,43
 346 253 346 253 374.5 278.5 c 128,-1,44
 403 304 403 304 445.5 319.5 c 128,-1,45
 488 335 488 335 543 335 c 256,46,47
 598 335 598 335 640.5 319.5 c 128,-1,48
 683 304 683 304 711.5 278.5 c 128,-1,49
 740 253 740 253 754.5 220.5 c 128,-1,50
 769 188 769 188 769 154 c 0,51,52
 769 119 769 119 755.5 86 c 128,-1,53
 742 53 742 53 714 27.5 c 128,-1,54
 686 2 686 2 643.5 -13.5 c 128,-1,55
 601 -29 601 -29 543 -29 c 0,36,37
EndSplineSet
EndChar

StartChar: at
Encoding: 64 64 35
Width: 2463
Flags: W
LayerCount: 2
Fore
SplineSet
1780 273 m 0,0,1
 1835 273 1835 273 1858 355 c 128,-1,2
 1881 437 1881 437 1881 603 c 0,3,4
 1881 729 1881 729 1841.5 831.5 c 128,-1,5
 1802 934 1802 934 1722.5 1006 c 128,-1,6
 1643 1078 1643 1078 1524.5 1117 c 128,-1,7
 1406 1156 1406 1156 1248 1156 c 0,8,9
 1097 1156 1097 1156 963.5 1123.5 c 128,-1,10
 830 1091 830 1091 730 1020.5 c 128,-1,11
 630 950 630 950 572 838.5 c 128,-1,12
 514 727 514 727 514 569 c 0,13,14
 514 402 514 402 571 289.5 c 128,-1,15
 628 177 628 177 738.5 108 c 128,-1,16
 849 39 849 39 1012 7 c 128,-1,17
 1175 -25 1175 -25 1387 -29 c 1,18,-1
 1418 -189 l 1,19,20
 1375 -204 1375 -204 1305.5 -212 c 128,-1,21
 1236 -220 1236 -220 1137 -220 c 0,22,23
 939 -220 939 -220 797 -189 c 0,24,25
 628 -153 628 -153 501.5 -78 c 128,-1,26
 375 -3 375 -3 291 98 c 128,-1,27
 207 199 207 199 165 319.5 c 128,-1,28
 123 440 123 440 123 566 c 0,29,30
 123 725 123 725 166 851.5 c 128,-1,31
 209 978 209 978 284.5 1075 c 128,-1,32
 360 1172 360 1172 464.5 1241.5 c 128,-1,33
 569 1311 569 1311 692.5 1355 c 128,-1,34
 816 1399 816 1399 953 1419.5 c 128,-1,35
 1090 1440 1090 1440 1232 1440 c 0,36,37
 1362 1440 1362 1440 1488 1422 c 128,-1,38
 1614 1404 1614 1404 1727 1365 c 128,-1,39
 1840 1326 1840 1326 1936 1264.5 c 128,-1,40
 2032 1203 2032 1203 2102 1116 c 128,-1,41
 2172 1029 2172 1029 2211.5 914.5 c 128,-1,42
 2251 800 2251 800 2251 656 c 0,43,44
 2251 579 2251 579 2238 505 c 128,-1,45
 2225 431 2225 431 2198 364.5 c 128,-1,46
 2171 298 2171 298 2130.5 242 c 128,-1,47
 2090 186 2090 186 2035 145 c 128,-1,48
 1980 104 1980 104 1910.5 81 c 128,-1,49
 1841 58 1841 58 1757 58 c 0,50,51
 1692 58 1692 58 1639 72.5 c 128,-1,52
 1586 87 1586 87 1543 115.5 c 128,-1,53
 1500 144 1500 144 1466 186.5 c 128,-1,54
 1432 229 1432 229 1404 286 c 1,55,56
 1389 257 1389 257 1363.5 232.5 c 128,-1,57
 1338 208 1338 208 1304 189.5 c 128,-1,58
 1270 171 1270 171 1228.5 160.5 c 128,-1,59
 1187 150 1187 150 1141 150 c 0,60,61
 1030 150 1030 150 943.5 185 c 128,-1,62
 857 220 857 220 798 279 c 128,-1,63
 739 338 739 338 708.5 416.5 c 128,-1,64
 678 495 678 495 678 582 c 0,65,66
 678 659 678 659 706.5 730.5 c 128,-1,67
 735 802 735 802 787.5 856.5 c 128,-1,68
 840 911 840 911 915 944 c 128,-1,69
 990 977 990 977 1083 977 c 0,70,71
 1269 977 1269 977 1356 823 c 1,72,-1
 1387 929 l 1,73,-1
 1592 929 l 1,74,-1
 1674 809 l 1,75,-1
 1674 397 l 2,76,77
 1674 353 1674 353 1685.5 328.5 c 128,-1,78
 1697 304 1697 304 1713.5 291.5 c 128,-1,79
 1730 279 1730 279 1748.5 276 c 128,-1,80
 1767 273 1767 273 1780 273 c 0,0,1
1356 700 m 1,81,82
 1278 760 1278 760 1218 760 c 0,83,84
 1161 760 1161 760 1122.5 744.5 c 128,-1,85
 1084 729 1084 729 1060.5 704 c 128,-1,86
 1037 679 1037 679 1027 647 c 128,-1,87
 1017 615 1017 615 1017 582 c 0,88,89
 1017 543 1017 543 1032 509 c 128,-1,90
 1047 475 1047 475 1073 450.5 c 128,-1,91
 1099 426 1099 426 1134 411.5 c 128,-1,92
 1169 397 1169 397 1208 397 c 0,93,94
 1287 397 1287 397 1356 428 c 1,95,-1
 1356 700 l 1,81,82
EndSplineSet
EndChar

StartChar: A
Encoding: 65 65 36
Width: 1395
Flags: W
LayerCount: 2
Fore
SplineSet
1385 0 m 1,0,-1
 851 0 l 1,1,-1
 785 301 l 1,2,-1
 434 301 l 1,3,-1
 371 0 l 1,4,-1
 10 0 l 1,5,-1
 370 1414 l 1,6,-1
 996 1414 l 1,7,-1
 1385 0 l 1,0,-1
614 1194 m 1,8,-1
 477 535 l 1,9,-1
 763 535 l 1,10,-1
 645 1194 l 1,11,-1
 614 1194 l 1,8,-1
EndSplineSet
EndChar

StartChar: B
Encoding: 66 66 37
Width: 1549
Flags: W
LayerCount: 2
Fore
SplineSet
170 1414 m 1,0,-1
 646 1414 l 2,1,2
 708 1414 708 1414 782.5 1409.5 c 128,-1,3
 857 1405 857 1405 932 1391.5 c 128,-1,4
 1007 1378 1007 1378 1077 1353.5 c 128,-1,5
 1147 1329 1147 1329 1201.5 1289.5 c 128,-1,6
 1256 1250 1256 1250 1288.5 1192.5 c 128,-1,7
 1321 1135 1321 1135 1321 1056 c 0,8,9
 1321 1009 1321 1009 1310 962.5 c 128,-1,10
 1299 916 1299 916 1270.5 877 c 128,-1,11
 1242 838 1242 838 1192.5 809 c 128,-1,12
 1143 780 1143 780 1066 768 c 1,13,14
 1150 763 1150 763 1215.5 729.5 c 128,-1,15
 1281 696 1281 696 1326 646 c 128,-1,16
 1371 596 1371 596 1394.5 535.5 c 128,-1,17
 1418 475 1418 475 1418 416 c 0,18,19
 1418 337 1418 337 1386 262.5 c 128,-1,20
 1354 188 1354 188 1278.5 129.5 c 128,-1,21
 1203 71 1203 71 1079 35.5 c 128,-1,22
 955 0 955 0 771 0 c 2,23,-1
 170 0 l 1,24,-1
 170 1414 l 1,0,-1
618 256 m 1,25,-1
 799 256 l 2,26,27
 885 256 885 256 927.5 300.5 c 128,-1,28
 970 345 970 345 970 416 c 0,29,30
 970 458 970 458 955.5 488 c 128,-1,31
 941 518 941 518 902 537.5 c 128,-1,32
 863 557 863 557 794.5 566.5 c 128,-1,33
 726 576 726 576 618 576 c 1,34,-1
 618 256 l 1,25,-1
758 832 m 2,35,36
 805 832 805 832 844 845.5 c 128,-1,37
 883 859 883 859 911 881 c 128,-1,38
 939 903 939 903 954.5 932 c 128,-1,39
 970 961 970 961 970 992 c 0,40,41
 970 1040 970 1040 951 1071 c 128,-1,42
 932 1102 932 1102 890 1120 c 128,-1,43
 848 1138 848 1138 781 1145 c 128,-1,44
 714 1152 714 1152 618 1152 c 1,45,-1
 618 832 l 1,46,-1
 758 832 l 2,35,36
EndSplineSet
EndChar

StartChar: C
Encoding: 67 67 38
Width: 1427
Flags: W
LayerCount: 2
Fore
SplineSet
92 704 m 256,0,1
 92 875 92 875 153.5 1011.5 c 128,-1,2
 215 1148 215 1148 320 1243.5 c 128,-1,3
 425 1339 425 1339 564 1390 c 128,-1,4
 703 1441 703 1441 859 1441 c 0,5,6
 968 1441 968 1441 1081 1420 c 128,-1,7
 1194 1399 1194 1399 1306 1344 c 1,8,-1
 1244 1024 l 1,9,10
 1156 1072 1156 1072 1070 1096 c 128,-1,11
 984 1120 984 1120 912 1120 c 0,12,13
 825 1120 825 1120 756 1091.5 c 128,-1,14
 687 1063 687 1063 639 1009 c 128,-1,15
 591 955 591 955 565.5 878 c 128,-1,16
 540 801 540 801 540 704 c 256,17,18
 540 607 540 607 565.5 530 c 128,-1,19
 591 453 591 453 639 399 c 128,-1,20
 687 345 687 345 756 316.5 c 128,-1,21
 825 288 825 288 912 288 c 0,22,23
 984 288 984 288 1070 312 c 128,-1,24
 1156 336 1156 336 1244 384 c 1,25,-1
 1306 64 l 1,26,27
 1194 10 1194 10 1081 -9.5 c 128,-1,28
 968 -29 968 -29 859 -29 c 0,29,30
 703 -29 703 -29 564 21.5 c 128,-1,31
 425 72 425 72 320 166.5 c 128,-1,32
 215 261 215 261 153.5 397 c 128,-1,33
 92 533 92 533 92 704 c 256,0,1
EndSplineSet
EndChar

StartChar: D
Encoding: 68 68 39
Width: 1539
Flags: W
LayerCount: 2
Fore
SplineSet
170 0 m 1,0,-1
 170 1414 l 1,1,-1
 662 1414 l 2,2,3
 844 1414 844 1414 989 1371.5 c 128,-1,4
 1134 1329 1134 1329 1234.5 1242.5 c 128,-1,5
 1335 1156 1335 1156 1388.5 1025.5 c 128,-1,6
 1442 895 1442 895 1442 719 c 0,7,8
 1442 585 1442 585 1414.5 479.5 c 128,-1,9
 1387 374 1387 374 1336.5 294 c 128,-1,10
 1286 214 1286 214 1214.5 158.5 c 128,-1,11
 1143 103 1143 103 1056 67.5 c 128,-1,12
 969 32 969 32 868.5 16 c 128,-1,13
 768 0 768 0 658 0 c 2,14,-1
 170 0 l 1,0,-1
618 320 m 1,15,-1
 648 320 l 2,16,17
 726 320 726 320 790 334.5 c 128,-1,18
 854 349 854 349 899.5 392 c 128,-1,19
 945 435 945 435 969.5 513 c 128,-1,20
 994 591 994 591 994 719 c 0,21,22
 994 835 994 835 972 912.5 c 128,-1,23
 950 990 950 990 907 1036.5 c 128,-1,24
 864 1083 864 1083 801 1102.5 c 128,-1,25
 738 1122 738 1122 657 1122 c 2,26,-1
 618 1122 l 1,27,-1
 618 320 l 1,15,-1
EndSplineSet
EndChar

StartChar: E
Encoding: 69 69 40
Width: 1319
Flags: W
LayerCount: 2
Fore
SplineSet
171 1414 m 1,0,-1
 1163 1414 l 1,1,-1
 1163 1152 l 1,2,-1
 619 1152 l 1,3,-1
 619 853 l 1,4,-1
 1099 853 l 1,5,-1
 1099 597 l 1,6,-1
 619 597 l 1,7,-1
 619 288 l 1,8,-1
 1163 288 l 1,9,-1
 1163 0 l 1,10,-1
 171 0 l 1,11,-1
 171 1414 l 1,0,-1
EndSplineSet
EndChar

StartChar: F
Encoding: 70 70 41
Width: 1200
Flags: W
LayerCount: 2
Fore
SplineSet
171 1414 m 1,0,-1
 1139 1414 l 1,1,-1
 1139 1152 l 1,2,-1
 619 1152 l 1,3,-1
 619 850 l 1,4,-1
 1075 850 l 1,5,-1
 1075 562 l 1,6,-1
 619 562 l 1,7,-1
 619 0 l 1,8,-1
 171 0 l 1,9,-1
 171 1414 l 1,0,-1
EndSplineSet
EndChar

StartChar: G
Encoding: 71 71 42
Width: 1548
Flags: W
LayerCount: 2
Fore
SplineSet
867 -29 m 0,0,1
 757 -29 757 -29 657 -4.5 c 128,-1,2
 557 20 557 20 471 66 c 128,-1,3
 385 112 385 112 315.5 178 c 128,-1,4
 246 244 246 244 196.5 327 c 128,-1,5
 147 410 147 410 120 508 c 128,-1,6
 93 606 93 606 93 717 c 0,7,8
 93 879 93 879 157.5 1012.5 c 128,-1,9
 222 1146 222 1146 337.5 1241.5 c 128,-1,10
 453 1337 453 1337 612.5 1389 c 128,-1,11
 772 1441 772 1441 963 1441 c 0,12,13
 1066 1441 1066 1441 1181 1425.5 c 128,-1,14
 1296 1410 1296 1410 1411 1376 c 1,15,-1
 1347 1056 l 1,16,17
 1244 1093 1244 1093 1159 1107.5 c 128,-1,18
 1074 1122 1074 1122 995 1122 c 0,19,20
 890 1122 890 1122 806 1092.5 c 128,-1,21
 722 1063 722 1063 663 1010 c 128,-1,22
 604 957 604 957 572.5 881.5 c 128,-1,23
 541 806 541 806 541 715 c 0,24,25
 541 614 541 614 562 535 c 128,-1,26
 583 456 583 456 627 401 c 128,-1,27
 671 346 671 346 738.5 317 c 128,-1,28
 806 288 806 288 899 288 c 2,29,-1
 1027 288 l 1,30,-1
 1027 581 l 1,31,-1
 803 551 l 1,32,-1
 803 800 l 1,33,-1
 1411 800 l 1,34,-1
 1411 124 l 1,35,36
 1337 80 1337 80 1268 50.5 c 128,-1,37
 1199 21 1199 21 1132 3.5 c 128,-1,38
 1065 -14 1065 -14 999.5 -21.5 c 128,-1,39
 934 -29 934 -29 867 -29 c 0,0,1
EndSplineSet
EndChar

StartChar: H
Encoding: 72 72 43
Width: 1654
Flags: W
LayerCount: 2
Fore
SplineSet
171 1414 m 1,0,-1
 619 1414 l 1,1,-1
 619 864 l 1,2,-1
 1035 864 l 1,3,-1
 1035 1414 l 1,4,-1
 1483 1414 l 1,5,-1
 1483 0 l 1,6,-1
 1035 0 l 1,7,-1
 1035 576 l 1,8,-1
 619 576 l 1,9,-1
 619 0 l 1,10,-1
 171 0 l 1,11,-1
 171 1414 l 1,0,-1
EndSplineSet
EndChar

StartChar: I
Encoding: 73 73 44
Width: 790
Flags: W
LayerCount: 2
Fore
SplineSet
171 1414 m 1,0,-1
 619 1414 l 1,1,-1
 619 0 l 1,2,-1
 171 0 l 1,3,-1
 171 1414 l 1,0,-1
EndSplineSet
EndChar

StartChar: J
Encoding: 74 74 45
Width: 994
Flags: W
LayerCount: 2
Fore
SplineSet
343 -29 m 0,0,1
 252 -29 252 -29 167.5 -16 c 128,-1,2
 83 -3 83 -3 23 35 c 1,3,-1
 23 320 l 1,4,5
 90 299 90 299 147.5 293.5 c 128,-1,6
 205 288 205 288 247 288 c 0,7,8
 292 288 292 288 317.5 306.5 c 128,-1,9
 343 325 343 325 356 354 c 128,-1,10
 369 383 369 383 372 419.5 c 128,-1,11
 375 456 375 456 375 492 c 2,12,-1
 375 1414 l 1,13,-1
 823 1414 l 1,14,-1
 823 429 l 2,15,16
 823 309 823 309 781 222.5 c 128,-1,17
 739 136 739 136 671.5 80 c 128,-1,18
 604 24 604 24 517.5 -2.5 c 128,-1,19
 431 -29 431 -29 343 -29 c 0,0,1
EndSplineSet
EndChar

StartChar: K
Encoding: 75 75 46
Width: 1416
Flags: W
LayerCount: 2
Fore
SplineSet
618 598 m 1,0,-1
 618 0 l 1,1,-1
 170 0 l 1,2,-1
 170 1414 l 1,3,-1
 618 1414 l 1,4,-1
 618 791 l 1,5,-1
 938 1414 l 1,6,-1
 1461 1414 l 1,7,-1
 1056 736 l 1,8,-1
 1461 0 l 1,9,-1
 938 0 l 1,10,-1
 650 666 l 1,11,-1
 618 598 l 1,0,-1
EndSplineSet
EndChar

StartChar: L
Encoding: 76 76 47
Width: 1150
Flags: W
LayerCount: 2
Fore
SplineSet
170 1414 m 1,0,-1
 618 1414 l 1,1,-1
 618 288 l 1,2,-1
 1098 288 l 1,3,-1
 1098 0 l 1,4,-1
 170 0 l 1,5,-1
 170 1414 l 1,0,-1
EndSplineSet
EndChar

StartChar: M
Encoding: 77 77 48
Width: 1887
Flags: W
LayerCount: 2
Fore
SplineSet
170 1414 m 1,0,-1
 586 1414 l 1,1,-1
 938 864 l 1,2,-1
 1290 1414 l 1,3,-1
 1716 1414 l 1,4,-1
 1716 0 l 1,5,-1
 1258 0 l 1,6,-1
 1258 768 l 1,7,-1
 928 209 l 1,8,-1
 831 209 l 1,9,-1
 490 768 l 1,10,-1
 490 0 l 1,11,-1
 170 0 l 1,12,-1
 170 1414 l 1,0,-1
EndSplineSet
EndChar

StartChar: N
Encoding: 78 78 49
Width: 1654
Flags: W
LayerCount: 2
Fore
SplineSet
170 1414 m 1,0,-1
 603 1414 l 1,1,-1
 1141 704 l 1,2,-1
 1141 1414 l 1,3,-1
 1483 1414 l 1,4,-1
 1483 0 l 1,5,-1
 1039 0 l 1,6,-1
 509 752 l 1,7,-1
 509 0 l 1,8,-1
 170 0 l 1,9,-1
 170 1414 l 1,0,-1
EndSplineSet
EndChar

StartChar: O
Encoding: 79 79 50
Width: 1593
Flags: W
LayerCount: 2
Fore
SplineSet
795 -29 m 256,0,1
 664 -29 664 -29 561 -0.5 c 128,-1,2
 458 28 458 28 379.5 78.5 c 128,-1,3
 301 129 301 129 246.5 198.5 c 128,-1,4
 192 268 192 268 157.5 349.5 c 128,-1,5
 123 431 123 431 107.5 521 c 128,-1,6
 92 611 92 611 92 704 c 0,7,8
 92 796 92 796 111 886.5 c 128,-1,9
 130 977 130 977 168 1059 c 128,-1,10
 206 1141 206 1141 264 1211 c 128,-1,11
 322 1281 322 1281 400 1332 c 128,-1,12
 478 1383 478 1383 576.5 1412 c 128,-1,13
 675 1441 675 1441 795 1441 c 256,14,15
 915 1441 915 1441 1013.5 1412 c 128,-1,16
 1112 1383 1112 1383 1190.5 1332 c 128,-1,17
 1269 1281 1269 1281 1327 1211 c 128,-1,18
 1385 1141 1385 1141 1423.5 1059 c 128,-1,19
 1462 977 1462 977 1481 886.5 c 128,-1,20
 1500 796 1500 796 1500 704 c 0,21,22
 1500 611 1500 611 1484 521 c 128,-1,23
 1468 431 1468 431 1433.5 349.5 c 128,-1,24
 1399 268 1399 268 1344 198.5 c 128,-1,25
 1289 129 1289 129 1211 78.5 c 128,-1,26
 1133 28 1133 28 1029.5 -0.5 c 128,-1,27
 926 -29 926 -29 795 -29 c 256,0,1
540 704 m 256,28,29
 540 584 540 584 557.5 499 c 128,-1,30
 575 414 575 414 607.5 360 c 128,-1,31
 640 306 640 306 687.5 281 c 128,-1,32
 735 256 735 256 795 256 c 256,33,34
 855 256 855 256 902.5 281 c 128,-1,35
 950 306 950 306 983.5 360 c 128,-1,36
 1017 414 1017 414 1034.5 499 c 128,-1,37
 1052 584 1052 584 1052 704 c 256,38,39
 1052 824 1052 824 1034.5 909.5 c 128,-1,40
 1017 995 1017 995 983.5 1049.5 c 128,-1,41
 950 1104 950 1104 902.5 1130 c 128,-1,42
 855 1156 855 1156 795 1156 c 256,43,44
 735 1156 735 1156 687.5 1130 c 128,-1,45
 640 1104 640 1104 607.5 1049.5 c 128,-1,46
 575 995 575 995 557.5 909.5 c 128,-1,47
 540 824 540 824 540 704 c 256,28,29
EndSplineSet
EndChar

StartChar: P
Encoding: 80 80 51
Width: 1501
Flags: W
LayerCount: 2
Fore
SplineSet
170 1414 m 1,0,-1
 716 1414 l 2,1,2
 858 1414 858 1414 965.5 1396.5 c 128,-1,3
 1073 1379 1073 1379 1152 1347 c 128,-1,4
 1231 1315 1231 1315 1283.5 1270 c 128,-1,5
 1336 1225 1336 1225 1367.5 1171.5 c 128,-1,6
 1399 1118 1399 1118 1412 1057 c 128,-1,7
 1425 996 1425 996 1425 931 c 0,8,9
 1425 876 1425 876 1412.5 821 c 128,-1,10
 1400 766 1400 766 1370.5 716 c 128,-1,11
 1341 666 1341 666 1292 623 c 128,-1,12
 1243 580 1243 580 1171.5 548 c 128,-1,13
 1100 516 1100 516 1002.5 498 c 128,-1,14
 905 480 905 480 778 480 c 0,15,16
 760 480 760 480 733 480.5 c 128,-1,17
 706 481 706 481 680 483 c 2,18,-1
 618 487 l 1,19,-1
 618 0 l 1,20,-1
 170 0 l 1,21,-1
 170 1414 l 1,0,-1
618 704 m 1,22,-1
 721 704 l 2,23,24
 793 704 793 704 842 721.5 c 128,-1,25
 891 739 891 739 921 769 c 128,-1,26
 951 799 951 799 964 840 c 128,-1,27
 977 881 977 881 977 928 c 0,28,29
 977 1003 977 1003 958 1052 c 128,-1,30
 939 1101 939 1101 904.5 1130.5 c 128,-1,31
 870 1160 870 1160 823 1172 c 128,-1,32
 776 1184 776 1184 721 1184 c 2,33,-1
 618 1184 l 1,34,-1
 618 704 l 1,22,-1
EndSplineSet
EndChar

StartChar: Q
Encoding: 81 81 52
Width: 1594
Flags: W
LayerCount: 2
Fore
SplineSet
1203 -484 m 1,0,1
 1115 -450 1115 -450 1038 -411.5 c 128,-1,2
 961 -373 961 -373 895 -320.5 c 128,-1,3
 829 -268 829 -268 775 -196 c 128,-1,4
 721 -124 721 -124 679 -22 c 1,5,6
 570 -10 570 -10 484 25 c 128,-1,7
 398 60 398 60 333 112 c 128,-1,8
 268 164 268 164 222 231 c 128,-1,9
 176 298 176 298 147 374.5 c 128,-1,10
 118 451 118 451 105 534.5 c 128,-1,11
 92 618 92 618 92 704 c 0,12,13
 92 796 92 796 111 886.5 c 128,-1,14
 130 977 130 977 168 1059 c 128,-1,15
 206 1141 206 1141 264 1211 c 128,-1,16
 322 1281 322 1281 400 1332 c 128,-1,17
 478 1383 478 1383 576.5 1412 c 128,-1,18
 675 1441 675 1441 795 1441 c 256,19,20
 915 1441 915 1441 1013.5 1412 c 128,-1,21
 1112 1383 1112 1383 1190.5 1332 c 128,-1,22
 1269 1281 1269 1281 1327 1211 c 128,-1,23
 1385 1141 1385 1141 1423.5 1059 c 128,-1,24
 1462 977 1462 977 1481 886.5 c 128,-1,25
 1500 796 1500 796 1500 704 c 0,26,27
 1500 587 1500 587 1474.5 474.5 c 128,-1,28
 1449 362 1449 362 1392.5 267.5 c 128,-1,29
 1336 173 1336 173 1244.5 102 c 128,-1,30
 1153 31 1153 31 1021 -2 c 1,31,32
 1036 -36 1036 -36 1071 -68.5 c 128,-1,33
 1106 -101 1106 -101 1153.5 -128.5 c 128,-1,34
 1201 -156 1201 -156 1256.5 -177 c 128,-1,35
 1312 -198 1312 -198 1369 -208 c 1,36,-1
 1203 -484 l 1,0,1
540 704 m 256,37,38
 540 584 540 584 557.5 499 c 128,-1,39
 575 414 575 414 607.5 360 c 128,-1,40
 640 306 640 306 687.5 281 c 128,-1,41
 735 256 735 256 795 256 c 256,42,43
 855 256 855 256 902.5 281 c 128,-1,44
 950 306 950 306 983.5 360 c 128,-1,45
 1017 414 1017 414 1034.5 499 c 128,-1,46
 1052 584 1052 584 1052 704 c 256,47,48
 1052 824 1052 824 1034.5 909.5 c 128,-1,49
 1017 995 1017 995 983.5 1049.5 c 128,-1,50
 950 1104 950 1104 902.5 1130 c 128,-1,51
 855 1156 855 1156 795 1156 c 256,52,53
 735 1156 735 1156 687.5 1130 c 128,-1,54
 640 1104 640 1104 607.5 1049.5 c 128,-1,55
 575 995 575 995 557.5 909.5 c 128,-1,56
 540 824 540 824 540 704 c 256,37,38
EndSplineSet
EndChar

StartChar: R
Encoding: 82 82 53
Width: 1456
Flags: W
LayerCount: 2
Fore
SplineSet
170 1414 m 1,0,-1
 806 1414 l 2,1,2
 957 1414 957 1414 1072 1374.5 c 128,-1,3
 1187 1335 1187 1335 1263.5 1270.5 c 128,-1,4
 1340 1206 1340 1206 1379 1124.5 c 128,-1,5
 1418 1043 1418 1043 1418 960 c 0,6,7
 1418 895 1418 895 1405 831.5 c 128,-1,8
 1392 768 1392 768 1359 711.5 c 128,-1,9
 1326 655 1326 655 1268.5 609.5 c 128,-1,10
 1211 564 1211 564 1122 536 c 1,11,12
 1135 494 1135 494 1166 432 c 128,-1,13
 1197 370 1197 370 1238 298 c 128,-1,14
 1279 226 1279 226 1326 149 c 128,-1,15
 1373 72 1373 72 1418 0 c 1,16,-1
 906 0 l 1,17,18
 863 97 863 97 818 217.5 c 128,-1,19
 773 338 773 338 746 480 c 1,20,-1
 618 480 l 1,21,-1
 618 0 l 1,22,-1
 170 0 l 1,23,-1
 170 1414 l 1,0,-1
694 704 m 2,24,25
 770 704 770 704 822.5 724 c 128,-1,26
 875 744 875 744 908 776 c 128,-1,27
 941 808 941 808 955.5 848 c 128,-1,28
 970 888 970 888 970 928 c 0,29,30
 970 1007 970 1007 948 1057 c 128,-1,31
 926 1107 926 1107 888 1135.5 c 128,-1,32
 850 1164 850 1164 800 1174 c 128,-1,33
 750 1184 750 1184 693 1184 c 2,34,-1
 618 1184 l 1,35,-1
 618 704 l 1,36,-1
 694 704 l 2,24,25
EndSplineSet
EndChar

StartChar: S
Encoding: 83 83 54
Width: 1394
Flags: W
LayerCount: 2
Fore
SplineSet
1179 1047 m 1,0,1
 1138 1065 1138 1065 1083.5 1083.5 c 128,-1,2
 1029 1102 1029 1102 969.5 1117 c 128,-1,3
 910 1132 910 1132 849 1141.5 c 128,-1,4
 788 1151 788 1151 734 1151 c 0,5,6
 640 1151 640 1151 587 1127 c 128,-1,7
 534 1103 534 1103 534 1046 c 0,8,9
 534 1019 534 1019 552.5 998.5 c 128,-1,10
 571 978 571 978 605 960.5 c 128,-1,11
 639 943 639 943 686.5 926.5 c 128,-1,12
 734 910 734 910 792 892 c 2,13,-1
 865 869 l 2,14,15
 957 841 957 841 1030 801.5 c 128,-1,16
 1103 762 1103 762 1153.5 708.5 c 128,-1,17
 1204 655 1204 655 1231 586 c 128,-1,18
 1258 517 1258 517 1258 429 c 0,19,20
 1258 326 1258 326 1225.5 241.5 c 128,-1,21
 1193 157 1193 157 1124 97 c 128,-1,22
 1055 37 1055 37 947.5 4 c 128,-1,23
 840 -29 840 -29 689 -29 c 0,24,25
 555 -29 555 -29 422.5 -7 c 128,-1,26
 290 15 290 15 155 70 c 1,27,-1
 155 400 l 1,28,29
 284 334 284 334 405.5 303.5 c 128,-1,30
 527 273 527 273 645 273 c 0,31,32
 742 273 742 273 786.5 304 c 128,-1,33
 831 335 831 335 831 390 c 0,34,35
 831 423 831 423 814.5 446.5 c 128,-1,36
 798 470 798 470 761.5 490 c 128,-1,37
 725 510 725 510 666 530.5 c 128,-1,38
 607 551 607 551 523 577 c 0,39,40
 439 602 439 602 367.5 640 c 128,-1,41
 296 678 296 678 244 731.5 c 128,-1,42
 192 785 192 785 162.5 856 c 128,-1,43
 133 927 133 927 133 1018 c 0,44,45
 133 1112 133 1112 166 1190 c 128,-1,46
 199 1268 199 1268 267 1323.5 c 128,-1,47
 335 1379 335 1379 439.5 1410 c 128,-1,48
 544 1441 544 1441 688 1441 c 0,49,50
 745 1441 745 1441 809 1436 c 128,-1,51
 873 1431 873 1431 939.5 1421 c 128,-1,52
 1006 1411 1006 1411 1071 1395 c 128,-1,53
 1136 1379 1136 1379 1194 1357 c 1,54,-1
 1179 1047 l 1,0,1
EndSplineSet
EndChar

StartChar: T
Encoding: 84 84 55
Width: 1116
Flags: W
LayerCount: 2
Fore
SplineSet
330 0 m 1,0,-1
 330 1088 l 1,1,-1
 10 1088 l 1,2,-1
 10 1414 l 1,3,-1
 1105 1414 l 1,4,-1
 1105 1088 l 1,5,-1
 778 1088 l 1,6,-1
 778 0 l 1,7,-1
 330 0 l 1,0,-1
EndSplineSet
EndChar

StartChar: U
Encoding: 85 85 56
Width: 1579
Flags: W
LayerCount: 2
Fore
SplineSet
810 -29 m 0,0,1
 661 -29 661 -29 542.5 14.5 c 128,-1,2
 424 58 424 58 341 145.5 c 128,-1,3
 258 233 258 233 214 365 c 128,-1,4
 170 497 170 497 170 674 c 2,5,-1
 170 1414 l 1,6,-1
 618 1414 l 1,7,-1
 618 672 l 2,8,9
 618 573 618 573 628 496 c 128,-1,10
 638 419 638 419 662 365.5 c 128,-1,11
 686 312 686 312 726 284 c 128,-1,12
 766 256 766 256 826 256 c 0,13,14
 892 256 892 256 932.5 284 c 128,-1,15
 973 312 973 312 995.5 365.5 c 128,-1,16
 1018 419 1018 419 1026 496 c 128,-1,17
 1034 573 1034 573 1034 672 c 2,18,-1
 1034 1414 l 1,19,-1
 1408 1414 l 1,20,-1
 1408 674 l 2,21,22
 1408 496 1408 496 1373 364 c 128,-1,23
 1338 232 1338 232 1264.5 144.5 c 128,-1,24
 1191 57 1191 57 1078.5 14 c 128,-1,25
 966 -29 966 -29 810 -29 c 0,0,1
EndSplineSet
EndChar

StartChar: V
Encoding: 86 86 57
Width: 1364
Flags: W
LayerCount: 2
Fore
SplineSet
10 1414 m 1,0,-1
 554 1414 l 1,1,-1
 760 359 l 1,2,-1
 1002 1414 l 1,3,-1
 1354 1414 l 1,4,-1
 971 0 l 1,5,-1
 362 0 l 1,6,-1
 10 1414 l 1,0,-1
EndSplineSet
EndChar

StartChar: W
Encoding: 87 87 58
Width: 2062
Flags: W
LayerCount: 2
Fore
SplineSet
1063 800 m 1,0,-1
 918 0 l 1,1,-1
 327 0 l 1,2,-1
 71 1414 l 1,3,-1
 577 1414 l 1,4,-1
 718 280 l 1,5,-1
 893 1414 l 1,6,-1
 1319 1414 l 1,7,-1
 1491 278 l 1,8,-1
 1639 1414 l 1,9,-1
 1991 1414 l 1,10,-1
 1767 0 l 1,11,-1
 1223 0 l 1,12,-1
 1063 800 l 1,0,-1
EndSplineSet
EndChar

StartChar: X
Encoding: 88 88 59
Width: 1451
Flags: W
LayerCount: 2
Fore
SplineSet
1061 704 m 1,0,-1
 1413 0 l 1,1,-1
 869 0 l 1,2,-1
 689 533 l 1,3,-1
 447 0 l 1,4,-1
 37 0 l 1,5,-1
 389 704 l 1,6,-1
 37 1414 l 1,7,-1
 581 1414 l 1,8,-1
 797 913 l 1,9,-1
 1029 1414 l 1,10,-1
 1413 1414 l 1,11,-1
 1061 704 l 1,0,-1
EndSplineSet
EndChar

StartChar: Y
Encoding: 89 89 60
Width: 1235
Flags: W
LayerCount: 2
Fore
SplineSet
414 0 m 1,0,-1
 414 486 l 1,1,-1
 -23 1414 l 1,2,-1
 491 1414 l 1,3,-1
 663 905 l 1,4,-1
 821 1414 l 1,5,-1
 1257 1414 l 1,6,-1
 862 499 l 1,7,-1
 862 0 l 1,8,-1
 414 0 l 1,0,-1
EndSplineSet
EndChar

StartChar: Z
Encoding: 90 90 61
Width: 1064
Flags: W
LayerCount: 2
Fore
SplineSet
980 1414 m 1,0,-1
 980 1088 l 1,1,-1
 564 320 l 1,2,-1
 967 320 l 1,3,-1
 967 0 l 1,4,-1
 84 0 l 1,5,-1
 84 317 l 1,6,-1
 567 1088 l 1,7,-1
 98 1088 l 1,8,-1
 98 1414 l 1,9,-1
 980 1414 l 1,0,-1
EndSplineSet
EndChar

StartChar: bracketleft
Encoding: 91 91 62
Width: 1008
Flags: W
LayerCount: 2
Fore
SplineSet
180 1441 m 1,0,-1
 881 1441 l 1,1,-1
 881 1152 l 1,2,-1
 612 1152 l 1,3,-1
 612 289 l 1,4,-1
 881 289 l 1,5,-1
 881 0 l 1,6,-1
 180 0 l 1,7,-1
 180 1441 l 1,0,-1
EndSplineSet
EndChar

StartChar: backslash
Encoding: 92 92 63
Width: 853
Flags: W
LayerCount: 2
Fore
SplineSet
451 1441 m 1,0,-1
 853 0 l 1,1,-1
 402 0 l 1,2,-1
 0 1441 l 1,3,-1
 451 1441 l 1,0,-1
EndSplineSet
EndChar

StartChar: bracketright
Encoding: 93 93 64
Width: 1008
Flags: W
LayerCount: 2
Fore
SplineSet
848 0 m 1,0,-1
 147 0 l 1,1,-1
 147 289 l 1,2,-1
 416 289 l 1,3,-1
 416 1152 l 1,4,-1
 147 1152 l 1,5,-1
 147 1441 l 1,6,-1
 848 1441 l 1,7,-1
 848 0 l 1,0,-1
EndSplineSet
EndChar

StartChar: asciicircum
Encoding: 94 94 65
Width: 1376
Flags: W
LayerCount: 2
Fore
SplineSet
188 512 m 1,0,-1
 488 1200 l 1,1,-1
 888 1200 l 1,2,-1
 1188 512 l 1,3,-1
 844 512 l 1,4,-1
 688 1000 l 1,5,-1
 537 512 l 1,6,-1
 188 512 l 1,0,-1
EndSplineSet
EndChar

StartChar: underscore
Encoding: 95 95 66
Width: 1000
Flags: W
LayerCount: 2
Fore
SplineSet
1000 0 m 1,0,-1
 1000 -220 l 1,1,-1
 0 -220 l 1,2,-1
 0 0 l 1,3,-1
 1000 0 l 1,0,-1
EndSplineSet
EndChar

StartChar: grave
Encoding: 96 96 67
Width: 1204
Flags: W
LayerCount: 2
Fore
SplineSet
586 1219 m 1,0,-1
 330 1853 l 1,1,-1
 778 1853 l 1,2,-1
 874 1219 l 1,3,-1
 586 1219 l 1,0,-1
EndSplineSet
EndChar

StartChar: a
Encoding: 97 97 68
Width: 1362
Flags: W
LayerCount: 2
Fore
SplineSet
416 -29 m 0,0,1
 352 -29 352 -29 293.5 -11 c 128,-1,2
 235 7 235 7 190 44 c 128,-1,3
 145 81 145 81 118.5 137.5 c 128,-1,4
 92 194 92 194 92 271 c 0,5,6
 92 345 92 345 116 399.5 c 128,-1,7
 140 454 140 454 180.5 493 c 128,-1,8
 221 532 221 532 275.5 557.5 c 128,-1,9
 330 583 330 583 391 597.5 c 128,-1,10
 452 612 452 612 516.5 617.5 c 128,-1,11
 581 623 581 623 642 623 c 0,12,13
 684 623 684 623 723 621 c 128,-1,14
 762 619 762 619 796 616 c 1,15,16
 794 679 794 679 772 720.5 c 128,-1,17
 750 762 750 762 714 786.5 c 128,-1,18
 678 811 678 811 630 821 c 128,-1,19
 582 831 582 831 529 831 c 0,20,21
 480 831 480 831 428.5 824.5 c 128,-1,22
 377 818 377 818 328 808.5 c 128,-1,23
 279 799 279 799 234.5 788 c 128,-1,24
 190 777 190 777 156 768 c 1,25,-1
 156 1048 l 1,26,27
 205 1059 205 1059 261.5 1069.5 c 128,-1,28
 318 1080 318 1080 379 1088 c 128,-1,29
 440 1096 440 1096 503.5 1101 c 128,-1,30
 567 1106 567 1106 629 1106 c 0,31,32
 706 1106 706 1106 780.5 1096.5 c 128,-1,33
 855 1087 855 1087 921.5 1065 c 128,-1,34
 988 1043 988 1043 1044.5 1006 c 128,-1,35
 1101 969 1101 969 1141.5 914.5 c 128,-1,36
 1182 860 1182 860 1205 786 c 128,-1,37
 1228 712 1228 712 1228 615 c 2,38,-1
 1228 0 l 1,39,-1
 816 0 l 1,40,-1
 816 179 l 1,41,42
 792 130 792 130 749 91.5 c 128,-1,43
 706 53 706 53 652 26 c 128,-1,44
 598 -1 598 -1 537 -15 c 128,-1,45
 476 -29 476 -29 416 -29 c 0,0,1
585 206 m 0,46,47
 613 206 613 206 649.5 221.5 c 128,-1,48
 686 237 686 237 718.5 269 c 128,-1,49
 751 301 751 301 773.5 350 c 128,-1,50
 796 399 796 399 796 467 c 1,51,-1
 763 467 l 2,52,53
 715 467 715 467 664.5 457 c 128,-1,54
 614 447 614 447 572 427 c 128,-1,55
 530 407 530 407 503 378 c 128,-1,56
 476 349 476 349 476 311 c 0,57,58
 476 281 476 281 486 261 c 128,-1,59
 496 241 496 241 511.5 228.5 c 128,-1,60
 527 216 527 216 546.5 211 c 128,-1,61
 566 206 566 206 585 206 c 0,46,47
EndSplineSet
EndChar

StartChar: b
Encoding: 98 98 69
Width: 1519
Flags: W
LayerCount: 2
Fore
SplineSet
948 -29 m 0,0,1
 894 -29 894 -29 841 -15 c 128,-1,2
 788 -1 788 -1 740.5 25.5 c 128,-1,3
 693 52 693 52 654 90.5 c 128,-1,4
 615 129 615 129 588 178 c 1,5,-1
 588 0 l 1,6,-1
 156 0 l 1,7,-1
 156 1536 l 1,8,-1
 588 1536 l 1,9,-1
 588 931 l 1,10,11
 611 969 611 969 651 1001 c 128,-1,12
 691 1033 691 1033 741 1056.5 c 128,-1,13
 791 1080 791 1080 848 1093 c 128,-1,14
 905 1106 905 1106 962 1106 c 0,15,16
 1052 1106 1052 1106 1137 1076 c 128,-1,17
 1222 1046 1222 1046 1288 978.5 c 128,-1,18
 1354 911 1354 911 1394.5 802.5 c 128,-1,19
 1435 694 1435 694 1435 538 c 0,20,21
 1435 390 1435 390 1395.5 283 c 128,-1,22
 1356 176 1356 176 1289.5 106.5 c 128,-1,23
 1223 37 1223 37 1134.5 4 c 128,-1,24
 1046 -29 1046 -29 948 -29 c 0,0,1
1003 537 m 256,25,26
 1003 619 1003 619 985 674.5 c 128,-1,27
 967 730 967 730 937 764 c 128,-1,28
 907 798 907 798 869.5 812.5 c 128,-1,29
 832 827 832 827 793 827 c 256,30,31
 754 827 754 827 717.5 812.5 c 128,-1,32
 681 798 681 798 652 764 c 128,-1,33
 623 730 623 730 605.5 674.5 c 128,-1,34
 588 619 588 619 588 538 c 0,35,36
 588 456 588 456 605.5 400.5 c 128,-1,37
 623 345 623 345 652 311.5 c 128,-1,38
 681 278 681 278 718 263.5 c 128,-1,39
 755 249 755 249 794 249 c 256,40,41
 833 249 833 249 870.5 263.5 c 128,-1,42
 908 278 908 278 937.5 311.5 c 128,-1,43
 967 345 967 345 985 400 c 128,-1,44
 1003 455 1003 455 1003 537 c 256,25,26
EndSplineSet
EndChar

StartChar: c
Encoding: 99 99 70
Width: 1213
Flags: W
LayerCount: 2
Fore
SplineSet
512 538 m 256,0,1
 512 465 512 465 529.5 411 c 128,-1,2
 547 357 547 357 579 321.5 c 128,-1,3
 611 286 611 286 656 268.5 c 128,-1,4
 701 251 701 251 757 251 c 0,5,6
 829 251 829 251 893 270.5 c 128,-1,7
 957 290 957 290 1024 324 c 1,8,-1
 1088 64 l 1,9,10
 1044 41 1044 41 993 23.5 c 128,-1,11
 942 6 942 6 888 -5.5 c 128,-1,12
 834 -17 834 -17 778.5 -23 c 128,-1,13
 723 -29 723 -29 670 -29 c 0,14,15
 549 -29 549 -29 442 5 c 128,-1,16
 335 39 335 39 254.5 109 c 128,-1,17
 174 179 174 179 127 286 c 128,-1,18
 80 393 80 393 80 539 c 256,19,20
 80 685 80 685 127 792 c 128,-1,21
 174 899 174 899 254.5 969 c 128,-1,22
 335 1039 335 1039 442 1073 c 128,-1,23
 549 1107 549 1107 670 1107 c 0,24,25
 723 1107 723 1107 778.5 1101 c 128,-1,26
 834 1095 834 1095 888 1083.5 c 128,-1,27
 942 1072 942 1072 993 1054.5 c 128,-1,28
 1044 1037 1044 1037 1088 1014 c 1,29,-1
 1024 754 l 1,30,31
 957 788 957 788 893 807.5 c 128,-1,32
 829 827 829 827 757 827 c 0,33,34
 701 827 701 827 656 809.5 c 128,-1,35
 611 792 611 792 579 756 c 128,-1,36
 547 720 547 720 529.5 665.5 c 128,-1,37
 512 611 512 611 512 538 c 256,0,1
EndSplineSet
EndChar

StartChar: d
Encoding: 100 100 71
Width: 1519
Flags: W
LayerCount: 2
Fore
SplineSet
571 -29 m 0,0,1
 473 -29 473 -29 384.5 4 c 128,-1,2
 296 37 296 37 229.5 106.5 c 128,-1,3
 163 176 163 176 123.5 283 c 128,-1,4
 84 390 84 390 84 538 c 0,5,6
 84 694 84 694 124.5 802.5 c 128,-1,7
 165 911 165 911 231 978.5 c 128,-1,8
 297 1046 297 1046 382 1076 c 128,-1,9
 467 1106 467 1106 557 1106 c 0,10,11
 614 1106 614 1106 671 1093 c 128,-1,12
 728 1080 728 1080 778 1056.5 c 128,-1,13
 828 1033 828 1033 868 1001 c 128,-1,14
 908 969 908 969 931 931 c 1,15,-1
 931 1536 l 1,16,-1
 1363 1536 l 1,17,-1
 1363 0 l 1,18,-1
 931 0 l 1,19,-1
 931 178 l 1,20,21
 904 129 904 129 865 90.5 c 128,-1,22
 826 52 826 52 778.5 25.5 c 128,-1,23
 731 -1 731 -1 678 -15 c 128,-1,24
 625 -29 625 -29 571 -29 c 0,0,1
516 537 m 256,25,26
 516 455 516 455 534 400 c 128,-1,27
 552 345 552 345 581.5 311.5 c 128,-1,28
 611 278 611 278 648.5 263.5 c 128,-1,29
 686 249 686 249 725 249 c 256,30,31
 764 249 764 249 801 263.5 c 128,-1,32
 838 278 838 278 867 311.5 c 128,-1,33
 896 345 896 345 913.5 400.5 c 128,-1,34
 931 456 931 456 931 538 c 0,35,36
 931 619 931 619 913.5 674.5 c 128,-1,37
 896 730 896 730 867 764 c 128,-1,38
 838 798 838 798 801.5 812.5 c 128,-1,39
 765 827 765 827 726 827 c 256,40,41
 687 827 687 827 649.5 812.5 c 128,-1,42
 612 798 612 798 582 764 c 128,-1,43
 552 730 552 730 534 674.5 c 128,-1,44
 516 619 516 619 516 537 c 256,25,26
EndSplineSet
EndChar

StartChar: e
Encoding: 101 101 72
Width: 1297
Flags: W
LayerCount: 2
Fore
SplineSet
1156 43 m 1,0,1
 1062 12 1062 12 953 -8.5 c 128,-1,2
 844 -29 844 -29 726 -29 c 0,3,4
 597 -29 597 -29 480 5 c 128,-1,5
 363 39 363 39 274 111 c 128,-1,6
 185 183 185 183 132.5 293.5 c 128,-1,7
 80 404 80 404 80 557 c 0,8,9
 80 644 80 644 107 718.5 c 128,-1,10
 134 793 134 793 180.5 854 c 128,-1,11
 227 915 227 915 289.5 962 c 128,-1,12
 352 1009 352 1009 423.5 1041 c 128,-1,13
 495 1073 495 1073 571 1089.5 c 128,-1,14
 647 1106 647 1106 720 1106 c 0,15,16
 835 1106 835 1106 923 1080.5 c 128,-1,17
 1011 1055 1011 1055 1069.5 1012 c 128,-1,18
 1128 969 1128 969 1158 912 c 128,-1,19
 1188 855 1188 855 1188 791 c 0,20,21
 1188 713 1188 713 1161.5 658 c 128,-1,22
 1135 603 1135 603 1090.5 565.5 c 128,-1,23
 1046 528 1046 528 987.5 506.5 c 128,-1,24
 929 485 929 485 864 473.5 c 128,-1,25
 799 462 799 462 731.5 459 c 128,-1,26
 664 456 664 456 603 456 c 0,27,28
 582 456 582 456 562.5 456.5 c 128,-1,29
 543 457 543 457 524 457 c 1,30,31
 532 400 532 400 555.5 361 c 128,-1,32
 579 322 579 322 614.5 297.5 c 128,-1,33
 650 273 650 273 696.5 262.5 c 128,-1,34
 743 252 743 252 796 252 c 0,35,36
 836 252 836 252 881.5 258 c 128,-1,37
 927 264 927 264 973.5 274.5 c 128,-1,38
 1020 285 1020 285 1066.5 298.5 c 128,-1,39
 1113 312 1113 312 1156 327 c 1,40,-1
 1156 43 l 1,0,1
515 611 m 1,41,42
 539 612 539 612 576.5 614 c 128,-1,43
 614 616 614 616 656 621 c 128,-1,44
 698 626 698 626 740 635 c 128,-1,45
 782 644 782 644 816 658 c 128,-1,46
 850 672 850 672 871 693 c 128,-1,47
 892 714 892 714 892 744 c 0,48,49
 892 795 892 795 851.5 825.5 c 128,-1,50
 811 856 811 856 739 856 c 0,51,52
 706 856 706 856 668 846.5 c 128,-1,53
 630 837 630 837 597 810 c 128,-1,54
 564 783 564 783 541 735 c 128,-1,55
 518 687 518 687 515 611 c 1,41,42
EndSplineSet
EndChar

StartChar: f
Encoding: 102 102 73
Width: 959
Flags: W
LayerCount: 2
Fore
SplineSet
641 0 m 1,0,-1
 209 0 l 1,1,-1
 209 827 l 1,2,-1
 37 827 l 1,3,-1
 37 1079 l 1,4,-1
 207 1079 l 1,5,6
 207 1202 207 1202 240 1293.5 c 128,-1,7
 273 1385 273 1385 334 1446 c 128,-1,8
 395 1507 395 1507 481.5 1537.5 c 128,-1,9
 568 1568 568 1568 676 1568 c 0,10,11
 764 1568 764 1568 839 1549 c 128,-1,12
 914 1530 914 1530 977 1504 c 1,13,-1
 945 1247 l 1,14,15
 887 1261 887 1261 848.5 1270.5 c 128,-1,16
 810 1280 810 1280 774 1280 c 0,17,18
 728 1280 728 1280 701.5 1263 c 128,-1,19
 675 1246 675 1246 661.5 1218 c 128,-1,20
 648 1190 648 1190 644.5 1153.5 c 128,-1,21
 641 1117 641 1117 641 1079 c 1,22,-1
 943 1079 l 1,23,24
 929 1013 929 1013 921 952 c 128,-1,25
 913 891 913 891 913 827 c 1,26,-1
 641 827 l 1,27,-1
 641 0 l 1,0,-1
EndSplineSet
EndChar

StartChar: g
Encoding: 103 103 74
Width: 1491
Flags: W
LayerCount: 2
Fore
SplineSet
902 186 m 1,0,1
 860 98 860 98 772 49 c 128,-1,2
 684 0 684 0 569 0 c 0,3,4
 446 0 446 0 354.5 46 c 128,-1,5
 263 92 263 92 203 167 c 128,-1,6
 143 242 143 242 113.5 339 c 128,-1,7
 84 436 84 436 84 538 c 0,8,9
 84 643 84 643 114.5 744.5 c 128,-1,10
 145 846 145 846 204.5 926.5 c 128,-1,11
 264 1007 264 1007 352 1056.5 c 128,-1,12
 440 1106 440 1106 555 1106 c 0,13,14
 629 1106 629 1106 687.5 1089 c 128,-1,15
 746 1072 746 1072 791 1040.5 c 128,-1,16
 836 1009 836 1009 869 965.5 c 128,-1,17
 902 922 902 922 926 868 c 1,18,19
 926 877 926 877 924 905 c 128,-1,20
 922 933 922 933 918.5 966 c 128,-1,21
 915 999 915 999 911 1030.5 c 128,-1,22
 907 1062 907 1062 903 1079 c 1,23,-1
 1335 1079 l 1,24,-1
 1335 232 l 2,25,26
 1335 51 1335 51 1290.5 -82.5 c 128,-1,27
 1246 -216 1246 -216 1163 -304.5 c 128,-1,28
 1080 -393 1080 -393 959.5 -436.5 c 128,-1,29
 839 -480 839 -480 688 -480 c 0,30,31
 627 -480 627 -480 579.5 -477 c 128,-1,32
 532 -474 532 -474 489 -468 c 128,-1,33
 446 -462 446 -462 402.5 -453 c 128,-1,34
 359 -444 359 -444 307 -432 c 1,35,-1
 337 -180 l 1,36,37
 365 -188 365 -188 400.5 -195 c 128,-1,38
 436 -202 436 -202 474.5 -207.5 c 128,-1,39
 513 -213 513 -213 553 -216.5 c 128,-1,40
 593 -220 593 -220 629 -220 c 0,41,42
 715 -220 715 -220 768.5 -187 c 128,-1,43
 822 -154 822 -154 851.5 -98 c 128,-1,44
 881 -42 881 -42 891.5 31.5 c 128,-1,45
 902 105 902 105 902 186 c 1,0,1
487 537 m 256,46,47
 487 455 487 455 505 400 c 128,-1,48
 523 345 523 345 552.5 311.5 c 128,-1,49
 582 278 582 278 619.5 263.5 c 128,-1,50
 657 249 657 249 696 249 c 256,51,52
 735 249 735 249 772 263.5 c 128,-1,53
 809 278 809 278 838 311.5 c 128,-1,54
 867 345 867 345 884.5 400.5 c 128,-1,55
 902 456 902 456 902 538 c 0,56,57
 902 619 902 619 884.5 674.5 c 128,-1,58
 867 730 867 730 838 764 c 128,-1,59
 809 798 809 798 772.5 812.5 c 128,-1,60
 736 827 736 827 697 827 c 256,61,62
 658 827 658 827 620.5 812.5 c 128,-1,63
 583 798 583 798 553 764 c 128,-1,64
 523 730 523 730 505 674.5 c 128,-1,65
 487 619 487 619 487 537 c 256,46,47
EndSplineSet
EndChar

StartChar: h
Encoding: 104 104 75
Width: 1485
Flags: W
LayerCount: 2
Fore
SplineSet
156 1536 m 1,0,-1
 588 1536 l 1,1,-1
 588 931 l 1,2,3
 616 970 616 970 660 1002 c 128,-1,4
 704 1034 704 1034 757 1057.5 c 128,-1,5
 810 1081 810 1081 869 1093.5 c 128,-1,6
 928 1106 928 1106 987 1106 c 0,7,8
 1060 1106 1060 1106 1124.5 1082.5 c 128,-1,9
 1189 1059 1189 1059 1237 1007 c 128,-1,10
 1285 955 1285 955 1312.5 873.5 c 128,-1,11
 1340 792 1340 792 1340 677 c 2,12,-1
 1340 0 l 1,13,-1
 908 0 l 1,14,-1
 908 570 l 2,15,16
 908 645 908 645 895.5 695 c 128,-1,17
 883 745 883 745 863 775.5 c 128,-1,18
 843 806 843 806 817.5 818.5 c 128,-1,19
 792 831 792 831 766 831 c 0,20,21
 736 831 736 831 706.5 819.5 c 128,-1,22
 677 808 677 808 652.5 787 c 128,-1,23
 628 766 628 766 611 737 c 128,-1,24
 594 708 594 708 588 673 c 1,25,-1
 588 0 l 1,26,-1
 156 0 l 1,27,-1
 156 1536 l 1,0,-1
EndSplineSet
EndChar

StartChar: i
Encoding: 105 105 76
Width: 761
Flags: W
LayerCount: 2
Fore
SplineSet
162 1079 m 1,0,-1
 594 1079 l 1,1,-1
 594 0 l 1,2,-1
 162 0 l 1,3,-1
 162 1079 l 1,0,-1
379 1301 m 0,4,5
 322 1301 322 1301 272 1313 c 128,-1,6
 222 1325 222 1325 185.5 1346 c 128,-1,7
 149 1367 149 1367 127.5 1397 c 128,-1,8
 106 1427 106 1427 106 1463 c 0,9,10
 106 1503 106 1503 127 1533.5 c 128,-1,11
 148 1564 148 1564 185 1584 c 128,-1,12
 222 1604 222 1604 272 1614 c 128,-1,13
 322 1624 322 1624 380 1624 c 256,14,15
 438 1624 438 1624 488.5 1614 c 128,-1,16
 539 1604 539 1604 576 1584 c 128,-1,17
 613 1564 613 1564 634 1533.5 c 128,-1,18
 655 1503 655 1503 655 1463 c 0,19,20
 655 1427 655 1427 633.5 1397 c 128,-1,21
 612 1367 612 1367 575 1346 c 128,-1,22
 538 1325 538 1325 487.5 1313 c 128,-1,23
 437 1301 437 1301 379 1301 c 0,4,5
EndSplineSet
EndChar

StartChar: j
Encoding: 106 106 77
Width: 777
Flags: W
LayerCount: 2
Fore
SplineSet
205 -416 m 0,0,1
 126 -416 126 -416 53 -411.5 c 128,-1,2
 -20 -407 -20 -407 -83 -384 c 1,3,-1
 -83 -97 l 1,4,5
 -55 -106 -55 -106 -35.5 -112 c 128,-1,6
 -16 -118 -16 -118 0 -121.5 c 128,-1,7
 16 -125 16 -125 30 -126.5 c 128,-1,8
 44 -128 44 -128 61 -128 c 0,9,10
 103 -128 103 -128 128.5 -111.5 c 128,-1,11
 154 -95 154 -95 167.5 -68 c 128,-1,12
 181 -41 181 -41 185 -6 c 128,-1,13
 189 29 189 29 189 67 c 2,14,-1
 189 1079 l 1,15,-1
 621 1079 l 1,16,-1
 621 44 l 2,17,18
 621 -88 621 -88 587.5 -176.5 c 128,-1,19
 554 -265 554 -265 497 -318 c 128,-1,20
 440 -371 440 -371 364.5 -393.5 c 128,-1,21
 289 -416 289 -416 205 -416 c 0,0,1
395 1318 m 0,22,23
 338 1318 338 1318 288 1330 c 128,-1,24
 238 1342 238 1342 201.5 1363 c 128,-1,25
 165 1384 165 1384 143.5 1414 c 128,-1,26
 122 1444 122 1444 122 1480 c 0,27,28
 122 1520 122 1520 143 1550.5 c 128,-1,29
 164 1581 164 1581 201 1601 c 128,-1,30
 238 1621 238 1621 288 1631 c 128,-1,31
 338 1641 338 1641 396 1641 c 256,32,33
 454 1641 454 1641 504.5 1631 c 128,-1,34
 555 1621 555 1621 592 1601 c 128,-1,35
 629 1581 629 1581 650 1550.5 c 128,-1,36
 671 1520 671 1520 671 1480 c 0,37,38
 671 1444 671 1444 649.5 1414 c 128,-1,39
 628 1384 628 1384 591 1363 c 128,-1,40
 554 1342 554 1342 503.5 1330 c 128,-1,41
 453 1318 453 1318 395 1318 c 0,22,23
EndSplineSet
EndChar

StartChar: k
Encoding: 107 107 78
Width: 1405
Flags: W
LayerCount: 2
Fore
SplineSet
984 1079 m 1,0,-1
 1427 1079 l 1,1,-1
 1016 571 l 1,2,-1
 1447 0 l 1,3,-1
 947 0 l 1,4,-1
 622 509 l 1,5,-1
 588 474 l 1,6,-1
 588 0 l 1,7,-1
 156 0 l 1,8,-1
 156 1536 l 1,9,-1
 588 1536 l 1,10,-1
 588 598 l 1,11,-1
 984 1079 l 1,0,-1
EndSplineSet
EndChar

StartChar: l
Encoding: 108 108 79
Width: 744
Flags: W
LayerCount: 2
Fore
SplineSet
156 1536 m 1,0,-1
 588 1536 l 1,1,-1
 588 0 l 1,2,-1
 156 0 l 1,3,-1
 156 1536 l 1,0,-1
EndSplineSet
EndChar

StartChar: m
Encoding: 109 109 80
Width: 2285
Flags: W
LayerCount: 2
Fore
SplineSet
154 1079 m 1,0,-1
 591 1079 l 1,1,2
 582 1050 582 1050 576 1025.5 c 128,-1,3
 570 1001 570 1001 567 977 c 128,-1,4
 564 953 564 953 562.5 928.5 c 128,-1,5
 561 904 561 904 561 876 c 1,6,7
 588 921 588 921 631 963 c 128,-1,8
 674 1005 674 1005 727.5 1036.5 c 128,-1,9
 781 1068 781 1068 841.5 1087 c 128,-1,10
 902 1106 902 1106 964 1106 c 0,11,12
 1013 1106 1013 1106 1060.5 1092 c 128,-1,13
 1108 1078 1108 1078 1151 1050 c 128,-1,14
 1194 1022 1194 1022 1230 981 c 128,-1,15
 1266 940 1266 940 1292 885 c 1,16,17
 1323 933 1323 933 1372.5 973.5 c 128,-1,18
 1422 1014 1422 1014 1482 1043.5 c 128,-1,19
 1542 1073 1542 1073 1609.5 1089.5 c 128,-1,20
 1677 1106 1677 1106 1744 1106 c 0,21,22
 1852 1106 1852 1106 1927.5 1075 c 128,-1,23
 2003 1044 2003 1044 2049.5 987 c 128,-1,24
 2096 930 2096 930 2117 850 c 128,-1,25
 2138 770 2138 770 2138 673 c 2,26,-1
 2138 0 l 1,27,-1
 1706 0 l 1,28,-1
 1706 610 l 2,29,30
 1706 639 1706 639 1699.5 676.5 c 128,-1,31
 1693 714 1693 714 1675 747.5 c 128,-1,32
 1657 781 1657 781 1625.5 804 c 128,-1,33
 1594 827 1594 827 1543 827 c 0,34,35
 1508 827 1508 827 1477 810 c 128,-1,36
 1446 793 1446 793 1422 765 c 128,-1,37
 1398 737 1398 737 1384 701 c 128,-1,38
 1370 665 1370 665 1370 627 c 2,39,-1
 1370 0 l 1,40,-1
 938 0 l 1,41,-1
 938 610 l 2,42,43
 938 651 938 651 930.5 690 c 128,-1,44
 923 729 923 729 905 759.5 c 128,-1,45
 887 790 887 790 856 808.5 c 128,-1,46
 825 827 825 827 778 827 c 0,47,48
 745 827 745 827 710.5 814.5 c 128,-1,49
 676 802 676 802 648.5 780.5 c 128,-1,50
 621 759 621 759 603.5 729 c 128,-1,51
 586 699 586 699 586 664 c 2,52,-1
 586 0 l 1,53,-1
 154 0 l 1,54,-1
 154 1079 l 1,0,-1
EndSplineSet
EndChar

StartChar: n
Encoding: 110 110 81
Width: 1572
Flags: W
LayerCount: 2
Fore
SplineSet
156 1079 m 1,0,-1
 588 1079 l 1,1,2
 582 1045 582 1045 576 991.5 c 128,-1,3
 570 938 570 938 570 881 c 1,4,5
 604 932 604 932 655.5 973.5 c 128,-1,6
 707 1015 707 1015 769 1044.5 c 128,-1,7
 831 1074 831 1074 900.5 1090 c 128,-1,8
 970 1106 970 1106 1041 1106 c 0,9,10
 1119 1106 1119 1106 1189 1082.5 c 128,-1,11
 1259 1059 1259 1059 1312 1008 c 128,-1,12
 1365 957 1365 957 1396 875.5 c 128,-1,13
 1427 794 1427 794 1427 678 c 2,14,-1
 1427 0 l 1,15,-1
 995 0 l 1,16,-1
 995 615 l 2,17,18
 995 677 995 677 982 718 c 128,-1,19
 969 759 969 759 946 783 c 128,-1,20
 923 807 923 807 891.5 817 c 128,-1,21
 860 827 860 827 823 827 c 0,22,23
 783 827 783 827 744 813.5 c 128,-1,24
 705 800 705 800 673 777 c 128,-1,25
 641 754 641 754 618 723 c 128,-1,26
 595 692 595 692 588 657 c 1,27,-1
 588 0 l 1,28,-1
 156 0 l 1,29,-1
 156 1079 l 1,0,-1
EndSplineSet
EndChar

StartChar: o
Encoding: 111 111 82
Width: 1408
Flags: W
LayerCount: 2
Fore
SplineSet
704 -29 m 256,0,1
 586 -29 586 -29 494 -7 c 128,-1,2
 402 15 402 15 333 54 c 128,-1,3
 264 93 264 93 215.5 146.5 c 128,-1,4
 167 200 167 200 137 263 c 128,-1,5
 107 326 107 326 93.5 396 c 128,-1,6
 80 466 80 466 80 538 c 0,7,8
 80 609 80 609 93.5 678.5 c 128,-1,9
 107 748 107 748 137 811.5 c 128,-1,10
 167 875 167 875 215 928.5 c 128,-1,11
 263 982 263 982 332.5 1021.5 c 128,-1,12
 402 1061 402 1061 494 1083.5 c 128,-1,13
 586 1106 586 1106 704 1106 c 256,14,15
 822 1106 822 1106 914 1083.5 c 128,-1,16
 1006 1061 1006 1061 1075.5 1021.5 c 128,-1,17
 1145 982 1145 982 1193 928.5 c 128,-1,18
 1241 875 1241 875 1271 811.5 c 128,-1,19
 1301 748 1301 748 1314.5 678.5 c 128,-1,20
 1328 609 1328 609 1328 538 c 0,21,22
 1328 466 1328 466 1314.5 396 c 128,-1,23
 1301 326 1301 326 1271 263 c 128,-1,24
 1241 200 1241 200 1192.5 146.5 c 128,-1,25
 1144 93 1144 93 1075 54 c 128,-1,26
 1006 15 1006 15 914 -7 c 128,-1,27
 822 -29 822 -29 704 -29 c 256,0,1
512 538 m 256,28,29
 512 484 512 484 522 432.5 c 128,-1,30
 532 381 532 381 554.5 340.5 c 128,-1,31
 577 300 577 300 613.5 275.5 c 128,-1,32
 650 251 650 251 704 251 c 256,33,34
 758 251 758 251 794.5 275.5 c 128,-1,35
 831 300 831 300 853.5 340.5 c 128,-1,36
 876 381 876 381 886 432.5 c 128,-1,37
 896 484 896 484 896 538 c 256,38,39
 896 592 896 592 886 643.5 c 128,-1,40
 876 695 876 695 853.5 735.5 c 128,-1,41
 831 776 831 776 794.5 801 c 128,-1,42
 758 826 758 826 704 826 c 256,43,44
 650 826 650 826 613.5 801 c 128,-1,45
 577 776 577 776 554.5 735.5 c 128,-1,46
 532 695 532 695 522 643.5 c 128,-1,47
 512 592 512 592 512 538 c 256,28,29
EndSplineSet
EndChar

StartChar: p
Encoding: 112 112 83
Width: 1488
Flags: W
LayerCount: 2
Fore
SplineSet
156 1079 m 1,0,-1
 596 1079 l 1,1,2
 579 1025 579 1025 572.5 978.5 c 128,-1,3
 566 932 566 932 566 881 c 1,4,5
 594 930 594 930 639 971 c 128,-1,6
 684 1012 684 1012 738 1042 c 128,-1,7
 792 1072 792 1072 851.5 1089 c 128,-1,8
 911 1106 911 1106 968 1106 c 0,9,10
 1052 1106 1052 1106 1131 1074 c 128,-1,11
 1210 1042 1210 1042 1270.5 975 c 128,-1,12
 1331 908 1331 908 1367.5 803.5 c 128,-1,13
 1404 699 1404 699 1404 555 c 0,14,15
 1404 393 1404 393 1363.5 281.5 c 128,-1,16
 1323 170 1323 170 1258 101 c 128,-1,17
 1193 32 1193 32 1111.5 1.5 c 128,-1,18
 1030 -29 1030 -29 948 -29 c 0,19,20
 889 -29 889 -29 833.5 -16.5 c 128,-1,21
 778 -4 778 -4 730.5 18.5 c 128,-1,22
 683 41 683 41 646 71.5 c 128,-1,23
 609 102 609 102 588 138 c 1,24,-1
 588 -432 l 1,25,-1
 156 -432 l 1,26,-1
 156 1079 l 1,0,-1
588 537 m 256,27,28
 588 455 588 455 606 400 c 128,-1,29
 624 345 624 345 653.5 311.5 c 128,-1,30
 683 278 683 278 720.5 263.5 c 128,-1,31
 758 249 758 249 797 249 c 256,32,33
 836 249 836 249 873 263.5 c 128,-1,34
 910 278 910 278 939 311.5 c 128,-1,35
 968 345 968 345 985.5 400.5 c 128,-1,36
 1003 456 1003 456 1003 538 c 0,37,38
 1003 619 1003 619 985.5 674.5 c 128,-1,39
 968 730 968 730 939 764 c 128,-1,40
 910 798 910 798 873.5 812.5 c 128,-1,41
 837 827 837 827 798 827 c 256,42,43
 759 827 759 827 721.5 812.5 c 128,-1,44
 684 798 684 798 654 764 c 128,-1,45
 624 730 624 730 606 674.5 c 128,-1,46
 588 619 588 619 588 537 c 256,27,28
EndSplineSet
EndChar

StartChar: q
Encoding: 113 113 84
Width: 1503
Flags: W
LayerCount: 2
Fore
SplineSet
915 -432 m 1,0,-1
 915 138 l 1,1,2
 894 100 894 100 857 69 c 128,-1,3
 820 38 820 38 772 16 c 128,-1,4
 724 -6 724 -6 668 -17.5 c 128,-1,5
 612 -29 612 -29 554 -29 c 0,6,7
 468 -29 468 -29 384 0.5 c 128,-1,8
 300 30 300 30 233.5 98 c 128,-1,9
 167 166 167 166 125.5 278 c 128,-1,10
 84 390 84 390 84 555 c 0,11,12
 84 699 84 699 121.5 803.5 c 128,-1,13
 159 908 159 908 222 975 c 128,-1,14
 285 1042 285 1042 366.5 1074 c 128,-1,15
 448 1106 448 1106 537 1106 c 0,16,17
 594 1106 594 1106 650 1093.5 c 128,-1,18
 706 1081 706 1081 756 1058.5 c 128,-1,19
 806 1036 806 1036 847 1003.5 c 128,-1,20
 888 971 888 971 915 931 c 1,21,-1
 915 1079 l 1,22,-1
 1347 1079 l 1,23,-1
 1347 -432 l 1,24,-1
 915 -432 l 1,0,-1
500 537 m 256,25,26
 500 455 500 455 518 400 c 128,-1,27
 536 345 536 345 565.5 311.5 c 128,-1,28
 595 278 595 278 632.5 263.5 c 128,-1,29
 670 249 670 249 709 249 c 256,30,31
 748 249 748 249 785 263.5 c 128,-1,32
 822 278 822 278 851 311.5 c 128,-1,33
 880 345 880 345 897.5 400.5 c 128,-1,34
 915 456 915 456 915 538 c 0,35,36
 915 619 915 619 897.5 674.5 c 128,-1,37
 880 730 880 730 851 764 c 128,-1,38
 822 798 822 798 785.5 812.5 c 128,-1,39
 749 827 749 827 710 827 c 256,40,41
 671 827 671 827 633.5 812.5 c 128,-1,42
 596 798 596 798 566 764 c 128,-1,43
 536 730 536 730 518 674.5 c 128,-1,44
 500 619 500 619 500 537 c 256,25,26
EndSplineSet
EndChar

StartChar: r
Encoding: 114 114 85
Width: 1050
Flags: W
LayerCount: 2
Fore
SplineSet
156 1079 m 1,0,-1
 567 1079 l 1,1,2
 565 1053 565 1053 564 1021.5 c 128,-1,3
 563 990 563 990 563 955.5 c 128,-1,4
 563 921 563 921 563 886 c 128,-1,5
 563 851 563 851 563 819 c 1,6,7
 583 868 583 868 615 919.5 c 128,-1,8
 647 971 647 971 690.5 1012 c 128,-1,9
 734 1053 734 1053 789.5 1079.5 c 128,-1,10
 845 1106 845 1106 914 1106 c 0,11,12
 927 1106 927 1106 942.5 1104.5 c 128,-1,13
 958 1103 958 1103 973 1100 c 128,-1,14
 988 1097 988 1097 1001.5 1092.5 c 128,-1,15
 1015 1088 1015 1088 1024 1082 c 1,16,-1
 989 670 l 1,17,18
 944 687 944 687 894 695.5 c 128,-1,19
 844 704 844 704 807 704 c 0,20,21
 756 704 756 704 717.5 691.5 c 128,-1,22
 679 679 679 679 652 659 c 128,-1,23
 625 639 625 639 609.5 615 c 128,-1,24
 594 591 594 591 588 568 c 1,25,-1
 588 0 l 1,26,-1
 156 0 l 1,27,-1
 156 1079 l 1,0,-1
EndSplineSet
EndChar

StartChar: s
Encoding: 115 115 86
Width: 1156
Flags: W
LayerCount: 2
Fore
SplineSet
996 756 m 1,0,1
 896 802 896 802 800.5 827.5 c 128,-1,2
 705 853 705 853 633 853 c 0,3,4
 557 853 557 853 525 838.5 c 128,-1,5
 493 824 493 824 493 788 c 0,6,7
 493 756 493 756 540 737.5 c 128,-1,8
 587 719 587 719 678 695 c 256,9,10
 769 671 769 671 841 642 c 128,-1,11
 913 613 913 613 963.5 570 c 128,-1,12
 1014 527 1014 527 1040.5 467 c 128,-1,13
 1067 407 1067 407 1067 320 c 0,14,15
 1067 242 1067 242 1037 177.5 c 128,-1,16
 1007 113 1007 113 946 67 c 128,-1,17
 885 21 885 21 792 -4 c 128,-1,18
 699 -29 699 -29 573 -29 c 0,19,20
 461 -29 461 -29 348 -12.5 c 128,-1,21
 235 4 235 4 120 46 c 1,22,-1
 120 355 l 1,23,24
 223 310 223 310 327 283 c 128,-1,25
 431 256 431 256 525 256 c 0,26,27
 694 256 694 256 694 326 c 0,28,29
 694 338 694 338 686 348 c 128,-1,30
 678 358 678 358 656.5 367.5 c 128,-1,31
 635 377 635 377 596.5 387.5 c 128,-1,32
 558 398 558 398 498 413 c 0,33,34
 415 433 415 433 341.5 464.5 c 128,-1,35
 268 496 268 496 213.5 541.5 c 128,-1,36
 159 587 159 587 127.5 648 c 128,-1,37
 96 709 96 709 96 787 c 0,38,39
 96 857 96 857 125.5 916 c 128,-1,40
 155 975 155 975 214.5 1017 c 128,-1,41
 274 1059 274 1059 362.5 1082.5 c 128,-1,42
 451 1106 451 1106 568 1106 c 0,43,44
 636 1106 636 1106 698.5 1100 c 128,-1,45
 761 1094 761 1094 817 1085.5 c 128,-1,46
 873 1077 873 1077 921.5 1067.5 c 128,-1,47
 970 1058 970 1058 1011 1050 c 1,48,-1
 996 756 l 1,0,1
EndSplineSet
EndChar

StartChar: t
Encoding: 116 116 87
Width: 1053
Flags: W
LayerCount: 2
Fore
SplineSet
693 -29 m 0,0,1
 600 -29 600 -29 515 -6.5 c 128,-1,2
 430 16 430 16 365.5 69.5 c 128,-1,3
 301 123 301 123 262.5 211.5 c 128,-1,4
 224 300 224 300 224 432 c 2,5,-1
 224 831 l 1,6,-1
 25 831 l 1,7,-1
 25 896 l 1,8,-1
 496 1408 l 1,9,-1
 656 1408 l 1,10,-1
 656 1079 l 1,11,-1
 976 1079 l 1,12,13
 964 1019 964 1019 954.5 958 c 128,-1,14
 945 897 945 897 944 831 c 1,15,-1
 656 831 l 1,16,-1
 656 436 l 2,17,18
 656 400 656 400 661.5 366.5 c 128,-1,19
 667 333 667 333 684 307.5 c 128,-1,20
 701 282 701 282 733 266.5 c 128,-1,21
 765 251 765 251 818 251 c 0,22,23
 852 251 852 251 893 257.5 c 128,-1,24
 934 264 934 264 986 282 c 1,25,-1
 1010 23 l 1,26,27
 947 0 947 0 865.5 -14.5 c 128,-1,28
 784 -29 784 -29 693 -29 c 0,0,1
EndSplineSet
EndChar

StartChar: u
Encoding: 117 117 88
Width: 1517
Flags: W
LayerCount: 2
Fore
SplineSet
1361 0 m 1,0,-1
 930 0 l 1,1,-1
 939 69 l 2,2,3
 943 101 943 101 946 141 c 128,-1,4
 949 181 949 181 951 224 c 1,5,6
 921 165 921 165 875.5 118.5 c 128,-1,7
 830 72 830 72 775 39 c 128,-1,8
 720 6 720 6 658 -11.5 c 128,-1,9
 596 -29 596 -29 533 -29 c 0,10,11
 455 -29 455 -29 385 -3.5 c 128,-1,12
 315 22 315 22 261.5 77.5 c 128,-1,13
 208 133 208 133 176.5 220.5 c 128,-1,14
 145 308 145 308 145 432 c 2,15,-1
 145 1079 l 1,16,-1
 577 1079 l 1,17,-1
 577 472 l 2,18,19
 577 410 577 410 588.5 368 c 128,-1,20
 600 326 600 326 620 300 c 128,-1,21
 640 274 640 274 666 262.5 c 128,-1,22
 692 251 692 251 721 251 c 0,23,24
 755 251 755 251 789.5 265 c 128,-1,25
 824 279 824 279 852.5 303 c 128,-1,26
 881 327 881 327 901.5 359.5 c 128,-1,27
 922 392 922 392 929 429 c 1,28,-1
 929 1079 l 1,29,-1
 1361 1079 l 1,30,-1
 1361 0 l 1,0,-1
EndSplineSet
EndChar

StartChar: v
Encoding: 118 118 89
Width: 1305
Flags: W
LayerCount: 2
Fore
SplineSet
29 1079 m 1,0,-1
 514 1079 l 1,1,-1
 701 271 l 1,2,-1
 910 1079 l 1,3,-1
 1277 1079 l 1,4,-1
 932 0 l 1,5,-1
 385 0 l 1,6,-1
 29 1079 l 1,0,-1
EndSplineSet
EndChar

StartChar: w
Encoding: 119 119 90
Width: 2019
Flags: W
LayerCount: 2
Fore
SplineSet
66 1079 m 1,0,-1
 526 1079 l 1,1,-1
 687 261 l 1,2,-1
 848 1079 l 1,3,-1
 1318 1079 l 1,4,-1
 1498 261 l 1,5,-1
 1612 1079 l 1,6,-1
 1954 1079 l 1,7,-1
 1730 0 l 1,8,-1
 1174 0 l 1,9,-1
 1035 698 l 1,10,-1
 909 0 l 1,11,-1
 325 0 l 1,12,-1
 66 1079 l 1,0,-1
EndSplineSet
EndChar

StartChar: x
Encoding: 120 120 91
Width: 1361
Flags: W
LayerCount: 2
Fore
SplineSet
972 562 m 1,0,-1
 1332 0 l 1,1,-1
 842 0 l 1,2,-1
 633 359 l 1,3,-1
 445 0 l 1,4,-1
 82 0 l 1,5,-1
 389 556 l 1,6,-1
 29 1079 l 1,7,-1
 519 1079 l 1,8,-1
 718 734 l 1,9,-1
 919 1079 l 1,10,-1
 1282 1079 l 1,11,-1
 972 562 l 1,0,-1
EndSplineSet
EndChar

StartChar: y
Encoding: 121 121 92
Width: 1453
Flags: W
LayerCount: 2
Fore
SplineSet
848 1079 m 1,0,-1
 1280 1079 l 1,1,-1
 1280 151 l 2,2,3
 1280 38 1280 38 1257 -52 c 128,-1,4
 1234 -142 1234 -142 1193 -212.5 c 128,-1,5
 1152 -283 1152 -283 1095.5 -333.5 c 128,-1,6
 1039 -384 1039 -384 971 -416.5 c 128,-1,7
 903 -449 903 -449 826 -464.5 c 128,-1,8
 749 -480 749 -480 668 -480 c 0,9,10
 559 -480 559 -480 449 -469 c 128,-1,11
 339 -458 339 -458 248 -432 c 1,12,-1
 278 -180 l 1,13,14
 387 -206 387 -206 460.5 -213 c 128,-1,15
 534 -220 534 -220 569 -220 c 0,16,17
 669 -220 669 -220 728.5 -191 c 128,-1,18
 788 -162 788 -162 819 -102 c 0,19,20
 834 -72 834 -72 843.5 -43 c 128,-1,21
 853 -14 853 -14 859 17 c 128,-1,22
 865 48 865 48 867 81.5 c 128,-1,23
 869 115 869 115 869 156 c 1,24,25
 848 118 848 118 812 89 c 128,-1,26
 776 60 776 60 732 40 c 128,-1,27
 688 20 688 20 639.5 10 c 128,-1,28
 591 0 591 0 545 0 c 0,29,30
 465 0 465 0 393 24.5 c 128,-1,31
 321 49 321 49 265.5 101.5 c 128,-1,32
 210 154 210 154 177.5 236 c 128,-1,33
 145 318 145 318 145 432 c 2,34,-1
 145 1079 l 1,35,-1
 529 1079 l 1,36,-1
 529 444 l 2,37,38
 529 394 529 394 543.5 357.5 c 128,-1,39
 558 321 558 321 581.5 297.5 c 128,-1,40
 605 274 605 274 635 262.5 c 128,-1,41
 665 251 665 251 696 251 c 0,42,43
 725 251 725 251 752.5 260.5 c 128,-1,44
 780 270 780 270 801 288.5 c 128,-1,45
 822 307 822 307 835 334 c 128,-1,46
 848 361 848 361 848 396 c 2,47,-1
 848 1079 l 1,0,-1
EndSplineSet
EndChar

StartChar: z
Encoding: 122 122 93
Width: 1067
Flags: W
LayerCount: 2
Fore
SplineSet
590 271 m 1,0,-1
 977 271 l 1,1,2
 965 208 965 208 958.5 141.5 c 128,-1,3
 952 75 952 75 952 0 c 1,4,-1
 84 0 l 1,5,-1
 84 271 l 1,6,-1
 464 832 l 1,7,-1
 84 832 l 1,8,-1
 109 1079 l 1,9,-1
 952 1079 l 1,10,-1
 952 826 l 1,11,-1
 590 271 l 1,0,-1
EndSplineSet
EndChar

StartChar: braceleft
Encoding: 123 123 94
Width: 1163
Flags: W
LayerCount: 2
Fore
SplineSet
381 1055 m 0,0,1
 381 1172 381 1172 417 1277.5 c 128,-1,2
 453 1383 453 1383 523 1462.5 c 128,-1,3
 593 1542 593 1542 695.5 1589 c 128,-1,4
 798 1636 798 1636 931 1636 c 1,5,-1
 931 1409 l 1,6,7
 893 1409 893 1409 873 1386 c 128,-1,8
 853 1363 853 1363 843.5 1326 c 128,-1,9
 834 1289 834 1289 832.5 1241.5 c 128,-1,10
 831 1194 831 1194 831 1145 c 0,11,12
 831 1089 831 1089 813 1028.5 c 128,-1,13
 795 968 795 968 758 915 c 128,-1,14
 721 862 721 862 664.5 821 c 128,-1,15
 608 780 608 780 531 762 c 1,16,17
 608 743 608 743 664.5 699 c 128,-1,18
 721 655 721 655 758 597.5 c 128,-1,19
 795 540 795 540 813 475 c 128,-1,20
 831 410 831 410 831 350 c 0,21,22
 831 306 831 306 832.5 264 c 128,-1,23
 834 222 834 222 843.5 189 c 128,-1,24
 853 156 853 156 873.5 136 c 128,-1,25
 894 116 894 116 931 116 c 1,26,-1
 931 -111 l 1,27,28
 798 -111 798 -111 695.5 -64 c 128,-1,29
 593 -17 593 -17 523 62.5 c 128,-1,30
 453 142 453 142 417 247.5 c 128,-1,31
 381 353 381 353 381 470 c 0,32,33
 381 507 381 507 369 533 c 128,-1,34
 357 559 357 559 336.5 574.5 c 128,-1,35
 316 590 316 590 289 597 c 128,-1,36
 262 604 262 604 231 604 c 1,37,-1
 231 921 l 1,38,39
 262 921 262 921 289 928 c 128,-1,40
 316 935 316 935 336.5 950.5 c 128,-1,41
 357 966 357 966 369 991.5 c 128,-1,42
 381 1017 381 1017 381 1055 c 0,0,1
EndSplineSet
EndChar

StartChar: bar
Encoding: 124 124 95
Width: 872
Flags: W
LayerCount: 2
Fore
SplineSet
236 1600 m 1,0,-1
 636 1600 l 1,1,-1
 636 -100 l 1,2,-1
 236 -100 l 1,3,-1
 236 1600 l 1,0,-1
EndSplineSet
EndChar

StartChar: braceright
Encoding: 125 125 96
Width: 1163
Flags: W
LayerCount: 2
Fore
SplineSet
781 1055 m 0,0,1
 781 1017 781 1017 793 991.5 c 128,-1,2
 805 966 805 966 825.5 950.5 c 128,-1,3
 846 935 846 935 873 928 c 128,-1,4
 900 921 900 921 931 921 c 1,5,-1
 931 604 l 1,6,7
 900 604 900 604 873 597 c 128,-1,8
 846 590 846 590 825.5 574.5 c 128,-1,9
 805 559 805 559 793 533 c 128,-1,10
 781 507 781 507 781 470 c 0,11,12
 781 353 781 353 745 247.5 c 128,-1,13
 709 142 709 142 639 62.5 c 128,-1,14
 569 -17 569 -17 466.5 -64 c 128,-1,15
 364 -111 364 -111 231 -111 c 1,16,-1
 231 116 l 1,17,18
 268 116 268 116 288.5 136 c 128,-1,19
 309 156 309 156 318.5 189 c 128,-1,20
 328 222 328 222 329.5 264 c 128,-1,21
 331 306 331 306 331 350 c 0,22,23
 331 410 331 410 349 475 c 128,-1,24
 367 540 367 540 404 597.5 c 128,-1,25
 441 655 441 655 497.5 699 c 128,-1,26
 554 743 554 743 631 762 c 1,27,28
 554 780 554 780 497.5 821 c 128,-1,29
 441 862 441 862 404 915 c 128,-1,30
 367 968 367 968 349 1028.5 c 128,-1,31
 331 1089 331 1089 331 1145 c 0,32,33
 331 1194 331 1194 329.5 1241.5 c 128,-1,34
 328 1289 328 1289 318.5 1326 c 128,-1,35
 309 1363 309 1363 288.5 1386 c 128,-1,36
 268 1409 268 1409 231 1409 c 1,37,-1
 231 1636 l 1,38,39
 364 1636 364 1636 466.5 1589 c 128,-1,40
 569 1542 569 1542 639 1462.5 c 128,-1,41
 709 1383 709 1383 745 1277.5 c 128,-1,42
 781 1172 781 1172 781 1055 c 0,0,1
EndSplineSet
EndChar

StartChar: asciitilde
Encoding: 126 126 97
Width: 1673
Flags: W
LayerCount: 2
Fore
SplineSet
1027 836 m 0,0,1
 988 836 988 836 950.5 850 c 128,-1,2
 913 864 913 864 875.5 885.5 c 128,-1,3
 838 907 838 907 801.5 931.5 c 128,-1,4
 765 956 765 956 729 977.5 c 128,-1,5
 693 999 693 999 657.5 1013 c 128,-1,6
 622 1027 622 1027 587 1027 c 0,7,8
 530 1027 530 1027 487 994.5 c 128,-1,9
 444 962 444 962 427 893 c 1,10,-1
 197 976 l 1,11,12
 233 1075 233 1075 282.5 1147 c 128,-1,13
 332 1219 332 1219 390.5 1266.5 c 128,-1,14
 449 1314 449 1314 515 1337 c 128,-1,15
 581 1360 581 1360 651 1360 c 0,16,17
 689 1360 689 1360 727 1346 c 128,-1,18
 765 1332 765 1332 802.5 1310.5 c 128,-1,19
 840 1289 840 1289 876.5 1264.5 c 128,-1,20
 913 1240 913 1240 949 1218.5 c 128,-1,21
 985 1197 985 1197 1020 1183 c 128,-1,22
 1055 1169 1055 1169 1090 1169 c 0,23,24
 1147 1169 1147 1169 1187.5 1193.5 c 128,-1,25
 1228 1218 1228 1218 1245 1272 c 1,26,-1
 1476 1189 l 1,27,28
 1441 1098 1441 1098 1392.5 1031.5 c 128,-1,29
 1344 965 1344 965 1285.5 921.5 c 128,-1,30
 1227 878 1227 878 1161.5 857 c 128,-1,31
 1096 836 1096 836 1027 836 c 0,0,1
EndSplineSet
EndChar

StartChar: exclamdown
Encoding: 161 161 99
Width: 1033
Flags: W
LayerCount: 2
Fore
SplineSet
292 0 m 1,0,-1
 740 0 l 1,1,-1
 676 900 l 1,2,-1
 356 900 l 1,3,-1
 292 0 l 1,0,-1
516 1441 m 0,4,5
 451 1441 451 1441 402.5 1424 c 128,-1,6
 354 1407 354 1407 322.5 1381.5 c 128,-1,7
 291 1356 291 1356 275.5 1322 c 128,-1,8
 260 1288 260 1288 260 1253 c 0,9,10
 260 1217 260 1217 276.5 1182.5 c 128,-1,11
 293 1148 293 1148 325 1120.5 c 128,-1,12
 357 1093 357 1093 405 1076.5 c 128,-1,13
 453 1060 453 1060 516 1060 c 256,14,15
 579 1060 579 1060 627 1076.5 c 128,-1,16
 675 1093 675 1093 707.5 1120 c 128,-1,17
 740 1147 740 1147 756.5 1181.5 c 128,-1,18
 773 1216 773 1216 773 1252 c 0,19,20
 773 1287 773 1287 757.5 1321.5 c 128,-1,21
 742 1356 742 1356 710 1381.5 c 128,-1,22
 678 1407 678 1407 630 1424 c 128,-1,23
 582 1441 582 1441 516 1441 c 0,4,5
EndSplineSet
EndChar

StartChar: cent
Encoding: 162 162 100
Width: 1213
Flags: W
LayerCount: 2
Fore
SplineSet
840 0 m 1,0,-1
 623 0 l 1,1,-1
 623 136 l 1,2,3
 528 141 528 141 442 169 c 0,4,5
 335 203 335 203 254.5 273 c 128,-1,6
 174 343 174 343 127 450 c 128,-1,7
 80 557 80 557 80 703 c 256,8,9
 80 849 80 849 127 956 c 128,-1,10
 174 1063 174 1063 254.5 1133 c 128,-1,11
 335 1203 335 1203 442 1237 c 0,12,13
 528 1264 528 1264 623 1270 c 1,14,-1
 623 1441 l 1,15,-1
 840 1441 l 1,16,-1
 840 1256 l 1,17,18
 864 1252 864 1252 888 1247 c 0,19,20
 942 1236 942 1236 993 1218.5 c 128,-1,21
 1044 1201 1044 1201 1088 1178 c 1,22,-1
 1024 918 l 1,23,24
 957 952 957 952 893 971 c 0,25,26
 867 979 867 979 840 984 c 1,27,-1
 840 422 l 1,28,29
 867 426 867 426 893 434 c 0,30,31
 957 454 957 454 1024 488 c 1,32,-1
 1088 228 l 1,33,34
 1044 205 1044 205 993 187.5 c 128,-1,35
 942 170 942 170 888 158 c 0,36,37
 864 153 864 153 840 149 c 1,38,-1
 840 0 l 1,0,-1
512 702 m 256,39,40
 512 629 512 629 529.5 575 c 128,-1,41
 547 521 547 521 579 485 c 0,42,43
 598 464 598 464 623 448 c 1,44,-1
 623 957 l 1,45,46
 598 942 598 942 579 920 c 0,47,48
 547 884 547 884 529.5 829.5 c 128,-1,49
 512 775 512 775 512 702 c 256,39,40
EndSplineSet
EndChar

StartChar: sterling
Encoding: 163 163 101
Width: 1399
Flags: W
LayerCount: 2
Fore
SplineSet
294 832 m 1,0,1
 314 1012 314 1012 355 1130 c 128,-1,2
 396 1248 396 1248 463 1317 c 128,-1,3
 530 1386 530 1386 625.5 1413.5 c 128,-1,4
 721 1441 721 1441 851 1441 c 0,5,6
 978 1441 978 1441 1058.5 1413 c 128,-1,7
 1139 1385 1139 1385 1185.5 1331.5 c 128,-1,8
 1232 1278 1232 1278 1249.5 1200.5 c 128,-1,9
 1267 1123 1267 1123 1267 1024 c 1,10,-1
 1011 1024 l 1,11,12
 1011 1057 1011 1057 1007 1086 c 128,-1,13
 1003 1115 1003 1115 989.5 1136.5 c 128,-1,14
 976 1158 976 1158 951 1171 c 128,-1,15
 926 1184 926 1184 883 1184 c 0,16,17
 841 1184 841 1184 812 1165 c 128,-1,18
 783 1146 783 1146 764.5 1104 c 128,-1,19
 746 1062 746 1062 736.5 995 c 128,-1,20
 727 928 727 928 723 832 c 1,21,-1
 979 832 l 1,22,-1
 979 576 l 1,23,-1
 723 576 l 1,24,-1
 723 416 l 2,25,26
 723 384 723 384 721.5 348.5 c 128,-1,27
 720 313 720 313 718 283 c 1,28,29
 738 280 738 280 762 275.5 c 128,-1,30
 786 271 786 271 809.5 266.5 c 128,-1,31
 833 262 833 262 852.5 259 c 128,-1,32
 872 256 872 256 883 256 c 0,33,34
 919 256 919 256 938.5 267.5 c 128,-1,35
 958 279 958 279 967 297 c 128,-1,36
 976 315 976 315 977.5 338 c 128,-1,37
 979 361 979 361 979 384 c 1,38,-1
 1299 384 l 1,39,40
 1299 264 1299 264 1265.5 184.5 c 128,-1,41
 1232 105 1232 105 1177.5 57.5 c 128,-1,42
 1123 10 1123 10 1054 -9.5 c 128,-1,43
 985 -29 985 -29 915 -29 c 0,44,45
 819 -29 819 -29 753 -18.5 c 128,-1,46
 687 -8 687 -8 642.5 9.5 c 128,-1,47
 598 27 598 27 572 49.5 c 128,-1,48
 546 72 546 72 531 96 c 1,49,50
 462 39 462 39 357 19.5 c 128,-1,51
 252 0 252 0 115 0 c 1,52,-1
 115 256 l 1,53,54
 146 256 146 256 174.5 262 c 128,-1,55
 203 268 203 268 225.5 282.5 c 128,-1,56
 248 297 248 297 261.5 321.5 c 128,-1,57
 275 346 275 346 275 384 c 2,58,-1
 275 576 l 1,59,-1
 115 576 l 1,60,-1
 115 832 l 1,61,-1
 294 832 l 1,0,1
EndSplineSet
EndChar

StartChar: currency
Encoding: 164 164 102
Width: 1290
Flags: W
LayerCount: 2
Fore
SplineSet
640 293 m 0,0,1
 536 293 536 293 457 328 c 128,-1,2
 378 363 378 363 325 420 c 128,-1,3
 272 477 272 477 245 550 c 128,-1,4
 218 623 218 623 218 700 c 256,5,6
 218 777 218 777 244.5 850 c 128,-1,7
 271 923 271 923 324 980 c 128,-1,8
 377 1037 377 1037 456 1071.5 c 128,-1,9
 535 1106 535 1106 640 1106 c 0,10,11
 744 1106 744 1106 823 1071.5 c 128,-1,12
 902 1037 902 1037 955 980 c 128,-1,13
 1008 923 1008 923 1034.5 850 c 128,-1,14
 1061 777 1061 777 1061 700 c 256,15,16
 1061 623 1061 623 1034 550 c 128,-1,17
 1007 477 1007 477 954 420 c 128,-1,18
 901 363 901 363 822 328 c 128,-1,19
 743 293 743 293 640 293 c 0,0,1
639 469 m 0,20,21
 692 469 692 469 733 489 c 128,-1,22
 774 509 774 509 801.5 541 c 128,-1,23
 829 573 829 573 843 614.5 c 128,-1,24
 857 656 857 656 857 700 c 0,25,26
 857 743 857 743 843 784.5 c 128,-1,27
 829 826 829 826 801.5 858.5 c 128,-1,28
 774 891 774 891 733.5 910.5 c 128,-1,29
 693 930 693 930 639 930 c 256,30,31
 585 930 585 930 543.5 910.5 c 128,-1,32
 502 891 502 891 474.5 858.5 c 128,-1,33
 447 826 447 826 433 784.5 c 128,-1,34
 419 743 419 743 419 700 c 0,35,36
 419 656 419 656 433 614.5 c 128,-1,37
 447 573 447 573 475 541 c 128,-1,38
 503 509 503 509 544 489 c 128,-1,39
 585 469 585 469 639 469 c 0,20,21
EndSplineSet
EndChar

StartChar: yen
Encoding: 165 165 103
Width: 1292
Flags: W
LayerCount: 2
Fore
SplineSet
799 1414 m 1,0,-1
 1269 1414 l 1,1,-1
 966 864 l 1,2,-1
 1246 864 l 1,3,-1
 1246 608 l 1,4,-1
 846 608 l 1,5,-1
 846 448 l 1,6,-1
 1246 448 l 1,7,-1
 1246 192 l 1,8,-1
 846 192 l 1,9,-1
 846 0 l 1,10,-1
 446 0 l 1,11,-1
 446 192 l 1,12,-1
 46 192 l 1,13,-1
 46 448 l 1,14,-1
 446 448 l 1,15,-1
 446 608 l 1,16,-1
 46 608 l 1,17,-1
 46 864 l 1,18,-1
 326 864 l 1,19,-1
 23 1414 l 1,20,-1
 493 1414 l 1,21,-1
 646 1027 l 1,22,-1
 799 1414 l 1,0,-1
EndSplineSet
EndChar

StartChar: brokenbar
Encoding: 166 166 104
Width: 698
Flags: W
LayerCount: 2
Fore
SplineSet
162 1600 m 1,0,-1
 546 1600 l 1,1,-1
 546 864 l 1,2,-1
 162 864 l 1,3,-1
 162 1600 l 1,0,-1
162 640 m 1,4,-1
 546 640 l 1,5,-1
 546 -96 l 1,6,-1
 162 -96 l 1,7,-1
 162 640 l 1,4,-1
EndSplineSet
EndChar

StartChar: section
Encoding: 167 167 105
Width: 941
Flags: W
LayerCount: 2
Fore
SplineSet
14 1136 m 0,0,1
 14 1201 14 1201 46.5 1263 c 128,-1,2
 79 1325 79 1325 143 1373 c 128,-1,3
 207 1421 207 1421 301.5 1450 c 128,-1,4
 396 1479 396 1479 519 1479 c 0,5,6
 585 1479 585 1479 657.5 1466.5 c 128,-1,7
 730 1454 730 1454 812 1426 c 1,8,-1
 812 1177 l 1,9,10
 795 1185 795 1185 767 1192.5 c 128,-1,11
 739 1200 739 1200 704 1206 c 128,-1,12
 669 1212 669 1212 629 1215.5 c 128,-1,13
 589 1219 589 1219 549 1219 c 0,14,15
 515 1219 515 1219 483 1214 c 128,-1,16
 451 1209 451 1209 426 1197.5 c 128,-1,17
 401 1186 401 1186 386 1166 c 128,-1,18
 371 1146 371 1146 371 1116 c 0,19,20
 371 1096 371 1096 394 1081 c 128,-1,21
 417 1066 417 1066 454.5 1051.5 c 128,-1,22
 492 1037 492 1037 539.5 1021.5 c 128,-1,23
 587 1006 587 1006 637 986 c 128,-1,24
 687 966 687 966 734.5 940 c 128,-1,25
 782 914 782 914 819.5 878.5 c 128,-1,26
 857 843 857 843 880 796 c 128,-1,27
 903 749 903 749 903 687 c 0,28,29
 903 635 903 635 880 583 c 128,-1,30
 857 531 857 531 809 486 c 1,31,32
 836 464 836 464 858.5 437 c 128,-1,33
 881 410 881 410 897.5 376 c 128,-1,34
 914 342 914 342 923.5 301 c 128,-1,35
 933 260 933 260 933 211 c 0,36,37
 933 143 933 143 903.5 80 c 128,-1,38
 874 17 874 17 812.5 -32 c 128,-1,39
 751 -81 751 -81 657 -110 c 128,-1,40
 563 -139 563 -139 433 -139 c 0,41,42
 361 -139 361 -139 275 -129 c 128,-1,43
 189 -119 189 -119 95 -99 c 1,44,-1
 95 160 l 1,45,46
 198 136 198 136 275.5 125.5 c 128,-1,47
 353 115 353 115 413 115 c 0,48,49
 491 115 491 115 528 141 c 128,-1,50
 565 167 565 167 565 209 c 0,51,52
 565 229 565 229 541.5 244.5 c 128,-1,53
 518 260 518 260 480 274.5 c 128,-1,54
 442 289 442 289 393.5 304.5 c 128,-1,55
 345 320 345 320 294 340 c 128,-1,56
 243 360 243 360 194.5 386.5 c 128,-1,57
 146 413 146 413 108 448.5 c 128,-1,58
 70 484 70 484 46.5 531.5 c 128,-1,59
 23 579 23 579 23 641 c 0,60,61
 23 698 23 698 47.5 753.5 c 128,-1,62
 72 809 72 809 123 857 c 1,63,64
 75 902 75 902 44.5 968.5 c 128,-1,65
 14 1035 14 1035 14 1136 c 0,0,1
608 641 m 256,66,67
 608 659 608 659 586 675.5 c 128,-1,68
 564 692 564 692 526.5 709 c 128,-1,69
 489 726 489 726 440 743.5 c 128,-1,70
 391 761 391 761 337 781 c 1,71,72
 329 766 329 766 322 743 c 128,-1,73
 315 720 315 720 315 693 c 0,74,75
 315 676 315 676 337.5 661 c 128,-1,76
 360 646 360 646 397.5 630.5 c 128,-1,77
 435 615 435 615 484.5 599 c 128,-1,78
 534 583 534 583 588 565 c 1,79,80
 599 582 599 582 603.5 602.5 c 128,-1,81
 608 623 608 623 608 641 c 256,66,67
EndSplineSet
EndChar

StartChar: dieresis
Encoding: 168 168 106
Width: 1356
Flags: W
LayerCount: 2
Fore
SplineSet
386 1197 m 0,0,1
 335 1197 335 1197 296 1214.5 c 128,-1,2
 257 1232 257 1232 230.5 1260.5 c 128,-1,3
 204 1289 204 1289 191 1325 c 128,-1,4
 178 1361 178 1361 178 1399 c 256,5,6
 178 1437 178 1437 191 1473 c 128,-1,7
 204 1509 204 1509 230 1537.5 c 128,-1,8
 256 1566 256 1566 295 1583 c 128,-1,9
 334 1600 334 1600 386 1600 c 256,10,11
 438 1600 438 1600 477 1583 c 128,-1,12
 516 1566 516 1566 542 1537.5 c 128,-1,13
 568 1509 568 1509 581.5 1473 c 128,-1,14
 595 1437 595 1437 595 1399 c 256,15,16
 595 1361 595 1361 581.5 1325 c 128,-1,17
 568 1289 568 1289 542 1260.5 c 128,-1,18
 516 1232 516 1232 477 1214.5 c 128,-1,19
 438 1197 438 1197 386 1197 c 0,0,1
969 1197 m 0,20,21
 918 1197 918 1197 879 1214.5 c 128,-1,22
 840 1232 840 1232 813.5 1260.5 c 128,-1,23
 787 1289 787 1289 774 1325 c 128,-1,24
 761 1361 761 1361 761 1399 c 256,25,26
 761 1437 761 1437 774 1473 c 128,-1,27
 787 1509 787 1509 813 1537.5 c 128,-1,28
 839 1566 839 1566 878 1583 c 128,-1,29
 917 1600 917 1600 969 1600 c 256,30,31
 1021 1600 1021 1600 1060 1583 c 128,-1,32
 1099 1566 1099 1566 1125 1537.5 c 128,-1,33
 1151 1509 1151 1509 1164.5 1473 c 128,-1,34
 1178 1437 1178 1437 1178 1399 c 256,35,36
 1178 1361 1178 1361 1164.5 1325 c 128,-1,37
 1151 1289 1151 1289 1125 1260.5 c 128,-1,38
 1099 1232 1099 1232 1060 1214.5 c 128,-1,39
 1021 1197 1021 1197 969 1197 c 0,20,21
EndSplineSet
EndChar

StartChar: copyright
Encoding: 169 169 107
Width: 2312
Flags: W
LayerCount: 2
Fore
SplineSet
1156 88 m 0,0,1
 1260 88 1260 88 1347.5 112 c 128,-1,2
 1435 136 1435 136 1504.5 178.5 c 128,-1,3
 1574 221 1574 221 1626.5 279 c 128,-1,4
 1679 337 1679 337 1714 405 c 128,-1,5
 1749 473 1749 473 1766.5 548.5 c 128,-1,6
 1784 624 1784 624 1784 700 c 256,7,8
 1784 776 1784 776 1766.5 851.5 c 128,-1,9
 1749 927 1749 927 1714 995 c 128,-1,10
 1679 1063 1679 1063 1626.5 1121 c 128,-1,11
 1574 1179 1574 1179 1504.5 1221.5 c 128,-1,12
 1435 1264 1435 1264 1347.5 1288 c 128,-1,13
 1260 1312 1260 1312 1156 1312 c 0,14,15
 1051 1312 1051 1312 964 1288 c 128,-1,16
 877 1264 877 1264 807 1221.5 c 128,-1,17
 737 1179 737 1179 685 1121 c 128,-1,18
 633 1063 633 1063 598 995 c 128,-1,19
 563 927 563 927 545.5 851.5 c 128,-1,20
 528 776 528 776 528 700 c 0,21,22
 528 623 528 623 545.5 548 c 128,-1,23
 563 473 563 473 598 405 c 128,-1,24
 633 337 633 337 685 279 c 128,-1,25
 737 221 737 221 807 178.5 c 128,-1,26
 877 136 877 136 964 112 c 128,-1,27
 1051 88 1051 88 1156 88 c 0,0,1
1156 1541 m 256,28,29
 1306 1541 1306 1541 1430.5 1508 c 128,-1,30
 1555 1475 1555 1475 1655 1416.5 c 128,-1,31
 1755 1358 1755 1358 1830 1278 c 128,-1,32
 1905 1198 1905 1198 1955 1104.5 c 128,-1,33
 2005 1011 2005 1011 2030 908 c 128,-1,34
 2055 805 2055 805 2055 700 c 256,35,36
 2055 595 2055 595 2030 491.5 c 128,-1,37
 2005 388 2005 388 1955 294.5 c 128,-1,38
 1905 201 1905 201 1830 121.5 c 128,-1,39
 1755 42 1755 42 1655 -16.5 c 128,-1,40
 1555 -75 1555 -75 1430.5 -108 c 128,-1,41
 1306 -141 1306 -141 1156 -141 c 256,42,43
 1006 -141 1006 -141 881 -108 c 128,-1,44
 756 -75 756 -75 656 -16.5 c 128,-1,45
 556 42 556 42 481.5 121.5 c 128,-1,46
 407 201 407 201 357 294.5 c 128,-1,47
 307 388 307 388 282 491.5 c 128,-1,48
 257 595 257 595 257 700 c 256,49,50
 257 805 257 805 282 908 c 128,-1,51
 307 1011 307 1011 357 1104.5 c 128,-1,52
 407 1198 407 1198 481.5 1278 c 128,-1,53
 556 1358 556 1358 656 1416.5 c 128,-1,54
 756 1475 756 1475 881 1508 c 128,-1,55
 1006 1541 1006 1541 1156 1541 c 256,28,29
1175 238 m 0,56,57
 1083 238 1083 238 1002.5 268 c 128,-1,58
 922 298 922 298 862 357 c 128,-1,59
 802 416 802 416 767 505 c 128,-1,60
 732 594 732 594 732 713 c 0,61,62
 732 801 732 801 761 882.5 c 128,-1,63
 790 964 790 964 845.5 1026 c 128,-1,64
 901 1088 901 1088 981.5 1125 c 128,-1,65
 1062 1162 1062 1162 1165 1162 c 0,66,67
 1241 1162 1241 1162 1317 1146.5 c 128,-1,68
 1393 1131 1393 1131 1469 1096 c 1,69,-1
 1453 864 l 1,70,71
 1411 890 1411 890 1356 902.5 c 128,-1,72
 1301 915 1301 915 1250 915 c 0,73,74
 1206 915 1206 915 1169 901 c 128,-1,75
 1132 887 1132 887 1105.5 860 c 128,-1,76
 1079 833 1079 833 1064 793.5 c 128,-1,77
 1049 754 1049 754 1049 702 c 0,78,79
 1049 596 1049 596 1100.5 541 c 128,-1,80
 1152 486 1152 486 1243 486 c 0,81,82
 1354 486 1354 486 1457 538 c 1,83,-1
 1483 310 l 1,84,85
 1414 275 1414 275 1337 256.5 c 128,-1,86
 1260 238 1260 238 1175 238 c 0,56,57
EndSplineSet
EndChar

StartChar: ordfeminine
Encoding: 170 170 108
Width: 1034
Flags: W
LayerCount: 2
Fore
SplineSet
310 331 m 0,0,1
 263 331 263 331 220.5 344 c 128,-1,2
 178 357 178 357 145.5 384 c 128,-1,3
 113 411 113 411 93.5 452 c 128,-1,4
 74 493 74 493 74 549 c 0,5,6
 74 603 74 603 91.5 642.5 c 128,-1,7
 109 682 109 682 138.5 710.5 c 128,-1,8
 168 739 168 739 207.5 757.5 c 128,-1,9
 247 776 247 776 291.5 786.5 c 128,-1,10
 336 797 336 797 383 801 c 128,-1,11
 430 805 430 805 474 805 c 0,12,13
 505 805 505 805 533.5 803.5 c 128,-1,14
 562 802 562 802 586 800 c 1,15,16
 585 846 585 846 569 876.5 c 128,-1,17
 553 907 553 907 527 925 c 128,-1,18
 501 943 501 943 466 950 c 128,-1,19
 431 957 431 957 392 957 c 0,20,21
 356 957 356 957 318.5 952 c 128,-1,22
 281 947 281 947 245 940 c 128,-1,23
 209 933 209 933 177 925 c 128,-1,24
 145 917 145 917 121 911 c 1,25,-1
 121 1115 l 1,26,27
 156 1123 156 1123 197.5 1130.5 c 128,-1,28
 239 1138 239 1138 283 1143.5 c 128,-1,29
 327 1149 327 1149 373.5 1152.5 c 128,-1,30
 420 1156 420 1156 465 1156 c 0,31,32
 549 1156 549 1156 627.5 1140 c 128,-1,33
 706 1124 706 1124 767 1083.5 c 128,-1,34
 828 1043 828 1043 864.5 974 c 128,-1,35
 901 905 901 905 901 800 c 2,36,-1
 901 352 l 1,37,-1
 601 352 l 1,38,-1
 601 482 l 1,39,40
 584 447 584 447 552.5 419 c 128,-1,41
 521 391 521 391 481.5 371.5 c 128,-1,42
 442 352 442 352 397.5 341.5 c 128,-1,43
 353 331 353 331 310 331 c 0,0,1
433 502 m 0,44,45
 453 502 453 502 479.5 513 c 128,-1,46
 506 524 506 524 529.5 547.5 c 128,-1,47
 553 571 553 571 569.5 606.5 c 128,-1,48
 586 642 586 642 586 692 c 1,49,-1
 562 692 l 2,50,51
 527 692 527 692 490.5 684.5 c 128,-1,52
 454 677 454 677 423.5 662.5 c 128,-1,53
 393 648 393 648 373.5 627 c 128,-1,54
 354 606 354 606 354 578 c 0,55,56
 354 556 354 556 361 541.5 c 128,-1,57
 368 527 368 527 379.5 518 c 128,-1,58
 391 509 391 509 405 505.5 c 128,-1,59
 419 502 419 502 433 502 c 0,44,45
EndSplineSet
EndChar

StartChar: guillemotleft
Encoding: 171 171 109
Width: 1290
Flags: W
LayerCount: 2
Fore
SplineSet
591 250 m 1,0,-1
 93 600 l 1,1,-1
 93 900 l 1,2,-1
 591 1250 l 1,3,-1
 591 930 l 1,4,-1
 285 750 l 1,5,-1
 591 570 l 1,6,-1
 591 250 l 1,0,-1
1153 250 m 1,7,-1
 655 600 l 1,8,-1
 655 900 l 1,9,-1
 1153 1250 l 1,10,-1
 1153 930 l 1,11,-1
 847 750 l 1,12,-1
 1153 570 l 1,13,-1
 1153 250 l 1,7,-1
EndSplineSet
EndChar

StartChar: logicalnot
Encoding: 172 172 110
Width: 1176
Flags: W
LayerCount: 2
Fore
SplineSet
997 832 m 1,0,-1
 997 529 l 1,1,-1
 421 529 l 1,2,-1
 421 288 l 1,3,-1
 197 288 l 1,4,-1
 197 832 l 1,5,-1
 997 832 l 1,0,-1
EndSplineSet
EndChar

StartChar: registered
Encoding: 174 174 111
Width: 2312
Flags: W
LayerCount: 2
Fore
SplineSet
837 1157 m 1,0,-1
 1147 1157 l 2,1,2
 1248 1157 1248 1157 1324.5 1136.5 c 128,-1,3
 1401 1116 1401 1116 1452.5 1080.5 c 128,-1,4
 1504 1045 1504 1045 1530 998 c 128,-1,5
 1556 951 1556 951 1556 899 c 0,6,7
 1556 864 1556 864 1547.5 829.5 c 128,-1,8
 1539 795 1539 795 1517.5 764 c 128,-1,9
 1496 733 1496 733 1459 708 c 128,-1,10
 1422 683 1422 683 1365 668 c 1,11,12
 1377 613 1377 613 1398 559.5 c 128,-1,13
 1419 506 1419 506 1445 456 c 128,-1,14
 1471 406 1471 406 1500 359.5 c 128,-1,15
 1529 313 1529 313 1556 273 c 1,16,-1
 1267 273 l 1,17,18
 1235 329 1235 329 1200.5 417 c 128,-1,19
 1166 505 1166 505 1138 642 c 1,20,-1
 1101 642 l 1,21,-1
 1101 268 l 1,22,-1
 837 268 l 1,23,-1
 837 1157 l 1,0,-1
1122 779 m 2,24,25
 1170 779 1170 779 1202.5 787.5 c 128,-1,26
 1235 796 1235 796 1255.5 810 c 128,-1,27
 1276 824 1276 824 1284.5 842 c 128,-1,28
 1293 860 1293 860 1293 878 c 0,29,30
 1293 918 1293 918 1279.5 940.5 c 128,-1,31
 1266 963 1266 963 1242.5 974 c 128,-1,32
 1219 985 1219 985 1188 987.5 c 128,-1,33
 1157 990 1157 990 1121 990 c 2,34,-1
 1101 990 l 1,35,-1
 1101 779 l 1,36,-1
 1122 779 l 2,24,25
1156 88 m 0,37,38
 1260 88 1260 88 1347.5 112 c 128,-1,39
 1435 136 1435 136 1504.5 178.5 c 128,-1,40
 1574 221 1574 221 1626.5 279 c 128,-1,41
 1679 337 1679 337 1714 405 c 128,-1,42
 1749 473 1749 473 1766.5 548.5 c 128,-1,43
 1784 624 1784 624 1784 700 c 256,44,45
 1784 776 1784 776 1766.5 851.5 c 128,-1,46
 1749 927 1749 927 1714 995 c 128,-1,47
 1679 1063 1679 1063 1626.5 1121 c 128,-1,48
 1574 1179 1574 1179 1504.5 1221.5 c 128,-1,49
 1435 1264 1435 1264 1347.5 1288 c 128,-1,50
 1260 1312 1260 1312 1156 1312 c 0,51,52
 1051 1312 1051 1312 964 1288 c 128,-1,53
 877 1264 877 1264 807 1221.5 c 128,-1,54
 737 1179 737 1179 685 1121 c 128,-1,55
 633 1063 633 1063 598 995 c 128,-1,56
 563 927 563 927 545.5 851.5 c 128,-1,57
 528 776 528 776 528 700 c 0,58,59
 528 623 528 623 545.5 548 c 128,-1,60
 563 473 563 473 598 405 c 128,-1,61
 633 337 633 337 685 279 c 128,-1,62
 737 221 737 221 807 178.5 c 128,-1,63
 877 136 877 136 964 112 c 128,-1,64
 1051 88 1051 88 1156 88 c 0,37,38
1156 1541 m 256,65,66
 1304 1541 1304 1541 1427.5 1508 c 128,-1,67
 1551 1475 1551 1475 1650 1416.5 c 128,-1,68
 1749 1358 1749 1358 1823 1278 c 128,-1,69
 1897 1198 1897 1198 1946.5 1104.5 c 128,-1,70
 1996 1011 1996 1011 2020.5 908 c 128,-1,71
 2045 805 2045 805 2045 700 c 256,72,73
 2045 595 2045 595 2020.5 491.5 c 128,-1,74
 1996 388 1996 388 1946.5 294.5 c 128,-1,75
 1897 201 1897 201 1823 121.5 c 128,-1,76
 1749 42 1749 42 1650 -16.5 c 128,-1,77
 1551 -75 1551 -75 1427.5 -108 c 128,-1,78
 1304 -141 1304 -141 1156 -141 c 256,79,80
 1008 -141 1008 -141 884.5 -108 c 128,-1,81
 761 -75 761 -75 662 -16.5 c 128,-1,82
 563 42 563 42 488.5 121.5 c 128,-1,83
 414 201 414 201 364.5 294.5 c 128,-1,84
 315 388 315 388 290.5 491.5 c 128,-1,85
 266 595 266 595 266 700 c 256,86,87
 266 805 266 805 290.5 908 c 128,-1,88
 315 1011 315 1011 364.5 1104.5 c 128,-1,89
 414 1198 414 1198 488.5 1278 c 128,-1,90
 563 1358 563 1358 662 1416.5 c 128,-1,91
 761 1475 761 1475 884.5 1508 c 128,-1,92
 1008 1541 1008 1541 1156 1541 c 256,65,66
EndSplineSet
EndChar

StartChar: macron
Encoding: 175 175 112
Width: 987
Flags: W
LayerCount: 2
Fore
SplineSet
894 1545 m 1,0,-1
 894 1300 l 1,1,-1
 94 1300 l 1,2,-1
 94 1545 l 1,3,-1
 894 1545 l 1,0,-1
EndSplineSet
EndChar

StartChar: degree
Encoding: 176 176 113
Width: 991
Flags: W
LayerCount: 2
Fore
SplineSet
473 823 m 0,0,1
 396 823 396 823 338 849 c 128,-1,2
 280 875 280 875 241 918 c 128,-1,3
 202 961 202 961 182 1015 c 128,-1,4
 162 1069 162 1069 162 1126 c 0,5,6
 162 1182 162 1182 181.5 1236 c 128,-1,7
 201 1290 201 1290 240 1332 c 128,-1,8
 279 1374 279 1374 337 1400 c 128,-1,9
 395 1426 395 1426 473 1426 c 256,10,11
 551 1426 551 1426 609.5 1400 c 128,-1,12
 668 1374 668 1374 707 1332 c 128,-1,13
 746 1290 746 1290 766 1236 c 128,-1,14
 786 1182 786 1182 786 1126 c 0,15,16
 786 1069 786 1069 766 1015 c 128,-1,17
 746 961 746 961 707 918 c 128,-1,18
 668 875 668 875 609.5 849 c 128,-1,19
 551 823 551 823 473 823 c 0,0,1
472 983 m 256,20,21
 504 983 504 983 529 995 c 128,-1,22
 554 1007 554 1007 571 1027.5 c 128,-1,23
 588 1048 588 1048 597 1073.5 c 128,-1,24
 606 1099 606 1099 606 1126 c 256,25,26
 606 1153 606 1153 597.5 1178 c 128,-1,27
 589 1203 589 1203 572 1222.5 c 128,-1,28
 555 1242 555 1242 530 1254 c 128,-1,29
 505 1266 505 1266 472 1266 c 256,30,31
 439 1266 439 1266 414 1254 c 128,-1,32
 389 1242 389 1242 371.5 1222.5 c 128,-1,33
 354 1203 354 1203 345.5 1178 c 128,-1,34
 337 1153 337 1153 337 1126 c 256,35,36
 337 1099 337 1099 346 1073.5 c 128,-1,37
 355 1048 355 1048 372 1027.5 c 128,-1,38
 389 1007 389 1007 414.5 995 c 128,-1,39
 440 983 440 983 472 983 c 256,20,21
EndSplineSet
EndChar

StartChar: plusminus
Encoding: 177 177 114
Width: 1675
Flags: W
LayerCount: 2
Fore
SplineSet
397 604 m 1,0,-1
 197 604 l 1,1,-1
 197 860 l 1,2,-1
 397 860 l 1,3,-1
 397 1108 l 1,4,-1
 697 1108 l 1,5,-1
 697 860 l 1,6,-1
 897 860 l 1,7,-1
 897 604 l 1,8,-1
 697 604 l 1,9,-1
 697 360 l 1,10,-1
 397 360 l 1,11,-1
 397 604 l 1,0,-1
897 249 m 1,12,-1
 897 0 l 1,13,-1
 197 0 l 1,14,-1
 197 249 l 1,15,-1
 897 249 l 1,12,-1
EndSplineSet
EndChar

StartChar: twosuperior
Encoding: 178 178 115
Width: 1063
Flags: W
LayerCount: 2
Fore
SplineSet
474 614 m 1,0,-1
 883 614 l 1,1,-1
 883 350 l 1,2,-1
 168 350 l 1,3,-1
 128 616 l 1,4,5
 162 649 162 649 206.5 684.5 c 128,-1,6
 251 720 251 720 299 757 c 128,-1,7
 347 794 347 794 393 834 c 128,-1,8
 439 874 439 874 475.5 916 c 128,-1,9
 512 958 512 958 534 1003 c 128,-1,10
 556 1048 556 1048 556 1094 c 0,11,12
 556 1123 556 1123 543 1143 c 128,-1,13
 530 1163 530 1163 509.5 1175.5 c 128,-1,14
 489 1188 489 1188 463.5 1193 c 128,-1,15
 438 1198 438 1198 413 1198 c 0,16,17
 382 1198 382 1198 350.5 1193.5 c 128,-1,18
 319 1189 319 1189 289.5 1182.5 c 128,-1,19
 260 1176 260 1176 234.5 1167 c 128,-1,20
 209 1158 209 1158 192 1150 c 1,21,-1
 143 1391 l 1,22,23
 228 1420 228 1420 310.5 1430.5 c 128,-1,24
 393 1441 393 1441 467 1441 c 0,25,26
 576 1441 576 1441 656.5 1414.5 c 128,-1,27
 737 1388 737 1388 790 1344 c 128,-1,28
 843 1300 843 1300 868.5 1241 c 128,-1,29
 894 1182 894 1182 894 1117 c 0,30,31
 894 1046 894 1046 860.5 974 c 128,-1,32
 827 902 827 902 769.5 836.5 c 128,-1,33
 712 771 712 771 635.5 714 c 128,-1,34
 559 657 559 657 474 614 c 1,0,-1
EndSplineSet
EndChar

StartChar: threesuperior
Encoding: 179 179 116
Width: 1040
Flags: W
LayerCount: 2
Fore
SplineSet
249 993 m 1,0,1
 343 993 343 993 401.5 999.5 c 128,-1,2
 460 1006 460 1006 492 1019.5 c 128,-1,3
 524 1033 524 1033 535.5 1053.5 c 128,-1,4
 547 1074 547 1074 547 1102 c 0,5,6
 547 1133 547 1133 533.5 1155.5 c 128,-1,7
 520 1178 520 1178 497.5 1192 c 128,-1,8
 475 1206 475 1206 445.5 1212.5 c 128,-1,9
 416 1219 416 1219 384 1219 c 0,10,11
 353 1219 353 1219 319 1215.5 c 128,-1,12
 285 1212 285 1212 251.5 1204.5 c 128,-1,13
 218 1197 218 1197 185.5 1187 c 128,-1,14
 153 1177 153 1177 125 1164 c 1,15,-1
 125 1375 l 1,16,17
 198 1409 198 1409 275 1424.5 c 128,-1,18
 352 1440 352 1440 447 1441 c 1,19,20
 537 1440 537 1440 605 1427 c 128,-1,21
 673 1414 673 1414 722.5 1391.5 c 128,-1,22
 772 1369 772 1369 805 1339 c 128,-1,23
 838 1309 838 1309 858 1273 c 128,-1,24
 878 1237 878 1237 886 1198.5 c 128,-1,25
 894 1160 894 1160 894 1120 c 0,26,27
 894 1061 894 1061 874 1019 c 128,-1,28
 854 977 854 977 823.5 949.5 c 128,-1,29
 793 922 793 922 758 906.5 c 128,-1,30
 723 891 723 891 693 884 c 1,31,32
 727 878 727 878 766.5 863.5 c 128,-1,33
 806 849 806 849 840 820 c 128,-1,34
 874 791 874 791 896.5 746.5 c 128,-1,35
 919 702 919 702 919 636 c 0,36,37
 919 592 919 592 910 550 c 128,-1,38
 901 508 901 508 879.5 471 c 128,-1,39
 858 434 858 434 822 402.5 c 128,-1,40
 786 371 786 371 732.5 348.5 c 128,-1,41
 679 326 679 326 604.5 313.5 c 128,-1,42
 530 301 530 301 433 301 c 0,43,44
 344 301 344 301 269.5 314.5 c 128,-1,45
 195 328 195 328 125 357 c 1,46,-1
 125 577 l 1,47,48
 152 564 152 564 184.5 554 c 128,-1,49
 217 544 217 544 251 536.5 c 128,-1,50
 285 529 285 529 319.5 525.5 c 128,-1,51
 354 522 354 522 384 522 c 0,52,53
 415 522 415 522 444.5 528.5 c 128,-1,54
 474 535 474 535 497 551 c 128,-1,55
 520 567 520 567 533.5 591.5 c 128,-1,56
 547 616 547 616 547 653 c 0,57,58
 547 684 547 684 537 710 c 128,-1,59
 527 736 527 736 495.5 755 c 128,-1,60
 464 774 464 774 405.5 784.5 c 128,-1,61
 347 795 347 795 249 795 c 1,62,-1
 249 993 l 1,0,1
EndSplineSet
EndChar

StartChar: acute
Encoding: 180 180 117
Width: 1204
Flags: W
LayerCount: 2
Fore
SplineSet
330 1219 m 1,0,-1
 426 1853 l 1,1,-1
 874 1853 l 1,2,-1
 618 1219 l 1,3,-1
 330 1219 l 1,0,-1
EndSplineSet
EndChar

StartChar: mu
Encoding: 181 181 118
Width: 1517
Flags: W
LayerCount: 2
Fore
SplineSet
1361 0 m 1,0,-1
 930 0 l 1,1,-1
 939 69 l 2,2,3
 943 101 943 101 946 141 c 128,-1,4
 949 181 949 181 951 224 c 1,5,6
 921 165 921 165 875.5 118.5 c 128,-1,7
 830 72 830 72 775 39 c 128,-1,8
 720 6 720 6 658 -11 c 0,9,10
 610 -25 610 -25 562 -28 c 1,11,-1
 562 -352 l 1,12,-1
 145 -352 l 1,13,-1
 145 1079 l 1,14,-1
 577 1079 l 1,15,-1
 577 472 l 2,16,17
 577 410 577 410 588.5 368 c 128,-1,18
 600 326 600 326 620 300 c 128,-1,19
 640 274 640 274 666 262.5 c 128,-1,20
 692 251 692 251 721 251 c 0,21,22
 755 251 755 251 789.5 265 c 128,-1,23
 824 279 824 279 852.5 303 c 128,-1,24
 881 327 881 327 901.5 359.5 c 128,-1,25
 922 392 922 392 929 429 c 1,26,-1
 929 1079 l 1,27,-1
 1361 1079 l 1,28,-1
 1361 0 l 1,0,-1
EndSplineSet
EndChar

StartChar: paragraph
Encoding: 182 182 119
Width: 1451
Flags: W
LayerCount: 2
Fore
SplineSet
1334 0 m 1,0,-1
 1034 0 l 1,1,-1
 1034 1156 l 1,2,-1
 834 1156 l 1,3,-1
 834 0 l 1,4,-1
 534 0 l 1,5,-1
 534 704 l 1,6,7
 411 704 411 704 330 735 c 128,-1,8
 249 766 249 766 202 816 c 128,-1,9
 155 866 155 866 136 929 c 128,-1,10
 117 992 117 992 117 1055 c 0,11,12
 117 1131 117 1131 139.5 1197 c 128,-1,13
 162 1263 162 1263 220 1311 c 128,-1,14
 278 1359 278 1359 379 1386.5 c 128,-1,15
 480 1414 480 1414 638 1414 c 2,16,-1
 1334 1414 l 1,17,-1
 1334 0 l 1,0,-1
EndSplineSet
EndChar

StartChar: periodcentered
Encoding: 183 183 120
Width: 927
Flags: W
LayerCount: 2
Fore
SplineSet
465 502 m 0,0,1
 396 502 396 502 344 521 c 128,-1,2
 292 540 292 540 258 571.5 c 128,-1,3
 224 603 224 603 207 643.5 c 128,-1,4
 190 684 190 684 190 726 c 0,5,6
 190 770 190 770 208 812.5 c 128,-1,7
 226 855 226 855 260.5 888.5 c 128,-1,8
 295 922 295 922 346.5 942.5 c 128,-1,9
 398 963 398 963 466 963 c 0,10,11
 533 963 533 963 585 942.5 c 128,-1,12
 637 922 637 922 671.5 888.5 c 128,-1,13
 706 855 706 855 724 812.5 c 128,-1,14
 742 770 742 770 742 727 c 256,15,16
 742 684 742 684 725 643.5 c 128,-1,17
 708 603 708 603 673.5 571.5 c 128,-1,18
 639 540 639 540 587 521 c 128,-1,19
 535 502 535 502 465 502 c 0,0,1
EndSplineSet
EndChar

StartChar: cedilla
Encoding: 184 184 121
Width: 1029
Flags: W
LayerCount: 2
Fore
SplineSet
238 0 m 1,0,-1
 438 0 l 1,1,-1
 438 -100 l 1,2,3
 524 -100 524 -100 590 -129 c 128,-1,4
 656 -158 656 -158 700.5 -205.5 c 128,-1,5
 745 -253 745 -253 768 -313.5 c 128,-1,6
 791 -374 791 -374 791 -438 c 0,7,8
 791 -503 791 -503 766.5 -566 c 128,-1,9
 742 -629 742 -629 691 -678.5 c 128,-1,10
 640 -728 640 -728 562.5 -758 c 128,-1,11
 485 -788 485 -788 380 -788 c 0,12,13
 347 -788 347 -788 311.5 -784.5 c 128,-1,14
 276 -781 276 -781 238 -774 c 1,15,-1
 238 -478 l 1,16,17
 289 -487 289 -487 329 -487 c 0,18,19
 368 -487 368 -487 397.5 -476 c 128,-1,20
 427 -465 427 -465 446.5 -447.5 c 128,-1,21
 466 -430 466 -430 476 -407.5 c 128,-1,22
 486 -385 486 -385 486 -361 c 0,23,24
 486 -338 486 -338 476.5 -316 c 128,-1,25
 467 -294 467 -294 448.5 -276.5 c 128,-1,26
 430 -259 430 -259 401.5 -248.5 c 128,-1,27
 373 -238 373 -238 335 -238 c 0,28,29
 290 -238 290 -238 238 -256 c 1,30,-1
 238 0 l 1,0,-1
EndSplineSet
EndChar

StartChar: onesuperior
Encoding: 185 185 122
Width: 877
Flags: W
LayerCount: 2
Fore
SplineSet
661 347 m 1,0,-1
 313 347 l 1,1,-1
 313 1100 l 1,2,-1
 113 1059 l 1,3,-1
 113 1272 l 1,4,5
 141 1282 141 1282 173.5 1295.5 c 128,-1,6
 206 1309 206 1309 244.5 1327 c 128,-1,7
 283 1345 283 1345 328 1369.5 c 128,-1,8
 373 1394 373 1394 427 1426 c 1,9,-1
 661 1426 l 1,10,-1
 661 347 l 1,0,-1
EndSplineSet
EndChar

StartChar: ordmasculine
Encoding: 186 186 123
Width: 1135
Flags: W
LayerCount: 2
Fore
SplineSet
559 928 m 256,0,1
 487 928 487 928 459 882 c 128,-1,2
 431 836 431 836 431 751 c 0,3,4
 431 661 431 661 459 618.5 c 128,-1,5
 487 576 487 576 559 576 c 256,6,7
 631 576 631 576 659 618.5 c 128,-1,8
 687 661 687 661 687 751 c 0,9,10
 687 836 687 836 659 882 c 128,-1,11
 631 928 631 928 559 928 c 256,0,1
559 1120 m 256,12,13
 667 1120 667 1120 740.5 1088 c 128,-1,14
 814 1056 814 1056 859 1004.5 c 128,-1,15
 904 953 904 953 923.5 887 c 128,-1,16
 943 821 943 821 943 752 c 256,17,18
 943 683 943 683 924 617 c 128,-1,19
 905 551 905 551 861 499 c 128,-1,20
 817 447 817 447 746 415.5 c 128,-1,21
 675 384 675 384 570 384 c 0,22,23
 459 384 459 384 383 414 c 128,-1,24
 307 444 307 444 261 494.5 c 128,-1,25
 215 545 215 545 195 611.5 c 128,-1,26
 175 678 175 678 175 752 c 0,27,28
 175 821 175 821 194.5 887 c 128,-1,29
 214 953 214 953 259 1004.5 c 128,-1,30
 304 1056 304 1056 377.5 1088 c 128,-1,31
 451 1120 451 1120 559 1120 c 256,12,13
EndSplineSet
EndChar

StartChar: onequarter
Encoding: 188 188 125
Width: 2588
Flags: W
LayerCount: 2
Fore
SplineSet
1587 1441 m 1,0,-1
 1044 0 l 1,1,-1
 678 0 l 1,2,-1
 1195 1441 l 1,3,-1
 1587 1441 l 1,0,-1
661 347 m 1,4,-1
 313 347 l 1,5,-1
 313 1100 l 1,6,-1
 113 1059 l 1,7,-1
 113 1272 l 1,8,9
 141 1282 141 1282 173.5 1295.5 c 128,-1,10
 206 1309 206 1309 244.5 1327 c 128,-1,11
 283 1345 283 1345 328 1369.5 c 128,-1,12
 373 1394 373 1394 427 1426 c 1,13,-1
 661 1426 l 1,14,-1
 661 347 l 1,4,-1
2378 389 m 1,15,-1
 2553 389 l 1,16,-1
 2553 150 l 1,17,-1
 2378 150 l 1,18,-1
 2378 -54 l 1,19,-1
 1936 -54 l 1,20,-1
 1936 150 l 1,21,-1
 1434 150 l 1,22,-1
 1434 389 l 1,23,-1
 1782 1055 l 1,24,-1
 2378 1055 l 1,25,-1
 2378 389 l 1,15,-1
1972 836 m 1,26,-1
 1731 389 l 1,27,-1
 1996 389 l 1,28,-1
 1996 836 l 1,29,-1
 1972 836 l 1,26,-1
EndSplineSet
EndChar

StartChar: onehalf
Encoding: 189 189 126
Width: 2457
Flags: W
LayerCount: 2
Fore
SplineSet
1597 1441 m 1,0,-1
 1054 0 l 1,1,-1
 688 0 l 1,2,-1
 1205 1441 l 1,3,-1
 1597 1441 l 1,0,-1
661 347 m 1,4,-1
 313 347 l 1,5,-1
 313 1100 l 1,6,-1
 113 1059 l 1,7,-1
 113 1272 l 1,8,9
 141 1282 141 1282 173.5 1295.5 c 128,-1,10
 206 1309 206 1309 244.5 1327 c 128,-1,11
 283 1345 283 1345 328 1369.5 c 128,-1,12
 373 1394 373 1394 427 1426 c 1,13,-1
 661 1426 l 1,14,-1
 661 347 l 1,4,-1
1932 264 m 1,15,-1
 2341 264 l 1,16,-1
 2341 0 l 1,17,-1
 1626 0 l 1,18,-1
 1586 266 l 1,19,20
 1620 299 1620 299 1664.5 334.5 c 128,-1,21
 1709 370 1709 370 1757 407 c 128,-1,22
 1805 444 1805 444 1851 484 c 128,-1,23
 1897 524 1897 524 1933.5 566 c 128,-1,24
 1970 608 1970 608 1992 653 c 128,-1,25
 2014 698 2014 698 2014 744 c 0,26,27
 2014 773 2014 773 2001 793 c 128,-1,28
 1988 813 1988 813 1967.5 825.5 c 128,-1,29
 1947 838 1947 838 1921.5 843 c 128,-1,30
 1896 848 1896 848 1871 848 c 0,31,32
 1840 848 1840 848 1808.5 843.5 c 128,-1,33
 1777 839 1777 839 1747.5 832.5 c 128,-1,34
 1718 826 1718 826 1692.5 817 c 128,-1,35
 1667 808 1667 808 1650 800 c 1,36,-1
 1601 1041 l 1,37,38
 1686 1070 1686 1070 1768.5 1080.5 c 128,-1,39
 1851 1091 1851 1091 1925 1091 c 0,40,41
 2034 1091 2034 1091 2114.5 1064.5 c 128,-1,42
 2195 1038 2195 1038 2248 994 c 128,-1,43
 2301 950 2301 950 2326.5 891 c 128,-1,44
 2352 832 2352 832 2352 767 c 0,45,46
 2352 696 2352 696 2318.5 624 c 128,-1,47
 2285 552 2285 552 2227.5 486.5 c 128,-1,48
 2170 421 2170 421 2093.5 364 c 128,-1,49
 2017 307 2017 307 1932 264 c 1,15,-1
EndSplineSet
EndChar

StartChar: threequarters
Encoding: 190 190 127
Width: 2823
Flags: W
LayerCount: 2
Fore
SplineSet
1788 1441 m 1,0,-1
 1245 0 l 1,1,-1
 879 0 l 1,2,-1
 1396 1441 l 1,3,-1
 1788 1441 l 1,0,-1
2583 389 m 1,4,-1
 2758 389 l 1,5,-1
 2758 150 l 1,6,-1
 2583 150 l 1,7,-1
 2583 -54 l 1,8,-1
 2141 -54 l 1,9,-1
 2141 150 l 1,10,-1
 1639 150 l 1,11,-1
 1639 389 l 1,12,-1
 1987 1055 l 1,13,-1
 2583 1055 l 1,14,-1
 2583 389 l 1,4,-1
2177 836 m 1,15,-1
 1936 389 l 1,16,-1
 2201 389 l 1,17,-1
 2201 836 l 1,18,-1
 2177 836 l 1,15,-1
249 993 m 1,19,20
 343 993 343 993 401.5 999.5 c 128,-1,21
 460 1006 460 1006 492 1019.5 c 128,-1,22
 524 1033 524 1033 535.5 1053.5 c 128,-1,23
 547 1074 547 1074 547 1102 c 0,24,25
 547 1133 547 1133 533.5 1155.5 c 128,-1,26
 520 1178 520 1178 497.5 1192 c 128,-1,27
 475 1206 475 1206 445.5 1212.5 c 128,-1,28
 416 1219 416 1219 384 1219 c 0,29,30
 353 1219 353 1219 319 1215.5 c 128,-1,31
 285 1212 285 1212 251.5 1204.5 c 128,-1,32
 218 1197 218 1197 185.5 1187 c 128,-1,33
 153 1177 153 1177 125 1164 c 1,34,-1
 125 1375 l 1,35,36
 198 1409 198 1409 275 1424.5 c 128,-1,37
 352 1440 352 1440 447 1441 c 1,38,39
 537 1440 537 1440 605 1427 c 128,-1,40
 673 1414 673 1414 722.5 1391.5 c 128,-1,41
 772 1369 772 1369 805 1339 c 128,-1,42
 838 1309 838 1309 858 1273 c 128,-1,43
 878 1237 878 1237 886 1198.5 c 128,-1,44
 894 1160 894 1160 894 1120 c 0,45,46
 894 1061 894 1061 874 1019 c 128,-1,47
 854 977 854 977 823.5 949.5 c 128,-1,48
 793 922 793 922 758 906.5 c 128,-1,49
 723 891 723 891 693 884 c 1,50,51
 727 878 727 878 766.5 863.5 c 128,-1,52
 806 849 806 849 840 820 c 128,-1,53
 874 791 874 791 896.5 746.5 c 128,-1,54
 919 702 919 702 919 636 c 0,55,56
 919 592 919 592 910 550 c 128,-1,57
 901 508 901 508 879.5 471 c 128,-1,58
 858 434 858 434 822 402.5 c 128,-1,59
 786 371 786 371 732.5 348.5 c 128,-1,60
 679 326 679 326 604.5 313.5 c 128,-1,61
 530 301 530 301 433 301 c 0,62,63
 344 301 344 301 269.5 314.5 c 128,-1,64
 195 328 195 328 125 357 c 1,65,-1
 125 577 l 1,66,67
 152 564 152 564 184.5 554 c 128,-1,68
 217 544 217 544 251 536.5 c 128,-1,69
 285 529 285 529 319.5 525.5 c 128,-1,70
 354 522 354 522 384 522 c 0,71,72
 415 522 415 522 444.5 528.5 c 128,-1,73
 474 535 474 535 497 551 c 128,-1,74
 520 567 520 567 533.5 591.5 c 128,-1,75
 547 616 547 616 547 653 c 0,76,77
 547 684 547 684 537 710 c 128,-1,78
 527 736 527 736 495.5 755 c 128,-1,79
 464 774 464 774 405.5 784.5 c 128,-1,80
 347 795 347 795 249 795 c 1,81,-1
 249 993 l 1,19,20
EndSplineSet
EndChar

StartChar: questiondown
Encoding: 191 191 128
Width: 1336
Flags: W
LayerCount: 2
Fore
SplineSet
989 642 m 1,0,1
 880 633 880 633 802.5 619 c 128,-1,2
 725 605 725 605 673 587 c 128,-1,3
 621 569 621 569 590 548 c 128,-1,4
 559 527 559 527 543 503.5 c 128,-1,5
 527 480 527 480 522.5 454.5 c 128,-1,6
 518 429 518 429 518 402 c 0,7,8
 518 366 518 366 531.5 336.5 c 128,-1,9
 545 307 545 307 568.5 286 c 128,-1,10
 592 265 592 265 623 253.5 c 128,-1,11
 654 242 654 242 688 242 c 0,12,13
 716 242 716 242 742.5 251 c 128,-1,14
 769 260 769 260 790 279 c 128,-1,15
 811 298 811 298 824 326 c 128,-1,16
 837 354 837 354 838 392 c 1,17,-1
 1169 392 l 1,18,19
 1169 302 1169 302 1136 224.5 c 128,-1,20
 1103 147 1103 147 1038.5 91 c 128,-1,21
 974 35 974 35 878.5 3 c 128,-1,22
 783 -29 783 -29 658 -29 c 0,23,24
 523 -29 523 -29 426 6 c 128,-1,25
 329 41 329 41 267 99.5 c 128,-1,26
 205 158 205 158 176 234 c 128,-1,27
 147 310 147 310 147 392 c 0,28,29
 147 465 147 465 177 535.5 c 128,-1,30
 207 606 207 606 267 664 c 128,-1,31
 327 722 327 722 417 762 c 128,-1,32
 507 802 507 802 628 813 c 1,33,-1
 628 963 l 1,34,-1
 959 963 l 1,35,-1
 989 642 l 1,0,1
773 1441 m 0,36,37
 830 1441 830 1441 872.5 1425.5 c 128,-1,38
 915 1410 915 1410 943 1384.5 c 128,-1,39
 971 1359 971 1359 985 1326 c 128,-1,40
 999 1293 999 1293 999 1259 c 256,41,42
 999 1225 999 1225 984.5 1192 c 128,-1,43
 970 1159 970 1159 941.5 1133.5 c 128,-1,44
 913 1108 913 1108 870.5 1092.5 c 128,-1,45
 828 1077 828 1077 773 1077 c 256,46,47
 718 1077 718 1077 675.5 1092.5 c 128,-1,48
 633 1108 633 1108 604.5 1133.5 c 128,-1,49
 576 1159 576 1159 561.5 1191.5 c 128,-1,50
 547 1224 547 1224 547 1258 c 0,51,52
 547 1293 547 1293 560.5 1326 c 128,-1,53
 574 1359 574 1359 602 1384.5 c 128,-1,54
 630 1410 630 1410 672.5 1425.5 c 128,-1,55
 715 1441 715 1441 773 1441 c 0,36,37
EndSplineSet
EndChar

StartChar: AE
Encoding: 198 198 135
Width: 1978
Flags: W
LayerCount: 2
Fore
SplineSet
1935 0 m 1,0,-1
 850 0 l 1,1,-1
 827 301 l 1,2,-1
 476 301 l 1,3,-1
 370 0 l 1,4,-1
 10 0 l 1,5,-1
 570 1414 l 1,6,-1
 1732 1414 l 1,7,-1
 1770 1152 l 1,8,-1
 1231 1152 l 1,9,-1
 1270 853 l 1,10,-1
 1748 853 l 1,11,-1
 1786 597 l 1,12,-1
 1306 597 l 1,13,-1
 1350 288 l 1,14,-1
 1894 288 l 1,15,-1
 1935 0 l 1,0,-1
783 1194 m 1,16,-1
 552 535 l 1,17,-1
 838 535 l 1,18,-1
 814 1194 l 1,19,-1
 783 1194 l 1,16,-1
EndSplineSet
EndChar

StartChar: Eth
Encoding: 208 208 145
Width: 1539
Flags: W
LayerCount: 2
Fore
SplineSet
170 0 m 1,0,-1
 170 592 l 1,1,-1
 0 592 l 1,2,-1
 0 832 l 1,3,-1
 170 832 l 1,4,-1
 170 1414 l 1,5,-1
 662 1414 l 2,6,7
 844 1414 844 1414 989 1371.5 c 128,-1,8
 1134 1329 1134 1329 1234.5 1242.5 c 128,-1,9
 1335 1156 1335 1156 1388.5 1025.5 c 128,-1,10
 1442 895 1442 895 1442 719 c 0,11,12
 1442 585 1442 585 1414.5 479.5 c 128,-1,13
 1387 374 1387 374 1336.5 294 c 128,-1,14
 1286 214 1286 214 1214.5 158.5 c 128,-1,15
 1143 103 1143 103 1056 67.5 c 128,-1,16
 969 32 969 32 868.5 16 c 128,-1,17
 768 0 768 0 658 0 c 2,18,-1
 170 0 l 1,0,-1
618 320 m 1,19,-1
 648 320 l 2,20,21
 726 320 726 320 790 334.5 c 128,-1,22
 854 349 854 349 899.5 392 c 128,-1,23
 945 435 945 435 969.5 513 c 128,-1,24
 994 591 994 591 994 719 c 0,25,26
 994 835 994 835 972 912.5 c 128,-1,27
 950 990 950 990 907 1036.5 c 128,-1,28
 864 1083 864 1083 801 1102.5 c 128,-1,29
 738 1122 738 1122 657 1122 c 2,30,-1
 618 1122 l 1,31,-1
 618 832 l 1,32,-1
 800 832 l 1,33,-1
 800 592 l 1,34,-1
 618 592 l 1,35,-1
 618 320 l 1,19,-1
EndSplineSet
EndChar

StartChar: multiply
Encoding: 215 215 152
Width: 1271
Flags: W
LayerCount: 2
Fore
SplineSet
850 684 m 1,0,-1
 1045 490 l 1,1,-1
 832 277 l 1,2,-1
 638 471 l 1,3,-1
 444 277 l 1,4,-1
 231 490 l 1,5,-1
 425 684 l 1,6,-1
 231 879 l 1,7,-1
 444 1092 l 1,8,-1
 638 897 l 1,9,-1
 832 1092 l 1,10,-1
 1045 879 l 1,11,-1
 850 684 l 1,0,-1
EndSplineSet
EndChar

StartChar: Oslash
Encoding: 216 216 153
Width: 1593
Flags: W
LayerCount: 2
Fore
SplineSet
795 -29 m 256,0,1
 664 -29 664 -29 561 0 c 1,2,-1
 560 0 l 1,3,-1
 455 -200 l 1,4,-1
 255 -100 l 1,5,-1
 357 93 l 1,6,7
 293 139 293 139 246 198 c 1,8,9
 192 268 192 268 157.5 349.5 c 128,-1,10
 123 431 123 431 107.5 521 c 128,-1,11
 92 611 92 611 92 704 c 0,12,13
 92 796 92 796 111 886.5 c 128,-1,14
 130 977 130 977 168 1059 c 128,-1,15
 206 1141 206 1141 264 1211 c 128,-1,16
 322 1281 322 1281 400 1332 c 128,-1,17
 478 1383 478 1383 576.5 1412 c 128,-1,18
 675 1441 675 1441 795 1441 c 256,19,20
 915 1441 915 1441 1013 1412 c 0,21,22
 1032 1406 1032 1406 1049 1400 c 1,23,-1
 1155 1600 l 1,24,-1
 1355 1500 l 1,25,-1
 1245 1292 l 1,26,27
 1290 1255 1290 1255 1327 1211 c 0,28,29
 1385 1141 1385 1141 1423.5 1059 c 128,-1,30
 1462 977 1462 977 1481 886.5 c 128,-1,31
 1500 796 1500 796 1500 704 c 0,32,33
 1500 611 1500 611 1484 521 c 128,-1,34
 1468 431 1468 431 1433.5 349.5 c 128,-1,35
 1399 268 1399 268 1344 198.5 c 128,-1,36
 1289 129 1289 129 1211 78.5 c 128,-1,37
 1133 28 1133 28 1029.5 -0.5 c 128,-1,38
 926 -29 926 -29 795 -29 c 256,0,1
540 704 m 256,39,40
 540 584 540 584 557 499 c 0,41,42
 559 489 559 489 562 479 c 1,43,-1
 905 1128 l 1,44,45
 904 1129 904 1129 902 1130 c 0,46,47
 855 1156 855 1156 795 1156 c 256,48,49
 735 1156 735 1156 687.5 1130 c 128,-1,50
 640 1104 640 1104 607.5 1049.5 c 128,-1,51
 575 995 575 995 557.5 909.5 c 128,-1,52
 540 824 540 824 540 704 c 256,39,40
795 256 m 0,53,54
 855 256 855 256 902.5 281 c 128,-1,55
 950 306 950 306 983.5 360 c 128,-1,56
 1017 414 1017 414 1034.5 499 c 128,-1,57
 1052 584 1052 584 1052 704 c 0,58,59
 1052 817 1052 817 1036 899 c 1,60,-1
 705 272 l 1,61,62
 746 256 746 256 795 256 c 0,53,54
EndSplineSet
EndChar

StartChar: Thorn
Encoding: 222 222 159
Width: 1487
Flags: W
LayerCount: 2
Fore
SplineSet
170 1414 m 1,0,-1
 618 1414 l 1,1,-1
 618 1280 l 1,2,-1
 716 1280 l 2,3,4
 851 1280 851 1280 953 1262.5 c 128,-1,5
 1055 1245 1055 1245 1129.5 1213.5 c 128,-1,6
 1204 1182 1204 1182 1253.5 1137.5 c 128,-1,7
 1303 1093 1303 1093 1332.5 1040 c 128,-1,8
 1362 987 1362 987 1374 926 c 128,-1,9
 1386 865 1386 865 1386 800 c 0,10,11
 1386 717 1386 717 1357.5 637 c 128,-1,12
 1329 557 1329 557 1259.5 493.5 c 128,-1,13
 1190 430 1190 430 1072.5 391 c 128,-1,14
 955 352 955 352 778 352 c 2,15,-1
 618 352 l 1,16,-1
 618 0 l 1,17,-1
 170 0 l 1,18,-1
 170 1414 l 1,0,-1
618 576 m 1,19,-1
 746 576 l 2,20,21
 818 576 818 576 867 593.5 c 128,-1,22
 916 611 916 611 946 641 c 128,-1,23
 976 671 976 671 989 712 c 128,-1,24
 1002 753 1002 753 1002 800 c 0,25,26
 1002 866 1002 866 983 909 c 128,-1,27
 964 952 964 952 929.5 977.5 c 128,-1,28
 895 1003 895 1003 848 1013.5 c 128,-1,29
 801 1024 801 1024 746 1024 c 2,30,-1
 618 1024 l 1,31,-1
 618 576 l 1,19,-1
EndSplineSet
EndChar

StartChar: germandbls
Encoding: 223 223 160
Width: 1491
Flags: W
LayerCount: 2
Fore
SplineSet
589 0 m 1,0,-1
 157 0 l 1,1,-1
 156 1008 l 2,2,3
 156 1099 156 1099 183 1166 c 128,-1,4
 210 1233 210 1233 256 1281.5 c 128,-1,5
 302 1330 302 1330 363 1361 c 128,-1,6
 424 1392 424 1392 492.5 1409.5 c 128,-1,7
 561 1427 561 1427 633 1434 c 128,-1,8
 705 1441 705 1441 773 1441 c 0,9,10
 924 1441 924 1441 1032.5 1410.5 c 128,-1,11
 1141 1380 1141 1380 1210.5 1330.5 c 128,-1,12
 1280 1281 1280 1281 1312.5 1218 c 128,-1,13
 1345 1155 1345 1155 1345 1089 c 0,14,15
 1345 1041 1345 1041 1328.5 992 c 128,-1,16
 1312 943 1312 943 1281 899 c 128,-1,17
 1250 855 1250 855 1205 819.5 c 128,-1,18
 1160 784 1160 784 1102 762 c 1,19,20
 1195 752 1195 752 1267 719 c 128,-1,21
 1339 686 1339 686 1388.5 637.5 c 128,-1,22
 1438 589 1438 589 1463.5 529 c 128,-1,23
 1489 469 1489 469 1489 405 c 0,24,25
 1489 323 1489 323 1445 242 c 128,-1,26
 1401 161 1401 161 1308.5 96 c 128,-1,27
 1216 31 1216 31 1073.5 -9.5 c 128,-1,28
 931 -50 931 -50 735 -50 c 1,29,-1
 735 200 l 1,30,31
 817 200 817 200 878 216.5 c 128,-1,32
 939 233 939 233 980 260.5 c 128,-1,33
 1021 288 1021 288 1041.5 323 c 128,-1,34
 1062 358 1062 358 1062 394 c 0,35,36
 1062 429 1062 429 1042.5 463 c 128,-1,37
 1023 497 1023 497 984 523.5 c 128,-1,38
 945 550 945 550 886.5 566 c 128,-1,39
 828 582 828 582 751 582 c 1,40,-1
 751 828 l 1,41,42
 813 828 813 828 858 845 c 128,-1,43
 903 862 903 862 932 888 c 128,-1,44
 961 914 961 914 974.5 946.5 c 128,-1,45
 988 979 988 979 988 1010 c 0,46,47
 988 1088 988 1088 944.5 1134 c 128,-1,48
 901 1180 901 1180 808 1180 c 0,49,50
 705 1180 705 1180 647.5 1134 c 128,-1,51
 590 1088 590 1088 589 1010 c 1,52,-1
 589 0 l 1,0,-1
EndSplineSet
EndChar

StartChar: ae
Encoding: 230 230 167
Width: 1978
Flags: W
LayerCount: 2
Fore
SplineSet
1874 43 m 1,0,1
 1780 12 1780 12 1671 -8.5 c 128,-1,2
 1562 -29 1562 -29 1444 -29 c 0,3,4
 1300 -29 1300 -29 1173 12.5 c 128,-1,5
 1046 54 1046 54 955 144 c 1,6,7
 913 103 913 103 852.5 70.5 c 128,-1,8
 792 38 792 38 721 16 c 128,-1,9
 650 -6 650 -6 572 -17.5 c 128,-1,10
 494 -29 494 -29 416 -29 c 0,11,12
 352 -29 352 -29 293.5 -11 c 128,-1,13
 235 7 235 7 190 44 c 128,-1,14
 145 81 145 81 118.5 137.5 c 128,-1,15
 92 194 92 194 92 271 c 0,16,17
 92 345 92 345 116 399.5 c 128,-1,18
 140 454 140 454 180.5 493 c 128,-1,19
 221 532 221 532 275.5 557.5 c 128,-1,20
 330 583 330 583 391 597.5 c 128,-1,21
 452 612 452 612 516.5 617.5 c 128,-1,22
 581 623 581 623 642 623 c 0,23,24
 684 623 684 623 723 621 c 128,-1,25
 762 619 762 619 796 616 c 1,26,27
 794 679 794 679 772 720.5 c 128,-1,28
 750 762 750 762 714 786.5 c 128,-1,29
 678 811 678 811 630 821 c 128,-1,30
 582 831 582 831 529 831 c 0,31,32
 480 831 480 831 428.5 824.5 c 128,-1,33
 377 818 377 818 328 808.5 c 128,-1,34
 279 799 279 799 234.5 788 c 128,-1,35
 190 777 190 777 156 768 c 1,36,-1
 156 1048 l 1,37,38
 205 1059 205 1059 261.5 1069.5 c 128,-1,39
 318 1080 318 1080 379 1088 c 128,-1,40
 440 1096 440 1096 503.5 1101 c 128,-1,41
 567 1106 567 1106 629 1106 c 0,42,43
 750 1106 750 1106 861.5 1081.5 c 128,-1,44
 973 1057 973 1057 1058 996 c 1,45,46
 1144 1050 1144 1050 1242.5 1078 c 128,-1,47
 1341 1106 1341 1106 1438 1106 c 0,48,49
 1553 1106 1553 1106 1641 1080.5 c 128,-1,50
 1729 1055 1729 1055 1787.5 1012 c 128,-1,51
 1846 969 1846 969 1876 912 c 128,-1,52
 1906 855 1906 855 1906 791 c 0,53,54
 1906 713 1906 713 1879.5 658 c 128,-1,55
 1853 603 1853 603 1808.5 565.5 c 128,-1,56
 1764 528 1764 528 1705.5 506.5 c 128,-1,57
 1647 485 1647 485 1582 473.5 c 128,-1,58
 1517 462 1517 462 1449.5 459 c 128,-1,59
 1382 456 1382 456 1321 456 c 0,60,61
 1300 456 1300 456 1280.5 456.5 c 128,-1,62
 1261 457 1261 457 1242 457 c 1,63,64
 1250 400 1250 400 1273.5 361 c 128,-1,65
 1297 322 1297 322 1332.5 297.5 c 128,-1,66
 1368 273 1368 273 1414.5 262.5 c 128,-1,67
 1461 252 1461 252 1514 252 c 0,68,69
 1554 252 1554 252 1599.5 258 c 128,-1,70
 1645 264 1645 264 1691.5 274.5 c 128,-1,71
 1738 285 1738 285 1784.5 298.5 c 128,-1,72
 1831 312 1831 312 1874 327 c 1,73,-1
 1874 43 l 1,0,1
1233 611 m 1,74,75
 1257 612 1257 612 1294.5 614 c 128,-1,76
 1332 616 1332 616 1374 621 c 128,-1,77
 1416 626 1416 626 1458 635 c 128,-1,78
 1500 644 1500 644 1534 658 c 128,-1,79
 1568 672 1568 672 1589 693 c 128,-1,80
 1610 714 1610 714 1610 744 c 0,81,82
 1610 795 1610 795 1569.5 825.5 c 128,-1,83
 1529 856 1529 856 1457 856 c 0,84,85
 1424 856 1424 856 1386 846.5 c 128,-1,86
 1348 837 1348 837 1315 810 c 128,-1,87
 1282 783 1282 783 1259 735 c 128,-1,88
 1236 687 1236 687 1233 611 c 1,74,75
585 206 m 0,89,90
 613 206 613 206 649.5 221.5 c 128,-1,91
 686 237 686 237 718.5 269 c 128,-1,92
 751 301 751 301 773.5 350 c 128,-1,93
 796 399 796 399 796 467 c 1,94,-1
 763 467 l 2,95,96
 715 467 715 467 664.5 457 c 128,-1,97
 614 447 614 447 572 427 c 128,-1,98
 530 407 530 407 503 378 c 128,-1,99
 476 349 476 349 476 311 c 0,100,101
 476 281 476 281 486 261 c 128,-1,102
 496 241 496 241 511.5 228.5 c 128,-1,103
 527 216 527 216 546.5 211 c 128,-1,104
 566 206 566 206 585 206 c 0,89,90
EndSplineSet
EndChar

StartChar: eth
Encoding: 240 240 177
Width: 1391
Flags: W
LayerCount: 2
Fore
SplineSet
761 1105 m 1,0,1
 755 1108 755 1108 745 1112 c 0,2,3
 737 1116 737 1116 724.5 1120.5 c 128,-1,4
 712 1125 712 1125 696 1133 c 1,5,6
 650 1138 650 1138 626 1141 c 128,-1,7
 602 1144 602 1144 598 1144 c 0,8,9
 524 1145 524 1145 465.5 1131 c 128,-1,10
 407 1117 407 1117 363 1107 c 0,11,12
 318 1096 318 1096 288 1086 c 128,-1,13
 258 1076 258 1076 240 1070 c 1,14,-1
 208 1377 l 1,15,16
 375 1441 375 1441 620 1441 c 0,17,18
 795 1441 795 1441 912.5 1396 c 128,-1,19
 1030 1351 1030 1351 1102 1271 c 1,20,-1
 1351 1373 l 1,21,-1
 1433 1195 l 1,22,-1
 1195 1098 l 1,23,24
 1227 1005 1227 1005 1245.5 893 c 128,-1,25
 1264 781 1264 781 1264 663 c 0,26,27
 1264 569 1264 569 1254 480.5 c 128,-1,28
 1244 392 1244 392 1218 315 c 128,-1,29
 1192 238 1192 238 1147 174 c 128,-1,30
 1102 110 1102 110 1031 64 c 128,-1,31
 960 18 960 18 861 -7 c 128,-1,32
 762 -32 762 -32 629 -32 c 0,33,34
 519 -32 519 -32 435.5 -14.5 c 128,-1,35
 352 3 352 3 291 34 c 128,-1,36
 230 65 230 65 189.5 107 c 128,-1,37
 149 149 149 149 124.5 197.5 c 128,-1,38
 100 246 100 246 90 299 c 128,-1,39
 80 352 80 352 80 406 c 0,40,41
 80 498 80 498 118.5 571.5 c 128,-1,42
 157 645 157 645 221 696 c 128,-1,43
 285 747 285 747 368 774.5 c 128,-1,44
 451 802 451 802 540 802 c 0,45,46
 615 802 615 802 694 784.5 c 128,-1,47
 773 767 773 767 848 738 c 1,48,49
 848 757 848 757 845 786 c 128,-1,50
 842 815 842 815 838.5 845 c 128,-1,51
 835 875 835 875 830.5 901 c 128,-1,52
 826 927 826 927 823 941 c 1,53,-1
 665 855 l 1,54,-1
 575 991 l 1,55,-1
 761 1105 l 1,0,1
656 577 m 2,56,57
 602 577 602 577 565.5 563.5 c 128,-1,58
 529 550 529 550 506.5 526.5 c 128,-1,59
 484 503 484 503 474 472.5 c 128,-1,60
 464 442 464 442 464 409 c 256,61,62
 464 376 464 376 473.5 343 c 128,-1,63
 483 310 483 310 502.5 283.5 c 128,-1,64
 522 257 522 257 552 241 c 128,-1,65
 582 225 582 225 624 225 c 0,66,67
 678 225 678 225 719.5 235 c 128,-1,68
 761 245 761 245 789.5 281 c 128,-1,69
 818 317 818 317 833 387 c 128,-1,70
 848 457 848 457 848 577 c 1,71,-1
 656 577 l 2,56,57
EndSplineSet
EndChar

StartChar: divide
Encoding: 247 247 184
Width: 1146
Flags: W
LayerCount: 2
Fore
SplineSet
581 8 m 0,0,1
 537 8 537 8 505 22 c 128,-1,2
 473 36 473 36 452 58.5 c 128,-1,3
 431 81 431 81 421 110 c 128,-1,4
 411 139 411 139 411 168 c 0,5,6
 411 198 411 198 422 226.5 c 128,-1,7
 433 255 433 255 454 277.5 c 128,-1,8
 475 300 475 300 507 314 c 128,-1,9
 539 328 539 328 581 328 c 256,10,11
 623 328 623 328 655 314 c 128,-1,12
 687 300 687 300 708.5 277.5 c 128,-1,13
 730 255 730 255 741 226.5 c 128,-1,14
 752 198 752 198 752 168 c 0,15,16
 752 139 752 139 741.5 110 c 128,-1,17
 731 81 731 81 709.5 58.5 c 128,-1,18
 688 36 688 36 656 22 c 128,-1,19
 624 8 624 8 581 8 c 0,0,1
581 800 m 0,20,21
 537 800 537 800 505 814 c 128,-1,22
 473 828 473 828 452 851 c 128,-1,23
 431 874 431 874 421 902.5 c 128,-1,24
 411 931 411 931 411 960 c 0,25,26
 411 990 411 990 422 1018.5 c 128,-1,27
 433 1047 433 1047 454 1069.5 c 128,-1,28
 475 1092 475 1092 507 1106 c 128,-1,29
 539 1120 539 1120 581 1120 c 256,30,31
 623 1120 623 1120 655 1106 c 128,-1,32
 687 1092 687 1092 708.5 1069.5 c 128,-1,33
 730 1047 730 1047 741 1018.5 c 128,-1,34
 752 990 752 990 752 960 c 0,35,36
 752 931 752 931 741.5 902.5 c 128,-1,37
 731 874 731 874 709.5 851 c 128,-1,38
 688 828 688 828 656 814 c 128,-1,39
 624 800 624 800 581 800 c 0,20,21
965 704 m 1,40,-1
 965 480 l 1,41,-1
 197 480 l 1,42,-1
 197 704 l 1,43,-1
 965 704 l 1,40,-1
EndSplineSet
EndChar

StartChar: oslash
Encoding: 248 248 185
Width: 1408
Flags: W
LayerCount: 2
Fore
SplineSet
704 -29 m 0,0,1
 599 -29 599 -29 515 -11 c 1,2,-1
 408 -215 l 1,3,-1
 259 -142 l 1,4,-1
 354 42 l 1,5,6
 343 48 343 48 333 54 c 0,7,8
 264 93 264 93 215.5 146.5 c 128,-1,9
 167 200 167 200 137 263 c 128,-1,10
 107 326 107 326 93.5 396 c 128,-1,11
 80 466 80 466 80 538 c 0,12,13
 80 609 80 609 93.5 678.5 c 128,-1,14
 107 748 107 748 137 811.5 c 128,-1,15
 167 875 167 875 215 928.5 c 128,-1,16
 263 982 263 982 332.5 1021.5 c 128,-1,17
 402 1061 402 1061 494 1083.5 c 128,-1,18
 586 1106 586 1106 704 1106 c 0,19,20
 808 1106 808 1106 892 1088 c 1,21,-1
 1010 1318 l 1,22,-1
 1172 1232 l 1,23,-1
 1064 1028 l 1,24,25
 1070 1024 1070 1024 1075 1021 c 0,26,27
 1145 982 1145 982 1193 928.5 c 128,-1,28
 1241 875 1241 875 1271 811.5 c 128,-1,29
 1301 748 1301 748 1314.5 678.5 c 128,-1,30
 1328 609 1328 609 1328 538 c 0,31,32
 1328 466 1328 466 1314.5 396 c 128,-1,33
 1301 326 1301 326 1271 263 c 128,-1,34
 1241 200 1241 200 1192.5 146.5 c 128,-1,35
 1144 93 1144 93 1075 54 c 128,-1,36
 1006 15 1006 15 914 -7 c 128,-1,37
 822 -29 822 -29 704 -29 c 0,0,1
512 538 m 256,38,39
 512 484 512 484 522 432 c 0,40,41
 526 410 526 410 532 390 c 1,42,-1
 753 820 l 1,43,44
 731 826 731 826 704 826 c 0,45,46
 650 826 650 826 613.5 801 c 128,-1,47
 577 776 577 776 554.5 735.5 c 128,-1,48
 532 695 532 695 522 643.5 c 128,-1,49
 512 592 512 592 512 538 c 256,38,39
704 251 m 0,50,51
 758 251 758 251 794.5 275.5 c 128,-1,52
 831 300 831 300 853.5 340.5 c 128,-1,53
 876 381 876 381 886 432.5 c 128,-1,54
 896 484 896 484 896 538 c 256,55,56
 896 592 896 592 886 643 c 0,57,58
 883 660 883 660 878 675 c 1,59,-1
 657 256 l 1,60,61
 678 251 678 251 704 251 c 0,50,51
EndSplineSet
EndChar

StartChar: thorn
Encoding: 254 254 191
Width: 1487
Flags: W
LayerCount: 2
Fore
SplineSet
156 1414 m 1,0,-1
 604 1414 l 1,1,-1
 604 963 l 1,2,3
 625 1001 625 1001 660.5 1036 c 128,-1,4
 696 1071 696 1071 742 1097.5 c 128,-1,5
 788 1124 788 1124 842.5 1140 c 128,-1,6
 897 1156 897 1156 956 1156 c 0,7,8
 1016 1156 1016 1156 1077.5 1141 c 128,-1,9
 1139 1126 1139 1126 1195.5 1095 c 128,-1,10
 1252 1064 1252 1064 1302 1016 c 128,-1,11
 1352 968 1352 968 1388.5 900.5 c 128,-1,12
 1425 833 1425 833 1446.5 745 c 128,-1,13
 1468 657 1468 657 1468 547 c 256,14,15
 1468 437 1468 437 1446.5 351.5 c 128,-1,16
 1425 266 1425 266 1388.5 202 c 128,-1,17
 1352 138 1352 138 1302 94 c 128,-1,18
 1252 50 1252 50 1195.5 22.5 c 128,-1,19
 1139 -5 1139 -5 1077.5 -17 c 128,-1,20
 1016 -29 1016 -29 956 -29 c 0,21,22
 897 -29 897 -29 842.5 -18.5 c 128,-1,23
 788 -8 788 -8 742 12.5 c 128,-1,24
 696 33 696 33 660.5 63 c 128,-1,25
 625 93 625 93 604 131 c 1,26,-1
 604 -352 l 1,27,-1
 156 -352 l 1,28,-1
 156 1414 l 1,0,-1
604 544 m 2,29,30
 604 467 604 467 620 413 c 128,-1,31
 636 359 636 359 662.5 324 c 128,-1,32
 689 289 689 289 723.5 272.5 c 128,-1,33
 758 256 758 256 796 256 c 0,34,35
 814 256 814 256 838 257.5 c 128,-1,36
 862 259 862 259 887 267.5 c 128,-1,37
 912 276 912 276 936 293.5 c 128,-1,38
 960 311 960 311 978.5 343 c 128,-1,39
 997 375 997 375 1008.5 424 c 128,-1,40
 1020 473 1020 473 1020 547 c 0,41,42
 1020 618 1020 618 1008.5 667 c 128,-1,43
 997 716 997 716 978.5 748 c 128,-1,44
 960 780 960 780 936 797.5 c 128,-1,45
 912 815 912 815 887 823.5 c 128,-1,46
 862 832 862 832 838 833.5 c 128,-1,47
 814 835 814 835 796 835 c 0,48,49
 758 835 758 835 723.5 821.5 c 128,-1,50
 689 808 689 808 662.5 776.5 c 128,-1,51
 636 745 636 745 620 693 c 128,-1,52
 604 641 604 641 604 563 c 2,53,-1
 604 544 l 2,29,30
EndSplineSet
EndChar

StartChar: dotlessi
Encoding: 305 305 193
Width: 761
Flags: W
LayerCount: 2
Fore
SplineSet
162 1079 m 1,0,-1
 594 1079 l 1,1,-1
 594 0 l 1,2,-1
 162 0 l 1,3,-1
 162 1079 l 1,0,-1
EndSplineSet
EndChar

StartChar: Lslash
Encoding: 321 321 194
Width: 1303
Flags: W
LayerCount: 2
Fore
SplineSet
170 1414 m 1,0,-1
 618 1414 l 1,1,-1
 618 1019 l 1,2,-1
 847 1100 l 1,3,-1
 847 800 l 1,4,-1
 618 719 l 1,5,-1
 618 288 l 1,6,-1
 1098 288 l 1,7,-1
 1098 0 l 1,8,-1
 170 0 l 1,9,-1
 170 560 l 1,10,-1
 -1 500 l 1,11,-1
 -1 800 l 1,12,-1
 170 860 l 1,13,-1
 170 1414 l 1,0,-1
EndSplineSet
EndChar

StartChar: lslash
Encoding: 322 322 195
Width: 756
Flags: W
LayerCount: 2
Fore
SplineSet
156 1536 m 1,0,-1
 588 1536 l 1,1,-1
 588 1039 l 1,2,-1
 730 1100 l 1,3,-1
 730 800 l 1,4,-1
 588 739 l 1,5,-1
 588 0 l 1,6,-1
 156 0 l 1,7,-1
 156 554 l 1,8,-1
 30 500 l 1,9,-1
 30 800 l 1,10,-1
 156 854 l 1,11,-1
 156 1536 l 1,0,-1
EndSplineSet
EndChar

StartChar: OE
Encoding: 338 338 196
Width: 2055
Flags: W
LayerCount: 2
Fore
SplineSet
992 1414 m 1,0,-1
 1924 1414 l 1,1,-1
 1924 1152 l 1,2,-1
 1440 1152 l 1,3,-1
 1440 853 l 1,4,-1
 1860 853 l 1,5,-1
 1860 597 l 1,6,-1
 1440 597 l 1,7,-1
 1440 288 l 1,8,-1
 1924 288 l 1,9,-1
 1924 0 l 1,10,-1
 992 0 l 1,11,-1
 992 22 l 1,12,13
 914 -4 914 -4 844 -16.5 c 128,-1,14
 774 -29 774 -29 709 -29 c 0,15,16
 609 -29 609 -29 524.5 -2 c 128,-1,17
 440 25 440 25 371.5 73.5 c 128,-1,18
 303 122 303 122 251 190 c 128,-1,19
 199 258 199 258 163.5 339.5 c 128,-1,20
 128 421 128 421 110 513.5 c 128,-1,21
 92 606 92 606 92 704 c 0,22,23
 92 853 92 853 136 986.5 c 128,-1,24
 180 1120 180 1120 261 1221 c 128,-1,25
 342 1322 342 1322 456 1381.5 c 128,-1,26
 570 1441 570 1441 711 1441 c 0,27,28
 844 1441 844 1441 992 1382 c 1,29,-1
 992 1414 l 1,0,-1
540 704 m 256,30,31
 540 594 540 594 561.5 510 c 128,-1,32
 583 426 583 426 624 369.5 c 128,-1,33
 665 313 665 313 723 284.5 c 128,-1,34
 781 256 781 256 855 256 c 0,35,36
 892 256 892 256 927 262 c 128,-1,37
 962 268 962 268 992 282 c 1,38,-1
 992 1130 l 1,39,40
 962 1144 962 1144 927 1150 c 128,-1,41
 892 1156 892 1156 855 1156 c 0,42,43
 781 1156 781 1156 723 1126.5 c 128,-1,44
 665 1097 665 1097 624 1040 c 128,-1,45
 583 983 583 983 561.5 898.5 c 128,-1,46
 540 814 540 814 540 704 c 256,30,31
EndSplineSet
EndChar

StartChar: oe
Encoding: 339 339 197
Width: 2092
Flags: W
LayerCount: 2
Fore
SplineSet
704 -29 m 0,0,1
 586 -29 586 -29 494 -7 c 128,-1,2
 402 15 402 15 333 54 c 128,-1,3
 264 93 264 93 215.5 146.5 c 128,-1,4
 167 200 167 200 137 263 c 128,-1,5
 107 326 107 326 93.5 396 c 128,-1,6
 80 466 80 466 80 538 c 0,7,8
 80 609 80 609 93.5 678.5 c 128,-1,9
 107 748 107 748 137 811.5 c 128,-1,10
 167 875 167 875 215 928.5 c 128,-1,11
 263 982 263 982 332.5 1021.5 c 128,-1,12
 402 1061 402 1061 494 1083.5 c 128,-1,13
 586 1106 586 1106 704 1106 c 0,14,15
 850 1106 850 1106 955.5 1072.5 c 128,-1,16
 1061 1039 1061 1039 1135 982 c 1,17,18
 1225 1043 1225 1043 1329.5 1074.5 c 128,-1,19
 1434 1106 1434 1106 1537 1106 c 0,20,21
 1652 1106 1652 1106 1740 1080.5 c 128,-1,22
 1828 1055 1828 1055 1886.5 1012 c 128,-1,23
 1945 969 1945 969 1975 912 c 128,-1,24
 2005 855 2005 855 2005 791 c 0,25,26
 2005 713 2005 713 1978.5 658 c 128,-1,27
 1952 603 1952 603 1907.5 565.5 c 128,-1,28
 1863 528 1863 528 1804.5 506.5 c 128,-1,29
 1746 485 1746 485 1681 473.5 c 128,-1,30
 1616 462 1616 462 1548.5 459 c 128,-1,31
 1481 456 1481 456 1420 456 c 0,32,33
 1399 456 1399 456 1379.5 456.5 c 128,-1,34
 1360 457 1360 457 1341 457 c 1,35,36
 1349 400 1349 400 1372.5 361 c 128,-1,37
 1396 322 1396 322 1431.5 297.5 c 128,-1,38
 1467 273 1467 273 1513.5 262.5 c 128,-1,39
 1560 252 1560 252 1613 252 c 0,40,41
 1653 252 1653 252 1698.5 258 c 128,-1,42
 1744 264 1744 264 1790.5 274.5 c 128,-1,43
 1837 285 1837 285 1883.5 298.5 c 128,-1,44
 1930 312 1930 312 1973 327 c 1,45,-1
 1973 43 l 1,46,47
 1879 12 1879 12 1770 -8.5 c 128,-1,48
 1661 -29 1661 -29 1543 -29 c 256,49,50
 1425 -29 1425 -29 1318 -1 c 128,-1,51
 1211 27 1211 27 1125 86 c 1,52,53
 1052 32 1052 32 948.5 1.5 c 128,-1,54
 845 -29 845 -29 704 -29 c 0,0,1
512 538 m 256,55,56
 512 484 512 484 522 432.5 c 128,-1,57
 532 381 532 381 554.5 340.5 c 128,-1,58
 577 300 577 300 613.5 275.5 c 128,-1,59
 650 251 650 251 704 251 c 256,60,61
 758 251 758 251 794.5 275.5 c 128,-1,62
 831 300 831 300 853.5 340.5 c 128,-1,63
 876 381 876 381 886 432.5 c 128,-1,64
 896 484 896 484 896 538 c 256,65,66
 896 592 896 592 886 643.5 c 128,-1,67
 876 695 876 695 853.5 735.5 c 128,-1,68
 831 776 831 776 794.5 801 c 128,-1,69
 758 826 758 826 704 826 c 256,70,71
 650 826 650 826 613.5 801 c 128,-1,72
 577 776 577 776 554.5 735.5 c 128,-1,73
 532 695 532 695 522 643.5 c 128,-1,74
 512 592 512 592 512 538 c 256,55,56
1332 611 m 1,75,76
 1356 612 1356 612 1393.5 614 c 128,-1,77
 1431 616 1431 616 1473 621 c 128,-1,78
 1515 626 1515 626 1557 635 c 128,-1,79
 1599 644 1599 644 1633 658 c 128,-1,80
 1667 672 1667 672 1688 693 c 128,-1,81
 1709 714 1709 714 1709 744 c 0,82,83
 1709 795 1709 795 1668.5 825.5 c 128,-1,84
 1628 856 1628 856 1556 856 c 0,85,86
 1523 856 1523 856 1485 846.5 c 128,-1,87
 1447 837 1447 837 1414 810 c 128,-1,88
 1381 783 1381 783 1358 735 c 128,-1,89
 1335 687 1335 687 1332 611 c 1,75,76
EndSplineSet
EndChar

StartChar: florin
Encoding: 402 402 203
Width: 1099
Flags: W
LayerCount: 2
Fore
SplineSet
690 32 m 2,0,1
 690 -101 690 -101 653.5 -191 c 128,-1,2
 617 -281 617 -281 557 -336 c 128,-1,3
 497 -391 497 -391 420 -414.5 c 128,-1,4
 343 -438 343 -438 262 -438 c 0,5,6
 192 -438 192 -438 124.5 -424 c 128,-1,7
 57 -410 57 -410 6 -387 c 1,8,9
 6 -385 6 -385 7.5 -364 c 128,-1,10
 9 -343 9 -343 11.5 -312.5 c 128,-1,11
 14 -282 14 -282 16.5 -246.5 c 128,-1,12
 19 -211 19 -211 21.5 -180 c 128,-1,13
 24 -149 24 -149 25.5 -128 c 128,-1,14
 27 -107 27 -107 27 -105 c 1,15,16
 90 -127 90 -127 132 -127 c 0,17,18
 179 -127 179 -127 209.5 -111.5 c 128,-1,19
 240 -96 240 -96 258 -70.5 c 128,-1,20
 276 -45 276 -45 283 -12 c 128,-1,21
 290 21 290 21 290 57 c 2,22,-1
 290 838 l 1,23,-1
 143 838 l 1,24,-1
 143 1110 l 1,25,-1
 290 1110 l 1,26,-1
 290 1301 l 2,27,28
 290 1428 290 1428 326.5 1513.5 c 128,-1,29
 363 1599 363 1599 422 1651.5 c 128,-1,30
 481 1704 481 1704 557 1726.5 c 128,-1,31
 633 1749 633 1749 712 1749 c 2,32,-1
 719 1749 l 2,33,34
 807 1749 807 1749 886 1731.5 c 128,-1,35
 965 1714 965 1714 1028 1688 c 1,36,37
 1028 1686 1028 1686 1026.5 1665 c 128,-1,38
 1025 1644 1025 1644 1022.5 1613 c 128,-1,39
 1020 1582 1020 1582 1017.5 1546.5 c 128,-1,40
 1015 1511 1015 1511 1012.5 1480.5 c 128,-1,41
 1010 1450 1010 1450 1008.5 1429 c 128,-1,42
 1007 1408 1007 1408 1007 1406 c 1,43,44
 956 1421 956 1421 915 1429.5 c 128,-1,45
 874 1438 874 1438 842 1438 c 0,46,47
 788 1438 788 1438 757.5 1417.5 c 128,-1,48
 727 1397 727 1397 712 1363 c 128,-1,49
 697 1329 697 1329 693.5 1285 c 128,-1,50
 690 1241 690 1241 690 1195 c 2,51,-1
 690 1110 l 1,52,-1
 999 1110 l 1,53,54
 989 1056 989 1056 981.5 989.5 c 128,-1,55
 974 923 974 923 974 838 c 1,56,-1
 690 838 l 1,57,-1
 690 32 l 2,0,1
EndSplineSet
EndChar

StartChar: circumflex
Encoding: 710 710 204
Width: 1146
Flags: W
LayerCount: 2
Fore
SplineSet
723 1248 m 1,0,-1
 573 1650 l 1,1,-1
 423 1248 l 1,2,-1
 123 1248 l 1,3,-1
 323 1792 l 1,4,-1
 823 1792 l 1,5,-1
 1023 1248 l 1,6,-1
 723 1248 l 1,0,-1
EndSplineSet
EndChar

StartChar: caron
Encoding: 711 711 205
Width: 1144
Flags: W
LayerCount: 2
Fore
SplineSet
316 1248 m 1,0,-1
 123 1792 l 1,1,-1
 412 1792 l 1,2,-1
 572 1411 l 1,3,-1
 732 1792 l 1,4,-1
 1021 1792 l 1,5,-1
 828 1248 l 1,6,-1
 316 1248 l 1,0,-1
EndSplineSet
EndChar

StartChar: breve
Encoding: 728 728 206
Width: 1064
Flags: W
LayerCount: 2
Fore
SplineSet
904 1536 m 1,0,1
 904 1444 904 1444 873.5 1379 c 128,-1,2
 843 1314 843 1314 791.5 1272 c 128,-1,3
 740 1230 740 1230 672.5 1210.5 c 128,-1,4
 605 1191 605 1191 532 1191 c 0,5,6
 448 1191 448 1191 379.5 1210.5 c 128,-1,7
 311 1230 311 1230 262.5 1272 c 128,-1,8
 214 1314 214 1314 187 1379 c 128,-1,9
 160 1444 160 1444 160 1536 c 1,10,-1
 372 1536 l 1,11,12
 372 1502 372 1502 385.5 1479 c 128,-1,13
 399 1456 399 1456 421.5 1442.5 c 128,-1,14
 444 1429 444 1429 473 1423 c 128,-1,15
 502 1417 502 1417 532 1417 c 256,16,17
 562 1417 562 1417 590.5 1423 c 128,-1,18
 619 1429 619 1429 641.5 1442.5 c 128,-1,19
 664 1456 664 1456 678 1479 c 128,-1,20
 692 1502 692 1502 692 1536 c 1,21,-1
 904 1536 l 1,0,1
EndSplineSet
EndChar

StartChar: dotaccent
Encoding: 729 729 207
Width: 954
Flags: W
LayerCount: 2
Fore
SplineSet
505 0 m 0,0,1
 435 0 435 0 383 19.5 c 128,-1,2
 331 39 331 39 296.5 71.5 c 128,-1,3
 262 104 262 104 245 145 c 128,-1,4
 228 186 228 186 228 230 c 0,5,6
 228 275 228 275 246 318.5 c 128,-1,7
 264 362 264 362 299 396.5 c 128,-1,8
 334 431 334 431 386 452 c 128,-1,9
 438 473 438 473 506 473 c 256,10,11
 574 473 574 473 626 452 c 128,-1,12
 678 431 678 431 713.5 396.5 c 128,-1,13
 749 362 749 362 767 319 c 128,-1,14
 785 276 785 276 785 231 c 0,15,16
 785 187 785 187 768 145.5 c 128,-1,17
 751 104 751 104 716 71.5 c 128,-1,18
 681 39 681 39 628.5 19.5 c 128,-1,19
 576 0 576 0 505 0 c 0,0,1
EndSplineSet
EndChar

StartChar: ring
Encoding: 730 730 208
Width: 857
Flags: W
LayerCount: 2
Fore
SplineSet
335 1408 m 256,0,1
 335 1366 335 1366 360.5 1339 c 128,-1,2
 386 1312 386 1312 431 1312 c 256,3,4
 476 1312 476 1312 501.5 1339 c 128,-1,5
 527 1366 527 1366 527 1408 c 256,6,7
 527 1450 527 1450 501.5 1477 c 128,-1,8
 476 1504 476 1504 431 1504 c 256,9,10
 386 1504 386 1504 360.5 1477 c 128,-1,11
 335 1450 335 1450 335 1408 c 256,0,1
207 1408 m 0,12,13
 207 1445 207 1445 221.5 1480 c 128,-1,14
 236 1515 236 1515 264.5 1541.5 c 128,-1,15
 293 1568 293 1568 335 1584 c 128,-1,16
 377 1600 377 1600 431 1600 c 256,17,18
 485 1600 485 1600 527 1584 c 128,-1,19
 569 1568 569 1568 597.5 1541.5 c 128,-1,20
 626 1515 626 1515 640.5 1480 c 128,-1,21
 655 1445 655 1445 655 1408 c 0,22,23
 655 1370 655 1370 640.5 1335.5 c 128,-1,24
 626 1301 626 1301 597.5 1274.5 c 128,-1,25
 569 1248 569 1248 527 1232 c 128,-1,26
 485 1216 485 1216 431 1216 c 256,27,28
 377 1216 377 1216 335 1232 c 128,-1,29
 293 1248 293 1248 264.5 1274.5 c 128,-1,30
 236 1301 236 1301 221.5 1335.5 c 128,-1,31
 207 1370 207 1370 207 1408 c 0,12,13
EndSplineSet
EndChar

StartChar: ogonek
Encoding: 731 731 209
Width: 967
Flags: W
LayerCount: 2
Fore
SplineSet
789 -672 m 1,0,1
 681 -672 681 -672 592.5 -642.5 c 128,-1,2
 504 -613 504 -613 441 -564 c 128,-1,3
 378 -515 378 -515 343.5 -451.5 c 128,-1,4
 309 -388 309 -388 309 -320 c 0,5,6
 309 -235 309 -235 334 -171 c 128,-1,7
 359 -107 359 -107 402 -61 c 128,-1,8
 445 -15 445 -15 503 15 c 128,-1,9
 561 45 561 45 626.5 63 c 128,-1,10
 692 81 692 81 762.5 88 c 128,-1,11
 833 95 833 95 901 95 c 1,12,-1
 901 0 l 1,13,14
 866 -8 866 -8 824 -23 c 128,-1,15
 782 -38 782 -38 746 -66.5 c 128,-1,16
 710 -95 710 -95 685.5 -140.5 c 128,-1,17
 661 -186 661 -186 661 -256 c 0,18,19
 661 -285 661 -285 672 -308.5 c 128,-1,20
 683 -332 683 -332 701 -349 c 128,-1,21
 719 -366 719 -366 742 -375 c 128,-1,22
 765 -384 765 -384 789 -384 c 1,23,-1
 789 -672 l 1,0,1
EndSplineSet
EndChar

StartChar: tilde
Encoding: 732 732 210
Width: 1356
Flags: W
LayerCount: 2
Fore
SplineSet
861 1245 m 0,0,1
 812 1245 812 1245 761.5 1267 c 128,-1,2
 711 1289 711 1289 660.5 1315.5 c 128,-1,3
 610 1342 610 1342 561.5 1364 c 128,-1,4
 513 1386 513 1386 468 1386 c 0,5,6
 435 1386 435 1386 413 1354 c 128,-1,7
 391 1322 391 1322 385 1250 c 1,8,-1
 150 1300 l 1,9,10
 167 1393 167 1393 198.5 1463 c 128,-1,11
 230 1533 230 1533 271 1580.5 c 128,-1,12
 312 1628 312 1628 360 1652 c 128,-1,13
 408 1676 408 1676 459 1676 c 0,14,15
 512 1676 512 1676 567 1654 c 128,-1,16
 622 1632 622 1632 676.5 1605.5 c 128,-1,17
 731 1579 731 1579 783.5 1557 c 128,-1,18
 836 1535 836 1535 885 1535 c 0,19,20
 919 1535 919 1535 942 1567 c 128,-1,21
 965 1599 965 1599 971 1671 c 1,22,-1
 1206 1621 l 1,23,24
 1186 1528 1186 1528 1151 1458 c 128,-1,25
 1116 1388 1116 1388 1070 1340.5 c 128,-1,26
 1024 1293 1024 1293 970.5 1269 c 128,-1,27
 917 1245 917 1245 861 1245 c 0,0,1
EndSplineSet
EndChar

StartChar: hungarumlaut
Encoding: 733 733 211
Width: 1146
Flags: W
LayerCount: 2
Fore
SplineSet
174 1248 m 1,0,-1
 174 1792 l 1,1,-1
 558 1792 l 1,2,-1
 334 1248 l 1,3,-1
 174 1248 l 1,0,-1
622 1248 m 1,4,-1
 622 1792 l 1,5,-1
 1006 1792 l 1,6,-1
 782 1248 l 1,7,-1
 622 1248 l 1,4,-1
EndSplineSet
EndChar

StartChar: pi
Encoding: 960 960 213
Width: 1315
Flags: W
LayerCount: 2
Fore
SplineSet
48 1079 m 1,0,-1
 1265 1079 l 1,1,-1
 1265 0 l 1,2,-1
 838 0 l 1,3,-1
 838 791 l 1,4,-1
 434 791 l 1,5,-1
 434 0 l 1,6,-1
 48 0 l 1,7,-1
 48 1079 l 1,0,-1
EndSplineSet
EndChar

StartChar: endash
Encoding: 8211 8211 214
Width: 800
Flags: W
LayerCount: 2
Fore
SplineSet
800 832 m 1,0,-1
 800 512 l 1,1,-1
 0 512 l 1,2,-1
 0 832 l 1,3,-1
 800 832 l 1,0,-1
EndSplineSet
EndChar

StartChar: emdash
Encoding: 8212 8212 215
Width: 2048
Flags: W
LayerCount: 2
Fore
SplineSet
992 832 m 1,0,-1
 992 512 l 1,1,-1
 0 512 l 1,2,-1
 0 832 l 1,3,-1
 992 832 l 1,0,-1
EndSplineSet
EndChar

StartChar: quoteleft
Encoding: 8216 8216 216
Width: 849
Flags: W
LayerCount: 2
Fore
SplineSet
446 1024 m 1,0,1
 446 990 446 990 459 966 c 128,-1,2
 472 942 472 942 502 926.5 c 128,-1,3
 532 911 532 911 581 903.5 c 128,-1,4
 630 896 630 896 702 896 c 1,5,-1
 702 704 l 1,6,-1
 606 704 l 2,7,8
 531 704 531 704 457 722 c 128,-1,9
 383 740 383 740 323.5 786.5 c 128,-1,10
 264 833 264 833 227 914.5 c 128,-1,11
 190 996 190 996 190 1122 c 0,12,13
 190 1277 190 1277 259 1358.5 c 128,-1,14
 328 1440 328 1440 465 1440 c 0,15,16
 533 1440 533 1440 583.5 1418.5 c 128,-1,17
 634 1397 634 1397 667.5 1362.5 c 128,-1,18
 701 1328 701 1328 717.5 1285 c 128,-1,19
 734 1242 734 1242 734 1200 c 0,20,21
 734 1159 734 1159 720 1121 c 128,-1,22
 706 1083 706 1083 681 1054.5 c 128,-1,23
 656 1026 656 1026 622.5 1009 c 128,-1,24
 589 992 589 992 550 992 c 0,25,26
 499 992 499 992 446 1024 c 1,0,1
EndSplineSet
EndChar

StartChar: quoteright
Encoding: 8217 8217 217
Width: 748
Flags: W
LayerCount: 2
Fore
SplineSet
405 1120 m 1,0,1
 405 1154 405 1154 392 1178 c 128,-1,2
 379 1202 379 1202 349 1217.5 c 128,-1,3
 319 1233 319 1233 270 1240.5 c 128,-1,4
 221 1248 221 1248 149 1248 c 1,5,-1
 149 1440 l 1,6,-1
 245 1440 l 2,7,8
 320 1440 320 1440 394 1422 c 128,-1,9
 468 1404 468 1404 527.5 1357.5 c 128,-1,10
 587 1311 587 1311 624 1229.5 c 128,-1,11
 661 1148 661 1148 661 1022 c 0,12,13
 661 867 661 867 592 785.5 c 128,-1,14
 523 704 523 704 386 704 c 0,15,16
 318 704 318 704 267.5 725.5 c 128,-1,17
 217 747 217 747 183.5 781.5 c 128,-1,18
 150 816 150 816 133.5 859 c 128,-1,19
 117 902 117 902 117 944 c 0,20,21
 117 985 117 985 131 1023 c 128,-1,22
 145 1061 145 1061 170 1089.5 c 128,-1,23
 195 1118 195 1118 228.5 1135 c 128,-1,24
 262 1152 262 1152 301 1152 c 0,25,26
 352 1152 352 1152 405 1120 c 1,0,1
EndSplineSet
EndChar

StartChar: quotesinglbase
Encoding: 8218 8218 218
Width: 745
Flags: W
LayerCount: 2
Fore
SplineSet
133 98 m 1,0,-1
 453 98 l 1,1,-1
 393 -528 l 1,2,-1
 193 -528 l 1,3,-1
 133 98 l 1,0,-1
EndSplineSet
EndChar

StartChar: quotedblleft
Encoding: 8220 8220 219
Width: 1309
Flags: W
LayerCount: 2
Fore
SplineSet
1054 1024 m 1,0,1
 1054 990 1054 990 1067 966 c 128,-1,2
 1080 942 1080 942 1110 926.5 c 128,-1,3
 1140 911 1140 911 1189 903.5 c 128,-1,4
 1238 896 1238 896 1310 896 c 1,5,-1
 1310 704 l 1,6,-1
 1214 704 l 2,7,8
 1139 704 1139 704 1065 722 c 128,-1,9
 991 740 991 740 931.5 786.5 c 128,-1,10
 872 833 872 833 835 914.5 c 128,-1,11
 798 996 798 996 798 1122 c 0,12,13
 798 1277 798 1277 867 1358.5 c 128,-1,14
 936 1440 936 1440 1073 1440 c 0,15,16
 1141 1440 1141 1440 1191.5 1418.5 c 128,-1,17
 1242 1397 1242 1397 1275.5 1362.5 c 128,-1,18
 1309 1328 1309 1328 1325.5 1285 c 128,-1,19
 1342 1242 1342 1242 1342 1200 c 0,20,21
 1342 1159 1342 1159 1328 1121 c 128,-1,22
 1314 1083 1314 1083 1289 1054.5 c 128,-1,23
 1264 1026 1264 1026 1230.5 1009 c 128,-1,24
 1197 992 1197 992 1158 992 c 0,25,26
 1107 992 1107 992 1054 1024 c 1,0,1
446 1024 m 1,27,28
 446 990 446 990 459 966 c 128,-1,29
 472 942 472 942 502 926.5 c 128,-1,30
 532 911 532 911 581 903.5 c 128,-1,31
 630 896 630 896 702 896 c 1,32,-1
 702 704 l 1,33,-1
 606 704 l 2,34,35
 531 704 531 704 457 722 c 128,-1,36
 383 740 383 740 323.5 786.5 c 128,-1,37
 264 833 264 833 227 914.5 c 128,-1,38
 190 996 190 996 190 1122 c 0,39,40
 190 1277 190 1277 259 1358.5 c 128,-1,41
 328 1440 328 1440 465 1440 c 0,42,43
 533 1440 533 1440 583.5 1418.5 c 128,-1,44
 634 1397 634 1397 667.5 1362.5 c 128,-1,45
 701 1328 701 1328 717.5 1285 c 128,-1,46
 734 1242 734 1242 734 1200 c 0,47,48
 734 1159 734 1159 720 1121 c 128,-1,49
 706 1083 706 1083 681 1054.5 c 128,-1,50
 656 1026 656 1026 622.5 1009 c 128,-1,51
 589 992 589 992 550 992 c 0,52,53
 499 992 499 992 446 1024 c 1,27,28
EndSplineSet
EndChar

StartChar: quotedblright
Encoding: 8221 8221 220
Width: 1309
Flags: W
LayerCount: 2
Fore
SplineSet
1098 1120 m 1,0,1
 1098 1154 1098 1154 1085 1178 c 128,-1,2
 1072 1202 1072 1202 1042 1217.5 c 128,-1,3
 1012 1233 1012 1233 963 1240.5 c 128,-1,4
 914 1248 914 1248 842 1248 c 1,5,-1
 842 1440 l 1,6,-1
 938 1440 l 2,7,8
 1013 1440 1013 1440 1087 1422 c 128,-1,9
 1161 1404 1161 1404 1220.5 1357.5 c 128,-1,10
 1280 1311 1280 1311 1317 1229.5 c 128,-1,11
 1354 1148 1354 1148 1354 1022 c 0,12,13
 1354 867 1354 867 1285 785.5 c 128,-1,14
 1216 704 1216 704 1079 704 c 0,15,16
 1011 704 1011 704 960.5 725.5 c 128,-1,17
 910 747 910 747 876.5 781.5 c 128,-1,18
 843 816 843 816 826.5 859 c 128,-1,19
 810 902 810 902 810 944 c 0,20,21
 810 985 810 985 824 1023 c 128,-1,22
 838 1061 838 1061 863 1089.5 c 128,-1,23
 888 1118 888 1118 921.5 1135 c 128,-1,24
 955 1152 955 1152 994 1152 c 0,25,26
 1045 1152 1045 1152 1098 1120 c 1,0,1
458 1120 m 1,27,28
 458 1154 458 1154 445 1178 c 128,-1,29
 432 1202 432 1202 402 1217.5 c 128,-1,30
 372 1233 372 1233 323 1240.5 c 128,-1,31
 274 1248 274 1248 202 1248 c 1,32,-1
 202 1440 l 1,33,-1
 298 1440 l 2,34,35
 373 1440 373 1440 447 1422 c 128,-1,36
 521 1404 521 1404 580.5 1357.5 c 128,-1,37
 640 1311 640 1311 677 1229.5 c 128,-1,38
 714 1148 714 1148 714 1022 c 0,39,40
 714 867 714 867 645 785.5 c 128,-1,41
 576 704 576 704 439 704 c 0,42,43
 371 704 371 704 320.5 725.5 c 128,-1,44
 270 747 270 747 236.5 781.5 c 128,-1,45
 203 816 203 816 186.5 859 c 128,-1,46
 170 902 170 902 170 944 c 0,47,48
 170 985 170 985 184 1023 c 128,-1,49
 198 1061 198 1061 223 1089.5 c 128,-1,50
 248 1118 248 1118 281.5 1135 c 128,-1,51
 315 1152 315 1152 354 1152 c 0,52,53
 405 1152 405 1152 458 1120 c 1,27,28
EndSplineSet
EndChar

StartChar: quotedblbase
Encoding: 8222 8222 221
Width: 997
Flags: W
LayerCount: 2
Fore
SplineSet
549 100 m 1,0,-1
 869 100 l 1,1,-1
 809 -526 l 1,2,-1
 609 -526 l 1,3,-1
 549 100 l 1,0,-1
133 100 m 1,4,-1
 453 100 l 1,5,-1
 393 -526 l 1,6,-1
 193 -526 l 1,7,-1
 133 100 l 1,4,-1
EndSplineSet
EndChar

StartChar: dagger
Encoding: 8224 8224 222
Width: 898
Flags: W
LayerCount: 2
Fore
SplineSet
49 900 m 1,0,-1
 49 1156 l 1,1,-1
 249 1156 l 1,2,-1
 249 1414 l 1,3,-1
 649 1414 l 1,4,-1
 649 1156 l 1,5,-1
 849 1156 l 1,6,-1
 849 900 l 1,7,-1
 649 900 l 1,8,-1
 649 0 l 1,9,-1
 249 0 l 1,10,-1
 249 900 l 1,11,-1
 49 900 l 1,0,-1
EndSplineSet
EndChar

StartChar: daggerdbl
Encoding: 8225 8225 223
Width: 894
Flags: W
LayerCount: 2
Fore
SplineSet
47 320 m 1,0,-1
 47 576 l 1,1,-1
 247 576 l 1,2,-1
 247 851 l 1,3,-1
 47 851 l 1,4,-1
 47 1107 l 1,5,-1
 247 1107 l 1,6,-1
 247 1414 l 1,7,-1
 647 1414 l 1,8,-1
 647 1107 l 1,9,-1
 847 1107 l 1,10,-1
 847 851 l 1,11,-1
 647 851 l 1,12,-1
 647 576 l 1,13,-1
 847 576 l 1,14,-1
 847 320 l 1,15,-1
 647 320 l 1,16,-1
 647 0 l 1,17,-1
 247 0 l 1,18,-1
 247 320 l 1,19,-1
 47 320 l 1,0,-1
EndSplineSet
EndChar

StartChar: bullet
Encoding: 8226 8226 224
Width: 1253
Flags: W
LayerCount: 2
Fore
SplineSet
560 300 m 0,0,1
 486 300 486 300 431 325.5 c 128,-1,2
 376 351 376 351 339 392.5 c 128,-1,3
 302 434 302 434 284 487 c 128,-1,4
 266 540 266 540 266 596 c 0,5,6
 266 653 266 653 284.5 707 c 128,-1,7
 303 761 303 761 340 804 c 128,-1,8
 377 847 377 847 432 873 c 128,-1,9
 487 899 487 899 560 899 c 256,10,11
 633 899 633 899 687.5 873 c 128,-1,12
 742 847 742 847 779 804.5 c 128,-1,13
 816 762 816 762 834.5 707.5 c 128,-1,14
 853 653 853 653 853 597 c 256,15,16
 853 541 853 541 835 487.5 c 128,-1,17
 817 434 817 434 780 392.5 c 128,-1,18
 743 351 743 351 688 325.5 c 128,-1,19
 633 300 633 300 560 300 c 0,0,1
EndSplineSet
EndChar

StartChar: ellipsis
Encoding: 8230 8230 225
Width: 2168
Flags: W
LayerCount: 2
Fore
SplineSet
1744 -27 m 0,0,1
 1675 -27 1675 -27 1623 -8 c 128,-1,2
 1571 11 1571 11 1537 42.5 c 128,-1,3
 1503 74 1503 74 1486 114.5 c 128,-1,4
 1469 155 1469 155 1469 197 c 0,5,6
 1469 241 1469 241 1487 283.5 c 128,-1,7
 1505 326 1505 326 1539.5 359.5 c 128,-1,8
 1574 393 1574 393 1625.5 413.5 c 128,-1,9
 1677 434 1677 434 1745 434 c 0,10,11
 1812 434 1812 434 1864 413.5 c 128,-1,12
 1916 393 1916 393 1950.5 359.5 c 128,-1,13
 1985 326 1985 326 2003 283.5 c 128,-1,14
 2021 241 2021 241 2021 198 c 256,15,16
 2021 155 2021 155 2004 114.5 c 128,-1,17
 1987 74 1987 74 1952.5 42.5 c 128,-1,18
 1918 11 1918 11 1866 -8 c 128,-1,19
 1814 -27 1814 -27 1744 -27 c 0,0,1
422 -27 m 0,20,21
 353 -27 353 -27 301 -8 c 128,-1,22
 249 11 249 11 215 42.5 c 128,-1,23
 181 74 181 74 164 114.5 c 128,-1,24
 147 155 147 155 147 197 c 0,25,26
 147 241 147 241 165 283.5 c 128,-1,27
 183 326 183 326 217.5 359.5 c 128,-1,28
 252 393 252 393 303.5 413.5 c 128,-1,29
 355 434 355 434 423 434 c 0,30,31
 490 434 490 434 542 413.5 c 128,-1,32
 594 393 594 393 628.5 359.5 c 128,-1,33
 663 326 663 326 681 283.5 c 128,-1,34
 699 241 699 241 699 198 c 256,35,36
 699 155 699 155 682 114.5 c 128,-1,37
 665 74 665 74 630.5 42.5 c 128,-1,38
 596 11 596 11 544 -8 c 128,-1,39
 492 -27 492 -27 422 -27 c 0,20,21
1090 -27 m 0,40,41
 1021 -27 1021 -27 969 -8 c 128,-1,42
 917 11 917 11 883 42.5 c 128,-1,43
 849 74 849 74 832 114.5 c 128,-1,44
 815 155 815 155 815 197 c 0,45,46
 815 241 815 241 833 283.5 c 128,-1,47
 851 326 851 326 885.5 359.5 c 128,-1,48
 920 393 920 393 971.5 413.5 c 128,-1,49
 1023 434 1023 434 1091 434 c 0,50,51
 1158 434 1158 434 1210 413.5 c 128,-1,52
 1262 393 1262 393 1296.5 359.5 c 128,-1,53
 1331 326 1331 326 1349 283.5 c 128,-1,54
 1367 241 1367 241 1367 198 c 256,55,56
 1367 155 1367 155 1350 114.5 c 128,-1,57
 1333 74 1333 74 1298.5 42.5 c 128,-1,58
 1264 11 1264 11 1212 -8 c 128,-1,59
 1160 -27 1160 -27 1090 -27 c 0,40,41
EndSplineSet
EndChar

StartChar: perthousand
Encoding: 8240 8240 226
Width: 3917
Flags: W
LayerCount: 2
Fore
SplineSet
566 285 m 256,0,1
 472 285 472 285 397.5 308 c 128,-1,2
 323 331 323 331 266.5 371.5 c 128,-1,3
 210 412 210 412 170.5 467.5 c 128,-1,4
 131 523 131 523 106.5 588 c 128,-1,5
 82 653 82 653 70.5 724.5 c 128,-1,6
 59 796 59 796 59 869 c 0,7,8
 59 940 59 940 70 1010.5 c 128,-1,9
 81 1081 81 1081 106 1144.5 c 128,-1,10
 131 1208 131 1208 170 1262.5 c 128,-1,11
 209 1317 209 1317 265.5 1356.5 c 128,-1,12
 322 1396 322 1396 396.5 1418.5 c 128,-1,13
 471 1441 471 1441 566 1441 c 0,14,15
 708 1441 708 1441 805 1392 c 128,-1,16
 902 1343 902 1343 961.5 1262.5 c 128,-1,17
 1021 1182 1021 1182 1047 1079 c 128,-1,18
 1073 976 1073 976 1073 869 c 0,19,20
 1073 796 1073 796 1061.5 724.5 c 128,-1,21
 1050 653 1050 653 1025.5 588 c 128,-1,22
 1001 523 1001 523 961.5 467.5 c 128,-1,23
 922 412 922 412 865.5 371.5 c 128,-1,24
 809 331 809 331 734.5 308 c 128,-1,25
 660 285 660 285 566 285 c 256,0,1
566 522 m 0,26,27
 607 522 607 522 638 551.5 c 128,-1,28
 669 581 669 581 689.5 629.5 c 128,-1,29
 710 678 710 678 720.5 740 c 128,-1,30
 731 802 731 802 731 867 c 0,31,32
 731 931 731 931 720.5 993 c 128,-1,33
 710 1055 710 1055 689.5 1103.5 c 128,-1,34
 669 1152 669 1152 638 1181.5 c 128,-1,35
 607 1211 607 1211 566 1211 c 256,36,37
 525 1211 525 1211 494 1181.5 c 128,-1,38
 463 1152 463 1152 442 1103.5 c 128,-1,39
 421 1055 421 1055 410.5 993 c 128,-1,40
 400 931 400 931 400 867 c 0,41,42
 400 802 400 802 410.5 740 c 128,-1,43
 421 678 421 678 441.5 629.5 c 128,-1,44
 462 581 462 581 493 551.5 c 128,-1,45
 524 522 524 522 566 522 c 0,26,27
2252 -29 m 0,46,47
 2157 -29 2157 -29 2083 -6 c 128,-1,48
 2009 17 2009 17 1952.5 57.5 c 128,-1,49
 1896 98 1896 98 1856.5 153.5 c 128,-1,50
 1817 209 1817 209 1792.5 274 c 128,-1,51
 1768 339 1768 339 1756.5 410.5 c 128,-1,52
 1745 482 1745 482 1745 555 c 0,53,54
 1745 627 1745 627 1756 697 c 128,-1,55
 1767 767 1767 767 1792 830.5 c 128,-1,56
 1817 894 1817 894 1856 948.5 c 128,-1,57
 1895 1003 1895 1003 1951.5 1042.5 c 128,-1,58
 2008 1082 2008 1082 2082.5 1104.5 c 128,-1,59
 2157 1127 2157 1127 2252 1127 c 0,60,61
 2394 1127 2394 1127 2491 1078 c 128,-1,62
 2588 1029 2588 1029 2647.5 948.5 c 128,-1,63
 2707 868 2707 868 2733 765 c 128,-1,64
 2759 662 2759 662 2759 555 c 0,65,66
 2759 482 2759 482 2747.5 410.5 c 128,-1,67
 2736 339 2736 339 2711.5 274 c 128,-1,68
 2687 209 2687 209 2647.5 153.5 c 128,-1,69
 2608 98 2608 98 2551.5 57.5 c 128,-1,70
 2495 17 2495 17 2420.5 -6 c 128,-1,71
 2346 -29 2346 -29 2252 -29 c 0,46,47
2252 208 m 0,72,73
 2293 208 2293 208 2324 237.5 c 128,-1,74
 2355 267 2355 267 2375.5 315.5 c 128,-1,75
 2396 364 2396 364 2406.5 426 c 128,-1,76
 2417 488 2417 488 2417 553 c 0,77,78
 2417 617 2417 617 2406.5 679 c 128,-1,79
 2396 741 2396 741 2375.5 789.5 c 128,-1,80
 2355 838 2355 838 2324 867.5 c 128,-1,81
 2293 897 2293 897 2252 897 c 256,82,83
 2211 897 2211 897 2180 867.5 c 128,-1,84
 2149 838 2149 838 2128 789.5 c 128,-1,85
 2107 741 2107 741 2096.5 679 c 128,-1,86
 2086 617 2086 617 2086 553 c 0,87,88
 2086 488 2086 488 2096.5 426 c 128,-1,89
 2107 364 2107 364 2127.5 315.5 c 128,-1,90
 2148 267 2148 267 2179 237.5 c 128,-1,91
 2210 208 2210 208 2252 208 c 0,72,73
1878 1441 m 1,92,-1
 1354 0 l 1,93,-1
 937 0 l 1,94,-1
 1436 1441 l 1,95,-1
 1878 1441 l 1,92,-1
3367 -29 m 0,96,97
 3272 -29 3272 -29 3198 -6 c 128,-1,98
 3124 17 3124 17 3067.5 57.5 c 128,-1,99
 3011 98 3011 98 2971.5 153.5 c 128,-1,100
 2932 209 2932 209 2907.5 274 c 128,-1,101
 2883 339 2883 339 2871.5 410.5 c 128,-1,102
 2860 482 2860 482 2860 555 c 0,103,104
 2860 627 2860 627 2871 697 c 128,-1,105
 2882 767 2882 767 2907 830.5 c 128,-1,106
 2932 894 2932 894 2971 948.5 c 128,-1,107
 3010 1003 3010 1003 3066.5 1042.5 c 128,-1,108
 3123 1082 3123 1082 3197.5 1104.5 c 128,-1,109
 3272 1127 3272 1127 3367 1127 c 0,110,111
 3509 1127 3509 1127 3606 1078 c 128,-1,112
 3703 1029 3703 1029 3762.5 948.5 c 128,-1,113
 3822 868 3822 868 3848 765 c 128,-1,114
 3874 662 3874 662 3874 555 c 0,115,116
 3874 482 3874 482 3862.5 410.5 c 128,-1,117
 3851 339 3851 339 3826.5 274 c 128,-1,118
 3802 209 3802 209 3762.5 153.5 c 128,-1,119
 3723 98 3723 98 3666.5 57.5 c 128,-1,120
 3610 17 3610 17 3535.5 -6 c 128,-1,121
 3461 -29 3461 -29 3367 -29 c 0,96,97
3367 208 m 0,122,123
 3408 208 3408 208 3439 237.5 c 128,-1,124
 3470 267 3470 267 3490.5 315.5 c 128,-1,125
 3511 364 3511 364 3521.5 426 c 128,-1,126
 3532 488 3532 488 3532 553 c 0,127,128
 3532 617 3532 617 3521.5 679 c 128,-1,129
 3511 741 3511 741 3490.5 789.5 c 128,-1,130
 3470 838 3470 838 3439 867.5 c 128,-1,131
 3408 897 3408 897 3367 897 c 256,132,133
 3326 897 3326 897 3295 867.5 c 128,-1,134
 3264 838 3264 838 3243 789.5 c 128,-1,135
 3222 741 3222 741 3211.5 679 c 128,-1,136
 3201 617 3201 617 3201 553 c 0,137,138
 3201 488 3201 488 3211.5 426 c 128,-1,139
 3222 364 3222 364 3242.5 315.5 c 128,-1,140
 3263 267 3263 267 3294 237.5 c 128,-1,141
 3325 208 3325 208 3367 208 c 0,122,123
EndSplineSet
EndChar

StartChar: guilsinglleft
Encoding: 8249 8249 227
Width: 811
Flags: W
LayerCount: 2
Fore
SplineSet
743 200 m 1,0,-1
 143 600 l 1,1,-1
 143 900 l 1,2,-1
 743 1300 l 1,3,-1
 743 900 l 1,4,-1
 415 750 l 1,5,-1
 743 600 l 1,6,-1
 743 200 l 1,0,-1
EndSplineSet
EndChar

StartChar: guilsinglright
Encoding: 8250 8250 228
Width: 811
Flags: W
LayerCount: 2
Fore
SplineSet
174 600 m 1,0,-1
 502 750 l 1,1,-1
 174 900 l 1,2,-1
 174 1300 l 1,3,-1
 774 900 l 1,4,-1
 774 600 l 1,5,-1
 174 200 l 1,6,-1
 174 600 l 1,0,-1
EndSplineSet
EndChar

StartChar: fraction
Encoding: 8260 8260 229
Width: 541
Flags: W
LayerCount: 2
Fore
SplineSet
741 1441 m 1,0,-1
 217 0 l 1,1,-1
 -200 0 l 1,2,-1
 299 1441 l 1,3,-1
 741 1441 l 1,0,-1
EndSplineSet
EndChar

StartChar: Euro
Encoding: 8364 8364 230
Width: 1409
Flags: W
LayerCount: 2
Fore
SplineSet
794 643 m 1,0,-1
 794 468 l 1,1,-1
 591 468 l 1,2,3
 610 430 610 430 639 399 c 1,4,5
 687 345 687 345 755.5 316.5 c 128,-1,6
 824 288 824 288 912 288 c 0,7,8
 984 288 984 288 1070 312 c 128,-1,9
 1156 336 1156 336 1244 384 c 1,10,-1
 1306 64 l 1,11,12
 1194 10 1194 10 1081 -9.5 c 128,-1,13
 968 -29 968 -29 859 -29 c 0,14,15
 741 -29 741 -29 633.5 -0.5 c 128,-1,16
 526 28 526 28 434.5 82.5 c 128,-1,17
 343 137 343 137 271 216.5 c 128,-1,18
 199 296 199 296 153 397 c 0,19,20
 145 414 145 414 138.5 431.5 c 128,-1,21
 132 449 132 449 126 468 c 1,22,-1
 -43 468 l 1,23,-1
 -43 643 l 1,24,-1
 94 643 l 1,25,26
 93 658 93 658 92.5 673 c 128,-1,27
 92 688 92 688 92 704 c 2,28,-1
 92 738 l 1,29,-1
 -43 738 l 1,30,-1
 -43 913 l 1,31,-1
 118 913 l 1,32,33
 131 963 131 963 153 1011 c 0,34,35
 198 1113 198 1113 270 1193 c 128,-1,36
 342 1273 342 1273 434 1328 c 128,-1,37
 526 1383 526 1383 634 1411.5 c 128,-1,38
 742 1440 742 1440 859 1441 c 1,39,40
 968 1440 968 1440 1081 1419 c 128,-1,41
 1194 1398 1194 1398 1306 1344 c 1,42,-1
 1244 1024 l 1,43,44
 1156 1072 1156 1072 1070 1096 c 128,-1,45
 984 1120 984 1120 912 1120 c 0,46,47
 824 1120 824 1120 755.5 1091.5 c 128,-1,48
 687 1063 687 1063 639 1009 c 0,49,50
 602 968 602 968 578 913 c 1,51,-1
 794 913 l 1,52,-1
 794 738 l 1,53,-1
 541 738 l 1,54,55
 540 730 540 730 540 721 c 128,-1,56
 540 712 540 712 540 704 c 0,57,58
 540 688 540 688 540.5 672.5 c 128,-1,59
 541 657 541 657 542 643 c 1,60,-1
 794 643 l 1,0,-1
EndSplineSet
EndChar

StartChar: trademark
Encoding: 8482 8482 231
Width: 2148
Flags: W
LayerCount: 2
Fore
SplineSet
362 589 m 1,0,-1
 362 1209 l 1,1,-1
 162 1209 l 1,2,-1
 162 1415 l 1,3,-1
 862 1415 l 1,4,-1
 862 1209 l 1,5,-1
 662 1209 l 1,6,-1
 662 589 l 1,7,-1
 362 589 l 1,0,-1
962 1415 m 1,8,-1
 1247 1415 l 1,9,-1
 1469 1043 l 1,10,-1
 1704 1415 l 1,11,-1
 1962 1415 l 1,12,-1
 1962 589 l 1,13,-1
 1662 589 l 1,14,-1
 1662 975 l 1,15,-1
 1456 623 l 1,16,-1
 1392 623 l 1,17,-1
 1162 975 l 1,18,-1
 1162 589 l 1,19,-1
 962 589 l 1,20,-1
 962 1415 l 1,8,-1
EndSplineSet
EndChar

StartChar: partialdiff
Encoding: 8706 8706 232
Width: 1315
Flags: W
LayerCount: 2
Fore
SplineSet
222 1056 m 1,0,1
 221 1089 221 1089 219 1136 c 0,2,3
 217 1176 217 1176 214.5 1235.5 c 128,-1,4
 212 1295 212 1295 209 1376 c 1,5,6
 296 1408 296 1408 408.5 1424.5 c 128,-1,7
 521 1441 521 1441 645 1441 c 0,8,9
 771 1441 771 1441 865.5 1419 c 128,-1,10
 960 1397 960 1397 1028 1356.5 c 128,-1,11
 1096 1316 1096 1316 1141 1258.5 c 128,-1,12
 1186 1201 1186 1201 1212.5 1130.5 c 128,-1,13
 1239 1060 1239 1060 1249.5 978.5 c 128,-1,14
 1260 897 1260 897 1260 808 c 0,15,16
 1260 698 1260 698 1250 593 c 128,-1,17
 1240 488 1240 488 1212 395 c 128,-1,18
 1184 302 1184 302 1135.5 223.5 c 128,-1,19
 1087 145 1087 145 1010 88 c 128,-1,20
 933 31 933 31 823.5 -0.5 c 128,-1,21
 714 -32 714 -32 566 -32 c 0,22,23
 415 -32 415 -32 316.5 3.5 c 128,-1,24
 218 39 218 39 160 97 c 128,-1,25
 102 155 102 155 78.5 229.5 c 128,-1,26
 55 304 55 304 55 382 c 0,27,28
 55 499 55 499 93.5 589 c 128,-1,29
 132 679 132 679 197 740 c 128,-1,30
 262 801 262 801 348.5 832.5 c 128,-1,31
 435 864 435 864 531 864 c 0,32,33
 567 864 567 864 607.5 860.5 c 128,-1,34
 648 857 648 857 689.5 849 c 128,-1,35
 731 841 731 841 771 829 c 128,-1,36
 811 817 811 817 847 800 c 1,37,38
 848 812 848 812 848 823 c 128,-1,39
 848 834 848 834 848 845 c 0,40,41
 848 927 848 927 828.5 980.5 c 128,-1,42
 809 1034 809 1034 776.5 1065 c 128,-1,43
 744 1096 744 1096 701 1108 c 128,-1,44
 658 1120 658 1120 610 1120 c 0,45,46
 535 1120 535 1120 471.5 1112 c 128,-1,47
 408 1104 408 1104 359 1093.5 c 128,-1,48
 310 1083 310 1083 275 1072.5 c 128,-1,49
 240 1062 240 1062 222 1056 c 1,0,1
612 608 m 2,50,51
 559 608 559 608 520.5 591.5 c 128,-1,52
 482 575 482 575 457.5 548.5 c 128,-1,53
 433 522 433 522 421 488.5 c 128,-1,54
 409 455 409 455 409 420 c 0,55,56
 409 388 409 388 419.5 358.5 c 128,-1,57
 430 329 430 329 450 306.5 c 128,-1,58
 470 284 470 284 500.5 270 c 128,-1,59
 531 256 531 256 571 256 c 0,60,61
 634 256 634 256 680.5 266 c 128,-1,62
 727 276 727 276 759 312 c 128,-1,63
 791 348 791 348 809.5 418 c 128,-1,64
 828 488 828 488 835 608 c 1,65,-1
 612 608 l 2,50,51
EndSplineSet
EndChar

StartChar: Delta
Encoding: 8710 8710 233
Width: 1375
Flags: W
LayerCount: 2
Fore
SplineSet
1375 0 m 1,0,-1
 0 0 l 1,1,-1
 360 1414 l 1,2,-1
 986 1414 l 1,3,-1
 1375 0 l 1,0,-1
651 1200 m 1,4,-1
 485 299 l 1,5,-1
 854 299 l 1,6,-1
 682 1200 l 1,7,-1
 651 1200 l 1,4,-1
EndSplineSet
EndChar

StartChar: product
Encoding: 8719 8719 234
Width: 1404
Flags: W
LayerCount: 2
Fore
SplineSet
135 1414 m 1,0,-1
 1264 1414 l 1,1,-1
 1264 0 l 1,2,-1
 832 0 l 1,3,-1
 832 1120 l 1,4,-1
 583 1120 l 1,5,-1
 583 0 l 1,6,-1
 135 0 l 1,7,-1
 135 1414 l 1,0,-1
EndSplineSet
EndChar

StartChar: summation
Encoding: 8721 8721 235
Width: 1070
Flags: W
LayerCount: 2
Fore
SplineSet
486 728 m 1,0,-1
 39 1154 l 1,1,-1
 39 1414 l 1,2,-1
 1031 1414 l 1,3,-1
 1031 1158 l 1,4,-1
 487 1158 l 1,5,-1
 969 767 l 1,6,-1
 969 683 l 1,7,-1
 487 288 l 1,8,-1
 1031 288 l 1,9,-1
 1031 0 l 1,10,-1
 39 0 l 1,11,-1
 39 284 l 1,12,-1
 486 728 l 1,0,-1
EndSplineSet
EndChar

StartChar: minus
Encoding: 8722 8722 236
Width: 1194
Flags: W
LayerCount: 2
Fore
SplineSet
997 847 m 1,0,-1
 997 529 l 1,1,-1
 197 529 l 1,2,-1
 197 847 l 1,3,-1
 997 847 l 1,0,-1
EndSplineSet
EndChar

StartChar: radical
Encoding: 8730 8730 237
Width: 1378
Flags: W
LayerCount: 2
Fore
SplineSet
962 0 m 1,0,-1
 415 0 l 1,1,-1
 70 734 l 1,2,-1
 437 734 l 1,3,-1
 646 271 l 1,4,-1
 897 1414 l 1,5,-1
 1382 1414 l 1,6,-1
 962 0 l 1,0,-1
EndSplineSet
EndChar

StartChar: infinity
Encoding: 8734 8734 238
Width: 1673
Flags: W
LayerCount: 2
Fore
SplineSet
779 857 m 1,0,1
 821 925 821 925 863.5 973.5 c 128,-1,2
 906 1022 906 1022 951 1052.5 c 128,-1,3
 996 1083 996 1083 1044.5 1097.5 c 128,-1,4
 1093 1112 1093 1112 1147 1112 c 0,5,6
 1220 1112 1220 1112 1284 1085 c 128,-1,7
 1348 1058 1348 1058 1395.5 1008 c 128,-1,8
 1443 958 1443 958 1470 885.5 c 128,-1,9
 1497 813 1497 813 1497 722 c 256,10,11
 1497 631 1497 631 1470.5 558.5 c 128,-1,12
 1444 486 1444 486 1397 435.5 c 128,-1,13
 1350 385 1350 385 1286 358 c 128,-1,14
 1222 331 1222 331 1147 331 c 0,15,16
 1093 331 1093 331 1045 345 c 128,-1,17
 997 359 997 359 952 390 c 128,-1,18
 907 421 907 421 864 469 c 128,-1,19
 821 517 821 517 779 586 c 1,20,21
 744 539 744 539 703.5 503 c 128,-1,22
 663 467 663 467 620.5 442.5 c 128,-1,23
 578 418 578 418 534.5 405.5 c 128,-1,24
 491 393 491 393 451 393 c 0,25,26
 394 393 394 393 343.5 416 c 128,-1,27
 293 439 293 439 256 481.5 c 128,-1,28
 219 524 219 524 197.5 585 c 128,-1,29
 176 646 176 646 176 722 c 256,30,31
 176 798 176 798 197.5 858.5 c 128,-1,32
 219 919 219 919 256.5 961.5 c 128,-1,33
 294 1004 294 1004 344 1026.5 c 128,-1,34
 394 1049 394 1049 451 1049 c 0,35,36
 491 1049 491 1049 534.5 1036 c 128,-1,37
 578 1023 578 1023 621 998.5 c 128,-1,38
 664 974 664 974 704.5 938.5 c 128,-1,39
 745 903 745 903 779 857 c 1,0,1
898 724 m 1,40,41
 983 593 983 593 1016 566 c 1,42,43
 1068 521 1068 521 1131 521 c 0,44,45
 1170 521 1170 521 1199.5 537 c 128,-1,46
 1229 553 1229 553 1249 581 c 128,-1,47
 1269 609 1269 609 1279 646.5 c 128,-1,48
 1289 684 1289 684 1289 726 c 0,49,50
 1289 773 1289 773 1276.5 810 c 128,-1,51
 1264 847 1264 847 1243 872.5 c 128,-1,52
 1222 898 1222 898 1194 911 c 128,-1,53
 1166 924 1166 924 1134 924 c 0,54,55
 1108 924 1108 924 1084 917.5 c 128,-1,56
 1060 911 1060 911 1032.5 890 c 128,-1,57
 1005 869 1005 869 972.5 829.5 c 128,-1,58
 940 790 940 790 898 724 c 1,40,41
664 726 m 1,59,60
 563 867 563 867 474 867 c 0,61,62
 451 867 451 867 430.5 857.5 c 128,-1,63
 410 848 410 848 394.5 830 c 128,-1,64
 379 812 379 812 370 786 c 128,-1,65
 361 760 361 760 361 727 c 0,66,67
 361 658 361 658 393.5 620.5 c 128,-1,68
 426 583 426 583 474 583 c 0,69,70
 523 583 523 583 566.5 620 c 128,-1,71
 610 657 610 657 664 726 c 1,59,60
EndSplineSet
EndChar

StartChar: integral
Encoding: 8747 8747 239
Width: 1114
Flags: W
LayerCount: 2
Fore
SplineSet
331 1301 m 2,0,1
 331 1428 331 1428 367.5 1513.5 c 128,-1,2
 404 1599 404 1599 463 1651.5 c 128,-1,3
 522 1704 522 1704 598 1726.5 c 128,-1,4
 674 1749 674 1749 753 1749 c 2,5,-1
 760 1749 l 2,6,7
 848 1749 848 1749 927 1731.5 c 128,-1,8
 1006 1714 1006 1714 1069 1688 c 1,9,10
 1069 1686 1069 1686 1067.5 1665 c 128,-1,11
 1066 1644 1066 1644 1063.5 1613 c 128,-1,12
 1061 1582 1061 1582 1058.5 1546.5 c 128,-1,13
 1056 1511 1056 1511 1053.5 1480.5 c 128,-1,14
 1051 1450 1051 1450 1049.5 1429 c 128,-1,15
 1048 1408 1048 1408 1048 1406 c 1,16,17
 997 1421 997 1421 956 1429.5 c 128,-1,18
 915 1438 915 1438 883 1438 c 0,19,20
 829 1438 829 1438 798.5 1417.5 c 128,-1,21
 768 1397 768 1397 753 1363 c 128,-1,22
 738 1329 738 1329 734.5 1285 c 128,-1,23
 731 1241 731 1241 731 1195 c 2,24,-1
 731 32 l 2,25,26
 731 -101 731 -101 694.5 -191 c 128,-1,27
 658 -281 658 -281 598 -336 c 128,-1,28
 538 -391 538 -391 461 -414.5 c 128,-1,29
 384 -438 384 -438 303 -438 c 0,30,31
 233 -438 233 -438 165.5 -424 c 128,-1,32
 98 -410 98 -410 47 -387 c 1,33,34
 47 -385 47 -385 48.5 -364 c 128,-1,35
 50 -343 50 -343 52.5 -312.5 c 128,-1,36
 55 -282 55 -282 57.5 -246.5 c 128,-1,37
 60 -211 60 -211 62.5 -180 c 128,-1,38
 65 -149 65 -149 66.5 -128 c 128,-1,39
 68 -107 68 -107 68 -105 c 1,40,41
 131 -127 131 -127 173 -127 c 0,42,43
 220 -127 220 -127 250.5 -111.5 c 128,-1,44
 281 -96 281 -96 299 -70.5 c 128,-1,45
 317 -45 317 -45 324 -12 c 128,-1,46
 331 21 331 21 331 57 c 2,47,-1
 331 1301 l 2,0,1
EndSplineSet
EndChar

StartChar: approxequal
Encoding: 8776 8776 240
Width: 1673
Flags: W
LayerCount: 2
Fore
SplineSet
1027 836 m 0,0,1
 988 836 988 836 950.5 850 c 128,-1,2
 913 864 913 864 875.5 885.5 c 128,-1,3
 838 907 838 907 801.5 931.5 c 128,-1,4
 765 956 765 956 729 977.5 c 128,-1,5
 693 999 693 999 657.5 1013 c 128,-1,6
 622 1027 622 1027 587 1027 c 0,7,8
 530 1027 530 1027 487 994.5 c 128,-1,9
 444 962 444 962 427 893 c 1,10,-1
 197 976 l 1,11,12
 233 1075 233 1075 282.5 1147 c 128,-1,13
 332 1219 332 1219 390.5 1266.5 c 128,-1,14
 449 1314 449 1314 515 1337 c 128,-1,15
 581 1360 581 1360 651 1360 c 0,16,17
 689 1360 689 1360 727 1346 c 128,-1,18
 765 1332 765 1332 802.5 1310.5 c 128,-1,19
 840 1289 840 1289 876.5 1264.5 c 128,-1,20
 913 1240 913 1240 949 1218.5 c 128,-1,21
 985 1197 985 1197 1020 1183 c 128,-1,22
 1055 1169 1055 1169 1090 1169 c 0,23,24
 1147 1169 1147 1169 1187.5 1193.5 c 128,-1,25
 1228 1218 1228 1218 1245 1272 c 1,26,-1
 1476 1189 l 1,27,28
 1441 1098 1441 1098 1392.5 1031.5 c 128,-1,29
 1344 965 1344 965 1285.5 921.5 c 128,-1,30
 1227 878 1227 878 1161.5 857 c 128,-1,31
 1096 836 1096 836 1027 836 c 0,0,1
1027 257 m 0,32,33
 988 257 988 257 950.5 271 c 128,-1,34
 913 285 913 285 875.5 306.5 c 128,-1,35
 838 328 838 328 801.5 352.5 c 128,-1,36
 765 377 765 377 729 398.5 c 128,-1,37
 693 420 693 420 657.5 434 c 128,-1,38
 622 448 622 448 587 448 c 0,39,40
 530 448 530 448 487 415.5 c 128,-1,41
 444 383 444 383 427 314 c 1,42,-1
 197 397 l 1,43,44
 233 496 233 496 282.5 568 c 128,-1,45
 332 640 332 640 390.5 687.5 c 128,-1,46
 449 735 449 735 515 758 c 128,-1,47
 581 781 581 781 651 781 c 0,48,49
 689 781 689 781 727 767 c 128,-1,50
 765 753 765 753 802.5 731.5 c 128,-1,51
 840 710 840 710 876.5 685.5 c 128,-1,52
 913 661 913 661 949 639.5 c 128,-1,53
 985 618 985 618 1020 604 c 128,-1,54
 1055 590 1055 590 1090 590 c 0,55,56
 1147 590 1147 590 1187.5 614.5 c 128,-1,57
 1228 639 1228 639 1245 693 c 1,58,-1
 1476 610 l 1,59,60
 1441 519 1441 519 1392.5 452.5 c 128,-1,61
 1344 386 1344 386 1285.5 342.5 c 128,-1,62
 1227 299 1227 299 1161.5 278 c 128,-1,63
 1096 257 1096 257 1027 257 c 0,32,33
EndSplineSet
EndChar

StartChar: notequal
Encoding: 8800 8800 241
Width: 1235
Flags: W
LayerCount: 2
Fore
SplineSet
1038 915 m 1,0,-1
 1038 672 l 1,1,-1
 780 672 l 1,2,-1
 726 519 l 1,3,-1
 1038 519 l 1,4,-1
 1038 263 l 1,5,-1
 636 263 l 1,6,-1
 544 0 l 1,7,-1
 305 0 l 1,8,-1
 395 263 l 1,9,-1
 197 263 l 1,10,-1
 197 519 l 1,11,-1
 483 519 l 1,12,-1
 536 672 l 1,13,-1
 197 672 l 1,14,-1
 197 915 l 1,15,-1
 623 915 l 1,16,-1
 689 1107 l 1,17,-1
 937 1107 l 1,18,-1
 870 915 l 1,19,-1
 1038 915 l 1,0,-1
EndSplineSet
EndChar

StartChar: lessequal
Encoding: 8804 8804 242
Width: 1098
Flags: W
LayerCount: 2
Fore
SplineSet
901 258 m 1,0,-1
 901 -5 l 1,1,-1
 197 -5 l 1,2,-1
 197 258 l 1,3,-1
 901 258 l 1,0,-1
197 1024 m 1,4,-1
 901 1280 l 1,5,-1
 901 960 l 1,6,-1
 389 832 l 1,7,-1
 901 704 l 1,8,-1
 901 384 l 1,9,-1
 197 640 l 1,10,-1
 197 1024 l 1,4,-1
EndSplineSet
EndChar

StartChar: greaterequal
Encoding: 8805 8805 243
Width: 1088
Flags: W
LayerCount: 2
Fore
SplineSet
891 258 m 1,0,-1
 891 0 l 1,1,-1
 197 0 l 1,2,-1
 197 258 l 1,3,-1
 891 258 l 1,0,-1
891 640 m 1,4,-1
 197 384 l 1,5,-1
 197 704 l 1,6,-1
 709 832 l 1,7,-1
 197 960 l 1,8,-1
 197 1280 l 1,9,-1
 891 1024 l 1,10,-1
 891 640 l 1,4,-1
EndSplineSet
EndChar

StartChar: lozenge
Encoding: 9674 9674 244
Width: 1047
Flags: W
LayerCount: 2
Fore
SplineSet
446 702 m 1,0,-1
 566 204 l 1,1,-1
 674 702 l 1,2,-1
 566 1200 l 1,3,-1
 446 702 l 1,0,-1
6 702 m 1,4,-1
 252 1404 l 1,5,-1
 799 1404 l 1,6,-1
 1041 702 l 1,7,-1
 799 0 l 1,8,-1
 252 0 l 1,9,-1
 6 702 l 1,4,-1
EndSplineSet
EndChar

StartChar: ff
Encoding: 64256 64256 245
Width: 1795
Flags: W
LayerCount: 2
Fore
SplineSet
641 0 m 1,0,-1
 209 0 l 1,1,-1
 209 827 l 1,2,-1
 37 827 l 1,3,-1
 37 1079 l 1,4,-1
 207 1079 l 1,5,6
 207 1202 207 1202 240 1293.5 c 128,-1,7
 273 1385 273 1385 334 1446 c 128,-1,8
 395 1507 395 1507 481.5 1537.5 c 128,-1,9
 568 1568 568 1568 676 1568 c 0,10,11
 764 1568 764 1568 839 1549 c 128,-1,12
 914 1530 914 1530 977 1504 c 1,13,-1
 945 1247 l 1,14,15
 887 1261 887 1261 848.5 1270.5 c 128,-1,16
 810 1280 810 1280 774 1280 c 0,17,18
 728 1280 728 1280 701.5 1263 c 128,-1,19
 675 1246 675 1246 661.5 1218 c 128,-1,20
 648 1190 648 1190 644.5 1153.5 c 128,-1,21
 641 1117 641 1117 641 1079 c 1,22,-1
 1056 1079 l 1,23,24
 1056 1202 1056 1202 1089 1293.5 c 128,-1,25
 1122 1385 1122 1385 1183 1446 c 128,-1,26
 1244 1507 1244 1507 1330.5 1537.5 c 128,-1,27
 1417 1568 1417 1568 1525 1568 c 0,28,29
 1613 1568 1613 1568 1688 1549 c 128,-1,30
 1763 1530 1763 1530 1826 1504 c 1,31,-1
 1794 1247 l 1,32,33
 1736 1261 1736 1261 1697.5 1270.5 c 128,-1,34
 1659 1280 1659 1280 1623 1280 c 0,35,36
 1577 1280 1577 1280 1550.5 1263 c 128,-1,37
 1524 1246 1524 1246 1510.5 1218 c 128,-1,38
 1497 1190 1497 1190 1493.5 1153.5 c 128,-1,39
 1490 1117 1490 1117 1490 1079 c 1,40,-1
 1792 1079 l 1,41,42
 1778 1013 1778 1013 1770 952 c 128,-1,43
 1762 891 1762 891 1762 827 c 1,44,-1
 1490 827 l 1,45,-1
 1490 0 l 1,46,-1
 1058 0 l 1,47,-1
 1058 827 l 1,48,-1
 641 827 l 1,49,-1
 641 0 l 1,0,-1
EndSplineSet
EndChar

StartChar: fi
Encoding: 64257 64257 246
Width: 1720
Flags: W
LayerCount: 2
Fore
SplineSet
641 0 m 1,0,-1
 209 0 l 1,1,-1
 209 827 l 1,2,-1
 37 827 l 1,3,-1
 37 1079 l 1,4,-1
 207 1079 l 1,5,6
 207 1202 207 1202 240 1293.5 c 128,-1,7
 273 1385 273 1385 334 1446 c 128,-1,8
 395 1507 395 1507 481.5 1537.5 c 128,-1,9
 568 1568 568 1568 676 1568 c 0,10,11
 764 1568 764 1568 839 1549 c 128,-1,12
 914 1530 914 1530 977 1504 c 1,13,-1
 945 1247 l 1,14,15
 887 1261 887 1261 848.5 1270.5 c 128,-1,16
 810 1280 810 1280 774 1280 c 0,17,18
 728 1280 728 1280 701.5 1263 c 128,-1,19
 675 1246 675 1246 661.5 1218 c 128,-1,20
 648 1190 648 1190 644.5 1153.5 c 128,-1,21
 641 1117 641 1117 641 1079 c 1,22,-1
 1553 1079 l 1,23,-1
 1553 0 l 1,24,-1
 1121 0 l 1,25,-1
 1121 827 l 1,26,-1
 641 827 l 1,27,-1
 641 0 l 1,0,-1
1338 1301 m 0,28,29
 1281 1301 1281 1301 1231 1313 c 128,-1,30
 1181 1325 1181 1325 1144.5 1346 c 128,-1,31
 1108 1367 1108 1367 1086.5 1397 c 128,-1,32
 1065 1427 1065 1427 1065 1463 c 0,33,34
 1065 1503 1065 1503 1086 1533.5 c 128,-1,35
 1107 1564 1107 1564 1144 1584 c 128,-1,36
 1181 1604 1181 1604 1231 1614 c 128,-1,37
 1281 1624 1281 1624 1339 1624 c 256,38,39
 1397 1624 1397 1624 1447.5 1614 c 128,-1,40
 1498 1604 1498 1604 1535 1584 c 128,-1,41
 1572 1564 1572 1564 1593 1533.5 c 128,-1,42
 1614 1503 1614 1503 1614 1463 c 0,43,44
 1614 1427 1614 1427 1592.5 1397 c 128,-1,45
 1571 1367 1571 1367 1534 1346 c 128,-1,46
 1497 1325 1497 1325 1446.5 1313 c 128,-1,47
 1396 1301 1396 1301 1338 1301 c 0,28,29
EndSplineSet
EndChar

StartChar: fl
Encoding: 64258 64258 247
Width: 1703
Flags: W
LayerCount: 2
Fore
SplineSet
1115 1536 m 1,0,-1
 1547 1536 l 1,1,-1
 1547 0 l 1,2,-1
 1115 0 l 1,3,-1
 1115 827 l 1,4,-1
 641 827 l 1,5,-1
 641 0 l 1,6,-1
 209 0 l 1,7,-1
 209 827 l 1,8,-1
 37 827 l 1,9,-1
 37 1079 l 1,10,-1
 207 1079 l 1,11,12
 207 1202 207 1202 240 1293.5 c 128,-1,13
 273 1385 273 1385 334 1446 c 128,-1,14
 395 1507 395 1507 481.5 1537.5 c 128,-1,15
 568 1568 568 1568 676 1568 c 0,16,17
 764 1568 764 1568 839 1549 c 128,-1,18
 914 1530 914 1530 977 1504 c 1,19,-1
 945 1247 l 1,20,21
 887 1261 887 1261 848.5 1270.5 c 128,-1,22
 810 1280 810 1280 774 1280 c 0,23,24
 728 1280 728 1280 701.5 1263 c 128,-1,25
 675 1246 675 1246 661.5 1218 c 128,-1,26
 648 1190 648 1190 644.5 1153.5 c 128,-1,27
 641 1117 641 1117 641 1079 c 1,28,-1
 1115 1079 l 1,29,-1
 1115 1536 l 1,0,-1
EndSplineSet
EndChar

StartChar: ffi
Encoding: 64259 64259 248
Width: 2472
Flags: W
LayerCount: 2
Fore
SplineSet
641 0 m 1,0,-1
 209 0 l 1,1,-1
 209 827 l 1,2,-1
 37 827 l 1,3,-1
 37 1079 l 1,4,-1
 207 1079 l 1,5,6
 207 1202 207 1202 240 1293.5 c 128,-1,7
 273 1385 273 1385 334 1446 c 128,-1,8
 395 1507 395 1507 481.5 1537.5 c 128,-1,9
 568 1568 568 1568 676 1568 c 0,10,11
 764 1568 764 1568 839 1549 c 128,-1,12
 914 1530 914 1530 977 1504 c 1,13,-1
 945 1247 l 1,14,15
 887 1261 887 1261 848.5 1270.5 c 128,-1,16
 810 1280 810 1280 774 1280 c 0,17,18
 728 1280 728 1280 701.5 1263 c 128,-1,19
 675 1246 675 1246 661.5 1218 c 128,-1,20
 648 1190 648 1190 644.5 1153.5 c 128,-1,21
 641 1117 641 1117 641 1079 c 1,22,-1
 1027 1079 l 1,23,24
 1027 1202 1027 1202 1060 1293.5 c 128,-1,25
 1093 1385 1093 1385 1154 1446 c 128,-1,26
 1215 1507 1215 1507 1301.5 1537.5 c 128,-1,27
 1388 1568 1388 1568 1496 1568 c 0,28,29
 1584 1568 1584 1568 1659 1549 c 128,-1,30
 1734 1530 1734 1530 1797 1504 c 1,31,-1
 1765 1247 l 1,32,33
 1707 1261 1707 1261 1668.5 1270.5 c 128,-1,34
 1630 1280 1630 1280 1594 1280 c 0,35,36
 1548 1280 1548 1280 1521.5 1263 c 128,-1,37
 1495 1246 1495 1246 1481.5 1218 c 128,-1,38
 1468 1190 1468 1190 1464.5 1153.5 c 128,-1,39
 1461 1117 1461 1117 1461 1079 c 1,40,-1
 2340 1079 l 1,41,-1
 2340 0 l 1,42,-1
 1908 0 l 1,43,-1
 1908 827 l 1,44,-1
 1461 827 l 1,45,-1
 1461 0 l 1,46,-1
 1029 0 l 1,47,-1
 1029 827 l 1,48,-1
 641 827 l 1,49,-1
 641 0 l 1,0,-1
2125 1301 m 0,50,51
 2068 1301 2068 1301 2018 1313 c 128,-1,52
 1968 1325 1968 1325 1931.5 1346 c 128,-1,53
 1895 1367 1895 1367 1873.5 1397 c 128,-1,54
 1852 1427 1852 1427 1852 1463 c 0,55,56
 1852 1503 1852 1503 1873 1533.5 c 128,-1,57
 1894 1564 1894 1564 1931 1584 c 128,-1,58
 1968 1604 1968 1604 2018 1614 c 128,-1,59
 2068 1624 2068 1624 2126 1624 c 256,60,61
 2184 1624 2184 1624 2234.5 1614 c 128,-1,62
 2285 1604 2285 1604 2322 1584 c 128,-1,63
 2359 1564 2359 1564 2380 1533.5 c 128,-1,64
 2401 1503 2401 1503 2401 1463 c 0,65,66
 2401 1427 2401 1427 2379.5 1397 c 128,-1,67
 2358 1367 2358 1367 2321 1346 c 128,-1,68
 2284 1325 2284 1325 2233.5 1313 c 128,-1,69
 2183 1301 2183 1301 2125 1301 c 0,50,51
EndSplineSet
EndChar

StartChar: ffl
Encoding: 64260 64260 249
Width: 2483
Flags: W
LayerCount: 2
Fore
SplineSet
1920 1536 m 1,0,-1
 2352 1536 l 1,1,-1
 2352 0 l 1,2,-1
 1920 0 l 1,3,-1
 1920 827 l 1,4,-1
 1461 827 l 1,5,-1
 1461 0 l 1,6,-1
 1029 0 l 1,7,-1
 1029 827 l 1,8,-1
 641 827 l 1,9,-1
 641 0 l 1,10,-1
 209 0 l 1,11,-1
 209 827 l 1,12,-1
 37 827 l 1,13,-1
 37 1079 l 1,14,-1
 207 1079 l 1,15,16
 207 1202 207 1202 240 1293.5 c 128,-1,17
 273 1385 273 1385 334 1446 c 128,-1,18
 395 1507 395 1507 481.5 1537.5 c 128,-1,19
 568 1568 568 1568 676 1568 c 0,20,21
 764 1568 764 1568 839 1549 c 128,-1,22
 914 1530 914 1530 977 1504 c 1,23,-1
 945 1247 l 1,24,25
 887 1261 887 1261 848.5 1270.5 c 128,-1,26
 810 1280 810 1280 774 1280 c 0,27,28
 728 1280 728 1280 701.5 1263 c 128,-1,29
 675 1246 675 1246 661.5 1218 c 128,-1,30
 648 1190 648 1190 644.5 1153.5 c 128,-1,31
 641 1117 641 1117 641 1079 c 1,32,-1
 1027 1079 l 1,33,34
 1027 1202 1027 1202 1060 1293.5 c 128,-1,35
 1093 1385 1093 1385 1154 1446 c 128,-1,36
 1215 1507 1215 1507 1301.5 1537.5 c 128,-1,37
 1388 1568 1388 1568 1496 1568 c 0,38,39
 1584 1568 1584 1568 1659 1549 c 128,-1,40
 1734 1530 1734 1530 1797 1504 c 1,41,-1
 1765 1247 l 1,42,43
 1707 1261 1707 1261 1668.5 1270.5 c 128,-1,44
 1630 1280 1630 1280 1594 1280 c 0,45,46
 1548 1280 1548 1280 1521.5 1263 c 128,-1,47
 1495 1246 1495 1246 1481.5 1218 c 128,-1,48
 1468 1190 1468 1190 1464.5 1153.5 c 128,-1,49
 1461 1117 1461 1117 1461 1079 c 1,50,-1
 1920 1079 l 1,51,-1
 1920 1536 l 1,0,-1
EndSplineSet
EndChar

StartChar: foursuperior
Encoding: 8308 8308 251
Width: 1421
Flags: W
LayerCount: 2
Fore
SplineSet
1089 748 m 1,0,-1
 1264 748 l 1,1,-1
 1264 509 l 1,2,-1
 1089 509 l 1,3,-1
 1089 305 l 1,4,-1
 647 305 l 1,5,-1
 647 509 l 1,6,-1
 145 509 l 1,7,-1
 145 748 l 1,8,-1
 493 1414 l 1,9,-1
 1089 1414 l 1,10,-1
 1089 748 l 1,0,-1
683 1195 m 1,11,-1
 442 748 l 1,12,-1
 707 748 l 1,13,-1
 707 1195 l 1,14,-1
 683 1195 l 1,11,-1
EndSplineSet
EndChar

StartChar: lacute
Encoding: 314 314 290
Width: 744
Flags: W
LayerCount: 2
Fore
SplineSet
156 1441 m 1,0,-1
 588 1441 l 1,1,-1
 588 0 l 1,2,-1
 156 0 l 1,3,-1
 156 1441 l 1,0,-1
200 1536 m 1,4,-1
 296 2170 l 1,5,-1
 744 2170 l 1,6,-1
 488 1536 l 1,7,-1
 200 1536 l 1,4,-1
EndSplineSet
EndChar

StartChar: dcroat
Encoding: 273 273 296
Width: 1519
Flags: W
LayerCount: 2
Fore
SplineSet
571 -29 m 0,0,1
 473 -29 473 -29 384.5 4 c 128,-1,2
 296 37 296 37 229.5 106.5 c 128,-1,3
 163 176 163 176 123.5 283 c 128,-1,4
 84 390 84 390 84 538 c 0,5,6
 84 694 84 694 124.5 802.5 c 128,-1,7
 165 911 165 911 231 978.5 c 128,-1,8
 297 1046 297 1046 382 1076 c 128,-1,9
 467 1106 467 1106 557 1106 c 0,10,11
 614 1106 614 1106 671 1093 c 128,-1,12
 728 1080 728 1080 778 1056.5 c 128,-1,13
 828 1033 828 1033 868 1001 c 128,-1,14
 908 969 908 969 931 931 c 1,15,-1
 931 1221 l 1,16,-1
 689 1221 l 1,17,-1
 689 1414 l 1,18,-1
 931 1414 l 1,19,-1
 931 1536 l 1,20,-1
 1363 1536 l 1,21,-1
 1363 1414 l 1,22,-1
 1519 1414 l 1,23,-1
 1519 1221 l 1,24,-1
 1363 1221 l 1,25,-1
 1363 0 l 1,26,-1
 931 0 l 1,27,-1
 931 178 l 1,28,29
 904 129 904 129 865 90.5 c 128,-1,30
 826 52 826 52 778.5 25.5 c 128,-1,31
 731 -1 731 -1 678 -15 c 128,-1,32
 625 -29 625 -29 571 -29 c 0,0,1
516 537 m 256,33,34
 516 455 516 455 534 400 c 128,-1,35
 552 345 552 345 581.5 311.5 c 128,-1,36
 611 278 611 278 648.5 263.5 c 128,-1,37
 686 249 686 249 725 249 c 256,38,39
 764 249 764 249 801 263.5 c 128,-1,40
 838 278 838 278 867 311.5 c 128,-1,41
 896 345 896 345 913.5 400.5 c 128,-1,42
 931 456 931 456 931 538 c 0,43,44
 931 619 931 619 913.5 674.5 c 128,-1,45
 896 730 896 730 867 764 c 128,-1,46
 838 798 838 798 801.5 812.5 c 128,-1,47
 765 827 765 827 726 827 c 256,48,49
 687 827 687 827 649.5 812.5 c 128,-1,50
 612 798 612 798 582 764 c 128,-1,51
 552 730 552 730 534 674.5 c 128,-1,52
 516 619 516 619 516 537 c 256,33,34
EndSplineSet
EndChar

StartChar: uni0311
Encoding: 785 785 332
Width: 1064
Flags: W
LayerCount: 2
Fore
SplineSet
692 1200 m 1,0,1
 692 1234 692 1234 678 1257 c 128,-1,2
 664 1280 664 1280 641.5 1293.5 c 128,-1,3
 619 1307 619 1307 590.5 1313 c 128,-1,4
 562 1319 562 1319 532 1319 c 256,5,6
 502 1319 502 1319 473 1313 c 128,-1,7
 444 1307 444 1307 421.5 1293.5 c 128,-1,8
 399 1280 399 1280 385.5 1257 c 128,-1,9
 372 1234 372 1234 372 1200 c 1,10,-1
 160 1200 l 1,11,12
 160 1291 160 1291 187 1356.5 c 128,-1,13
 214 1422 214 1422 262.5 1464 c 128,-1,14
 311 1506 311 1506 379.5 1525.5 c 128,-1,15
 448 1545 448 1545 532 1545 c 0,16,17
 605 1545 605 1545 672.5 1525.5 c 128,-1,18
 740 1506 740 1506 791.5 1464 c 128,-1,19
 843 1422 843 1422 873.5 1356.5 c 128,-1,20
 904 1291 904 1291 904 1200 c 1,21,-1
 692 1200 l 1,0,1
EndSplineSet
EndChar

